STARTFONT 2.1
COMMENT
COMMENT Converted from OpenType font "NimbusSans-Regular.otf" by "otf2bdf 3.0".
COMMENT
FONT -FreeType-Nimbus Sans-Medium-R-Normal--30-220-100-100-P-161-ISO10646-1
SIZE 22 100 100
FONTBOUNDINGBOX 38 42 -6 -9
STARTPROPERTIES 19
FOUNDRY "FreeType"
FAMILY_NAME "Nimbus Sans"
WEIGHT_NAME "Medium"
SLANT "R"
SETWIDTH_NAME "Normal"
ADD_STYLE_NAME ""
PIXEL_SIZE 30
POINT_SIZE 220
RESOLUTION_X 100
RESOLUTION_Y 100
SPACING "P"
AVERAGE_WIDTH 161
CHARSET_REGISTRY "ISO10646"
CHARSET_ENCODING "1"
FONT_ASCENT 22
FONT_DESCENT 8
COPYRIGHT "(URW)++,Copyright 2014 by (URW)++ Design & Development"
_OTF_FONTFILE "NimbusSans-Regular.otf"
_OTF_PSNAME "NimbusSans-Regular"
ENDPROPERTIES
CHARS 854
STARTCHAR 0020
ENCODING 32
SWIDTH 294 0
DWIDTH 9 0
BBX 0 0 0 0
BITMAP
ENDCHAR
STARTCHAR 0021
ENCODING 33
SWIDTH 294 0
DWIDTH 9 0
BBX 2 22 4 0
BITMAP
C0
C0
C0
C0
C0
C0
C0
C0
C0
C0
C0
C0
C0
C0
C0
C0
C0
00
00
C0
C0
C0
ENDCHAR
STARTCHAR 0022
ENCODING 34
SWIDTH 360 0
DWIDTH 11 0
BBX 7 8 2 14
BITMAP
CE
CE
CE
CE
C6
C6
C6
C6
ENDCHAR
STARTCHAR 0023
ENCODING 35
SWIDTH 556 0
DWIDTH 17 0
BBX 17 22 0 0
BITMAP
038E00
030E00
030C00
030C00
030C00
071C00
3FFF80
3FFF80
061800
061800
0E1800
0E3800
0C3800
0C3000
FFFF00
FFFF00
1C3000
1C7000
187000
186000
186000
386000
ENDCHAR
STARTCHAR 0024
ENCODING 36
SWIDTH 556 0
DWIDTH 17 0
BBX 15 28 1 -4
BITMAP
0100
0100
07C0
1FF0
3D78
711C
610C
610C
6100
6100
7100
3D00
3FC0
0FF8
01FC
011E
010E
010E
E106
E10E
610E
711C
3D7C
1FF0
07C0
0100
0100
0100
ENDCHAR
STARTCHAR 0025
ENCODING 37
SWIDTH 883 0
DWIDTH 27 0
BBX 25 22 1 0
BITMAP
00006000
1F006000
7F80C000
61C0C000
C0C18000
C0C18000
C0C30000
E0C30000
71C60000
7F8C0000
1E0C0000
00180000
00183E00
0030FF00
0030C380
00618180
00618180
00C18180
01818180
0180E380
0300FF00
03003C00
ENDCHAR
STARTCHAR 0026
ENCODING 38
SWIDTH 654 0
DWIDTH 20 0
BBX 17 22 2 0
BITMAP
07C000
1FE000
1C7000
383000
383000
383000
387000
1CE000
0FC000
0F8000
1F8000
3B8600
71C600
E0E600
C07E00
C07E00
C03C00
E03C00
E07E00
7DF600
7FC700
1F8380
ENDCHAR
STARTCHAR 0027
ENCODING 39
SWIDTH 196 0
DWIDTH 6 0
BBX 3 8 1 14
BITMAP
E0
E0
E0
E0
60
60
60
60
ENDCHAR
STARTCHAR 0028
ENCODING 40
SWIDTH 327 0
DWIDTH 10 0
BBX 7 29 2 -7
BITMAP
06
0C
0C
18
18
30
30
70
60
60
60
E0
E0
E0
E0
E0
E0
E0
60
60
70
70
30
30
18
18
0C
0C
06
ENDCHAR
STARTCHAR 0029
ENCODING 41
SWIDTH 327 0
DWIDTH 10 0
BBX 7 29 1 -7
BITMAP
C0
60
30
30
38
18
18
1C
0C
0C
0C
0E
0E
0E
0E
0E
0E
0E
0C
0C
0C
1C
18
18
30
30
60
60
C0
ENDCHAR
STARTCHAR 002A
ENCODING 42
SWIDTH 392 0
DWIDTH 12 0
BBX 9 9 1 13
BITMAP
0C00
0C00
0C80
FF80
3F00
1E00
3E00
3300
2000
ENDCHAR
STARTCHAR 002B
ENCODING 43
SWIDTH 589 0
DWIDTH 18 0
BBX 14 14 2 0
BITMAP
0300
0300
0300
0300
0300
0300
FFFC
FFFC
0300
0300
0300
0300
0300
0300
ENDCHAR
STARTCHAR 002C
ENCODING 44
SWIDTH 294 0
DWIDTH 9 0
BBX 3 7 3 -5
BITMAP
E0
E0
E0
60
60
60
C0
ENDCHAR
STARTCHAR 002D
ENCODING 45
SWIDTH 327 0
DWIDTH 10 0
BBX 8 2 1 7
BITMAP
FF
FF
ENDCHAR
STARTCHAR 002E
ENCODING 46
SWIDTH 294 0
DWIDTH 9 0
BBX 3 3 3 0
BITMAP
E0
E0
E0
ENDCHAR
STARTCHAR 002F
ENCODING 47
SWIDTH 294 0
DWIDTH 9 0
BBX 9 22 0 0
BITMAP
0180
0300
0300
0300
0600
0600
0600
0400
0C00
0C00
0800
1800
1800
1000
3000
3000
2000
6000
6000
4000
C000
C000
ENDCHAR
STARTCHAR 0030
ENCODING 48
SWIDTH 556 0
DWIDTH 17 0
BBX 14 22 1 0
BITMAP
07C0
1FF0
3CF0
3838
701C
701C
601C
600C
E00C
E00C
E00C
E00C
E00C
E00C
600C
701C
701C
701C
3838
3C70
1FF0
07C0
ENDCHAR
STARTCHAR 0031
ENCODING 49
SWIDTH 556 0
DWIDTH 17 0
BBX 8 22 3 0
BITMAP
03
07
07
0F
FF
FF
07
07
07
07
07
07
07
07
07
07
07
07
07
07
07
07
ENDCHAR
STARTCHAR 0032
ENCODING 50
SWIDTH 556 0
DWIDTH 17 0
BBX 15 22 1 0
BITMAP
07E0
1FF0
3CF8
781C
701C
700E
600E
600E
001C
001C
0038
00F0
03E0
0780
1E00
3C00
7800
7000
6000
FFFC
FFFC
FFFC
ENDCHAR
STARTCHAR 0033
ENCODING 51
SWIDTH 556 0
DWIDTH 17 0
BBX 14 22 1 0
BITMAP
0FC0
1FF0
3EF8
7038
701C
601C
E01C
001C
0038
03F0
03E0
01F8
001C
001C
000C
E00C
E00C
E01C
701C
7CF8
3FF0
0FC0
ENDCHAR
STARTCHAR 0034
ENCODING 52
SWIDTH 556 0
DWIDTH 17 0
BBX 15 22 1 0
BITMAP
0070
00F0
00F0
01F0
03F0
0370
0670
0E70
1C70
1870
3870
7070
6070
E070
FFFE
FFFE
0070
0070
0070
0070
0070
0070
ENDCHAR
STARTCHAR 0035
ENCODING 53
SWIDTH 556 0
DWIDTH 17 0
BBX 15 22 1 0
BITMAP
3FFC
3FFC
3FFC
3000
3000
3000
7000
77C0
7FF0
7EF8
703C
001C
000E
000E
000E
000E
E00C
E01C
703C
7CF8
3FF0
0FC0
ENDCHAR
STARTCHAR 0036
ENCODING 54
SWIDTH 556 0
DWIDTH 17 0
BBX 15 22 1 0
BITMAP
03E0
0FF0
1E78
381C
701C
700C
7000
6000
E3E0
EFF0
FEF8
F81C
F01C
E00E
E00E
600E
700E
701C
381C
3EF8
1FF0
07C0
ENDCHAR
STARTCHAR 0037
ENCODING 55
SWIDTH 556 0
DWIDTH 17 0
BBX 15 22 1 0
BITMAP
FFFE
FFFE
FFFE
000C
0018
0038
0030
0060
00E0
00C0
01C0
0180
0380
0300
0300
0700
0600
0E00
0E00
0E00
0C00
1C00
ENDCHAR
STARTCHAR 0038
ENCODING 56
SWIDTH 556 0
DWIDTH 17 0
BBX 15 22 1 0
BITMAP
07C0
1FF0
3EF8
703C
701C
701C
701C
701C
3838
1FF0
1FF0
3C78
701C
E01C
E00E
E00E
E00E
E01C
701C
3EF8
1FF0
0FC0
ENDCHAR
STARTCHAR 0039
ENCODING 57
SWIDTH 556 0
DWIDTH 17 0
BBX 15 22 1 0
BITMAP
07C0
1FF0
3CF8
7038
701C
E01C
E00C
E00C
E01E
E01E
703E
7EFE
3FEE
0F8C
000C
001C
001C
7018
7038
3CF0
1FE0
0F80
ENDCHAR
STARTCHAR 003A
ENCODING 58
SWIDTH 294 0
DWIDTH 9 0
BBX 4 16 3 0
BITMAP
F0
F0
F0
00
00
00
00
00
00
00
00
00
00
F0
F0
F0
ENDCHAR
STARTCHAR 003B
ENCODING 59
SWIDTH 294 0
DWIDTH 9 0
BBX 4 20 3 -5
BITMAP
F0
F0
F0
00
00
00
00
00
00
00
00
00
00
F0
F0
F0
30
30
20
E0
ENDCHAR
STARTCHAR 003C
ENCODING 60
SWIDTH 589 0
DWIDTH 18 0
BBX 15 14 1 1
BITMAP
000E
003E
00F8
07E0
1F00
7C00
E000
FC00
3F00
07C0
01F8
007E
000E
0002
ENDCHAR
STARTCHAR 003D
ENCODING 61
SWIDTH 589 0
DWIDTH 18 0
BBX 14 8 2 3
BITMAP
FFFC
FFFC
0000
0000
0000
0000
FFFC
FFFC
ENDCHAR
STARTCHAR 003E
ENCODING 62
SWIDTH 589 0
DWIDTH 18 0
BBX 14 14 2 1
BITMAP
C000
F800
3E00
0FC0
03F0
007C
001C
003C
01F8
07C0
3F00
F800
E000
8000
ENDCHAR
STARTCHAR 003F
ENCODING 63
SWIDTH 556 0
DWIDTH 17 0
BBX 14 22 2 0
BITMAP
0FC0
3FF0
3CF8
7038
6018
E01C
E01C
0038
0038
0070
00E0
01C0
0380
0700
0700
0700
0000
0000
0000
0700
0700
0700
ENDCHAR
STARTCHAR 0040
ENCODING 64
SWIDTH 1014 0
DWIDTH 31 0
BBX 28 26 1 -4
BITMAP
001FE000
007FF800
01F8FE00
03C00F00
0F000780
0E0003C0
1C0001E0
380F80E0
301FDC70
70787870
60707870
E0E03070
E0C03070
E1C07070
E1C06060
E1C0E0E0
E1C0E1C0
60E1E380
707F7F00
783C7E00
38000000
1E000000
0F000000
07E03000
01FFF800
007FF000
ENDCHAR
STARTCHAR 0041
ENCODING 65
SWIDTH 654 0
DWIDTH 20 0
BBX 19 22 1 0
BITMAP
01E000
01F000
01F000
03F000
03B800
073800
073800
071C00
0E1C00
0E1E00
0E0E00
1C0E00
1C0700
1FFF00
3FFF00
380380
700380
700380
7001C0
E001C0
E001C0
E000E0
ENDCHAR
STARTCHAR 0042
ENCODING 66
SWIDTH 654 0
DWIDTH 20 0
BBX 17 22 2 0
BITMAP
FFF800
FFFC00
FFFE00
E00F00
E00700
E00700
E00700
E00700
E00E00
E07C00
FFF800
FFFE00
E00F00
E00380
E00380
E00380
E00380
E00380
E00700
E03F00
FFFE00
FFF800
ENDCHAR
STARTCHAR 0043
ENCODING 67
SWIDTH 720 0
DWIDTH 22 0
BBX 20 22 1 0
BITMAP
01FC00
07FF00
0FFF80
1E03C0
3801E0
3800E0
7000E0
700000
700000
600000
E00000
E00000
600000
700000
700070
7000E0
3800E0
3C01E0
1E03C0
0FFF80
07FF00
01FC00
ENDCHAR
STARTCHAR 0044
ENCODING 68
SWIDTH 720 0
DWIDTH 22 0
BBX 17 22 3 0
BITMAP
FFE000
FFFC00
FFFE00
E00E00
E00700
E00700
E00380
E00380
E00380
E00380
E00180
E00180
E00380
E00380
E00380
E00380
E00700
E00700
E00E00
E0FE00
FFF800
FFE000
ENDCHAR
STARTCHAR 0045
ENCODING 69
SWIDTH 654 0
DWIDTH 20 0
BBX 16 22 3 0
BITMAP
FFFE
FFFE
FFFE
E000
E000
E000
E000
E000
E000
E000
FFFE
FFFE
E000
E000
E000
E000
E000
E000
E000
E000
FFFF
FFFF
ENDCHAR
STARTCHAR 0046
ENCODING 70
SWIDTH 621 0
DWIDTH 19 0
BBX 15 22 3 0
BITMAP
FFFE
FFFE
FFFE
E000
E000
E000
E000
E000
E000
E000
FFF8
FFF8
E000
E000
E000
E000
E000
E000
E000
E000
E000
E000
ENDCHAR
STARTCHAR 0047
ENCODING 71
SWIDTH 785 0
DWIDTH 24 0
BBX 21 22 1 0
BITMAP
00FE00
07FF80
0FFFC0
1E01E0
3C00F0
380070
700070
700000
600000
E00000
E01FF8
E01FF8
E01FF8
700038
700038
700038
380078
3C00F8
1E01F8
0FFFB8
07FF18
01FC00
ENDCHAR
STARTCHAR 0048
ENCODING 72
SWIDTH 720 0
DWIDTH 22 0
BBX 17 22 3 0
BITMAP
C00380
C00380
C00380
C00380
C00380
C00380
C00380
C00380
C00380
C00380
FFFF80
FFFF80
C00380
C00380
C00380
C00380
C00380
C00380
C00380
C00380
C00380
C00380
ENDCHAR
STARTCHAR 0049
ENCODING 73
SWIDTH 294 0
DWIDTH 9 0
BBX 3 22 3 0
BITMAP
E0
E0
E0
E0
E0
E0
E0
E0
E0
E0
E0
E0
E0
E0
E0
E0
E0
E0
E0
E0
E0
E0
ENDCHAR
STARTCHAR 004A
ENCODING 74
SWIDTH 490 0
DWIDTH 15 0
BBX 12 22 1 0
BITMAP
0070
0070
0070
0070
0070
0070
0070
0070
0070
0070
0070
0070
0070
0070
C070
C070
E070
E070
E0F0
FBE0
7FC0
1F00
ENDCHAR
STARTCHAR 004B
ENCODING 75
SWIDTH 654 0
DWIDTH 20 0
BBX 18 22 2 0
BITMAP
E003C0
E00700
E00E00
E01C00
E03800
E07000
E0E000
E1C000
E38000
E78000
EFC000
FDE000
F8E000
F07000
E03800
E03C00
E01C00
E00E00
E00F00
E00700
E00380
E003C0
ENDCHAR
STARTCHAR 004C
ENCODING 76
SWIDTH 556 0
DWIDTH 17 0
BBX 14 22 2 0
BITMAP
E000
E000
E000
E000
E000
E000
E000
E000
E000
E000
E000
E000
E000
E000
E000
E000
E000
E000
E000
E000
FFFC
FFFC
ENDCHAR
STARTCHAR 004D
ENCODING 77
SWIDTH 818 0
DWIDTH 25 0
BBX 21 22 2 0
BITMAP
F00078
F80078
F800F8
F800F8
FC00D8
EC01D8
EC01D8
EE0198
E60398
E70398
E70318
E30718
E38718
E38618
E18E18
E1CE18
E1CC18
E0DC18
E0F818
E0F818
E07818
E07018
ENDCHAR
STARTCHAR 004E
ENCODING 78
SWIDTH 720 0
DWIDTH 22 0
BBX 18 22 2 0
BITMAP
F001C0
F001C0
F801C0
FC01C0
FC01C0
EE01C0
EF01C0
E701C0
E381C0
E3C1C0
E1C1C0
E0E1C0
E0F1C0
E071C0
E039C0
E039C0
E01DC0
E00FC0
E00FC0
E007C0
E003C0
E003C0
ENDCHAR
STARTCHAR 004F
ENCODING 79
SWIDTH 785 0
DWIDTH 24 0
BBX 22 22 1 0
BITMAP
00FE00
07FF80
0FFFC0
1E01E0
3C00F0
780070
700038
700038
E00018
E0001C
E0001C
E0001C
E0001C
E00018
700038
700038
780070
3C00F0
1E01E0
0FFFC0
07FF80
01FC00
ENDCHAR
STARTCHAR 0050
ENCODING 80
SWIDTH 654 0
DWIDTH 20 0
BBX 16 22 3 0
BITMAP
FFF0
FFFC
FFFE
E00E
E00F
E007
E007
E007
E00F
E01E
FFFC
FFF8
FFC0
E000
E000
E000
E000
E000
E000
E000
E000
E000
ENDCHAR
STARTCHAR 0051
ENCODING 81
SWIDTH 785 0
DWIDTH 24 0
BBX 22 23 1 -1
BITMAP
00FE00
07FF80
0FFFC0
1E01E0
3C00F0
780070
700038
700038
E00018
E0001C
E0001C
E0001C
E0001C
E00018
700038
700038
780670
3C07F0
1E03E0
0FFFE0
07FFF0
01FC38
000010
ENDCHAR
STARTCHAR 0052
ENCODING 82
SWIDTH 720 0
DWIDTH 22 0
BBX 18 22 3 0
BITMAP
FFF800
FFFE00
FFFF00
E00780
E00380
E00380
E00380
E00380
E00700
E00F00
FFFC00
FFFC00
FFFE00
E00700
E00700
E00300
E00300
E00300
E00380
E00380
E00380
E003C0
ENDCHAR
STARTCHAR 0053
ENCODING 83
SWIDTH 654 0
DWIDTH 20 0
BBX 17 22 2 0
BITMAP
07F000
1FFC00
3E7E00
700E00
E00700
E00700
E00700
F00000
780000
7F8000
1FF800
03FE00
003F00
000780
000380
C00380
E00380
E00380
700700
7FFE00
3FFC00
07F000
ENDCHAR
STARTCHAR 0054
ENCODING 84
SWIDTH 621 0
DWIDTH 19 0
BBX 17 22 1 0
BITMAP
FFFF80
FFFF80
FFFF80
01C000
01C000
01C000
01C000
01C000
01C000
01C000
01C000
01C000
01C000
01C000
01C000
01C000
01C000
01C000
01C000
01C000
01C000
01C000
ENDCHAR
STARTCHAR 0055
ENCODING 85
SWIDTH 720 0
DWIDTH 22 0
BBX 17 22 3 0
BITMAP
C00380
C00380
C00380
C00380
C00380
C00380
C00380
C00380
C00380
C00380
C00380
C00380
C00380
C00380
C00380
E00380
E00380
E00700
700F00
7FFE00
3FFC00
07F000
ENDCHAR
STARTCHAR 0056
ENCODING 86
SWIDTH 654 0
DWIDTH 20 0
BBX 19 22 1 0
BITMAP
E000E0
F001C0
7001C0
700180
380380
380380
380300
1C0700
1C0700
1C0600
0E0E00
0E0E00
0E0C00
071C00
071C00
031800
03B800
03B800
01B000
01F000
01E000
00E000
ENDCHAR
STARTCHAR 0057
ENCODING 87
SWIDTH 949 0
DWIDTH 29 0
BBX 27 22 1 0
BITMAP
E00E00E0
E00E00E0
E01F00E0
701F01C0
701B01C0
703B81C0
703B81C0
383B8380
38318380
3871C380
3871C380
1C60C300
1C60E700
1CE0E700
1CE0E700
0CC06600
0FC07E00
0FC07E00
0F803E00
07803C00
07803C00
07803C00
ENDCHAR
STARTCHAR 0058
ENCODING 88
SWIDTH 654 0
DWIDTH 20 0
BBX 18 22 1 0
BITMAP
F001C0
780380
380780
1C0700
1E0E00
0E1E00
071C00
07B800
03F000
01F000
01E000
01F000
03F000
03B800
073C00
0E1C00
0E0E00
1C0F00
380700
780380
7003C0
E001C0
ENDCHAR
STARTCHAR 0059
ENCODING 89
SWIDTH 654 0
DWIDTH 20 0
BBX 19 22 1 0
BITMAP
E001E0
F001C0
7003C0
380380
3C0700
1C0700
0E0E00
0E1C00
071C00
07B800
03B800
01F000
01E000
00E000
00E000
00E000
00E000
00E000
00E000
00E000
00E000
00E000
ENDCHAR
STARTCHAR 005A
ENCODING 90
SWIDTH 621 0
DWIDTH 19 0
BBX 17 22 1 0
BITMAP
7FFF80
7FFF80
7FFF80
000F00
000E00
001C00
003C00
007800
007000
00E000
01E000
03C000
078000
070000
0E0000
1E0000
3C0000
780000
700000
E00000
FFFF80
FFFF80
ENDCHAR
STARTCHAR 005B
ENCODING 91
SWIDTH 294 0
DWIDTH 9 0
BBX 6 28 2 -6
BITMAP
FC
FC
C0
C0
C0
C0
C0
C0
C0
C0
C0
C0
C0
C0
C0
C0
C0
C0
C0
C0
C0
C0
C0
C0
C0
C0
FC
FC
ENDCHAR
STARTCHAR 005C
ENCODING 92
SWIDTH 294 0
DWIDTH 9 0
BBX 9 22 0 0
BITMAP
C000
C000
4000
6000
6000
2000
3000
3000
1000
1800
1800
0800
0C00
0C00
0400
0600
0600
0600
0300
0300
0300
0180
ENDCHAR
STARTCHAR 005D
ENCODING 93
SWIDTH 294 0
DWIDTH 9 0
BBX 5 28 1 -6
BITMAP
F8
F8
18
18
18
18
18
18
18
18
18
18
18
18
18
18
18
18
18
18
18
18
18
18
18
18
F8
F8
ENDCHAR
STARTCHAR 005E
ENCODING 94
SWIDTH 458 0
DWIDTH 14 0
BBX 11 12 2 10
BITMAP
0C00
0E00
1E00
1F00
3300
3300
3180
6180
61C0
C0C0
C0C0
C060
ENDCHAR
STARTCHAR 005F
ENCODING 95
SWIDTH 556 0
DWIDTH 17 0
BBX 19 2 -1 -6
BITMAP
FFFFE0
FFFFE0
ENDCHAR
STARTCHAR 0060
ENCODING 96
SWIDTH 327 0
DWIDTH 10 0
BBX 6 5 1 17
BITMAP
E0
70
38
18
0C
ENDCHAR
STARTCHAR 0061
ENCODING 97
SWIDTH 556 0
DWIDTH 17 0
BBX 15 16 1 0
BITMAP
0FE0
1FF0
3C78
7018
7018
0018
0038
0FF8
3F98
7018
E018
E018
E038
78FC
7FDE
1F0E
ENDCHAR
STARTCHAR 0062
ENCODING 98
SWIDTH 556 0
DWIDTH 17 0
BBX 14 22 2 0
BITMAP
C000
C000
C000
C000
C000
C000
C7C0
DFF0
FDF0
F038
E03C
E01C
C01C
C01C
C01C
C01C
E01C
E038
F038
FDF0
DFE0
CFC0
ENDCHAR
STARTCHAR 0063
ENCODING 99
SWIDTH 490 0
DWIDTH 15 0
BBX 14 16 1 0
BITMAP
0FC0
1FF0
3CF0
7038
6018
E018
E000
E000
E000
E000
E01C
E018
7038
3CF0
1FF0
0FC0
ENDCHAR
STARTCHAR 0064
ENCODING 100
SWIDTH 556 0
DWIDTH 17 0
BBX 14 22 1 0
BITMAP
000C
000C
000C
000C
000C
000C
0F8C
3FEC
7EFC
703C
E01C
E01C
E01C
C00C
C00C
E00C
E01C
E01C
703C
7EFC
3FEC
0F8C
ENDCHAR
STARTCHAR 0065
ENCODING 101
SWIDTH 556 0
DWIDTH 17 0
BBX 15 16 1 0
BITMAP
07C0
1FF0
3EF8
701C
701C
600C
E00E
FFFE
FFFE
E000
E000
700C
701C
3E78
1FF0
07C0
ENDCHAR
STARTCHAR 0066
ENCODING 102
SWIDTH 294 0
DWIDTH 9 0
BBX 7 22 1 0
BITMAP
1E
3E
38
30
30
30
FE
FE
30
30
30
30
30
30
30
30
30
30
30
30
30
30
ENDCHAR
STARTCHAR 0067
ENCODING 103
SWIDTH 556 0
DWIDTH 17 0
BBX 14 22 1 -6
BITMAP
0F9C
1FFC
3CFC
703C
603C
E01C
E01C
E01C
E01C
E01C
E01C
603C
703C
3CFC
1FDC
0F9C
0018
6018
7038
7870
3FE0
0FC0
ENDCHAR
STARTCHAR 0068
ENCODING 104
SWIDTH 556 0
DWIDTH 17 0
BBX 13 22 2 0
BITMAP
E000
E000
E000
E000
E000
E000
E7C0
EFF0
FCF8
F038
E038
E038
E038
E038
E038
E038
E038
E038
E038
E038
E038
E038
ENDCHAR
STARTCHAR 0069
ENCODING 105
SWIDTH 229 0
DWIDTH 7 0
BBX 3 22 2 0
BITMAP
E0
E0
E0
00
00
00
E0
E0
E0
E0
E0
E0
E0
E0
E0
E0
E0
E0
E0
E0
E0
E0
ENDCHAR
STARTCHAR 006A
ENCODING 106
SWIDTH 229 0
DWIDTH 7 0
BBX 6 29 -1 -7
BITMAP
1C
1C
1C
00
00
00
1C
1C
1C
1C
1C
1C
1C
1C
1C
1C
1C
1C
1C
1C
1C
1C
1C
1C
1C
1C
3C
F8
F0
ENDCHAR
STARTCHAR 006B
ENCODING 107
SWIDTH 490 0
DWIDTH 15 0
BBX 13 22 2 0
BITMAP
C000
C000
C000
C000
C000
C000
C070
C0E0
C1C0
C380
C700
CE00
DE00
FF00
F780
E380
C1C0
C1E0
C0E0
C070
C070
C038
ENDCHAR
STARTCHAR 006C
ENCODING 108
SWIDTH 229 0
DWIDTH 7 0
BBX 3 22 2 0
BITMAP
E0
E0
E0
E0
E0
E0
E0
E0
E0
E0
E0
E0
E0
E0
E0
E0
E0
E0
E0
E0
E0
E0
ENDCHAR
STARTCHAR 006D
ENCODING 109
SWIDTH 818 0
DWIDTH 25 0
BBX 21 16 2 0
BITMAP
CFC3E0
DFE7F0
F8FE78
F07838
E07018
E07018
E07018
E07018
E07018
E07018
E07018
E07018
E07018
E07018
E07018
E07018
ENDCHAR
STARTCHAR 006E
ENCODING 110
SWIDTH 556 0
DWIDTH 17 0
BBX 13 16 2 0
BITMAP
C7C0
DFF0
DC78
F038
E038
E038
E038
E038
E038
E038
E038
E038
E038
E038
E038
E038
ENDCHAR
STARTCHAR 006F
ENCODING 111
SWIDTH 556 0
DWIDTH 17 0
BBX 15 16 1 0
BITMAP
07C0
1FF0
3EF8
703C
701C
E00C
E00E
E00E
E00E
E00E
E00C
701C
703C
3EF8
1FF0
0FC0
ENDCHAR
STARTCHAR 0070
ENCODING 112
SWIDTH 556 0
DWIDTH 17 0
BBX 14 22 2 -6
BITMAP
CFC0
DFE0
FDF0
F038
E038
E01C
C01C
C01C
C01C
C01C
E01C
E018
F038
FDF0
DFE0
C7C0
C000
C000
C000
C000
C000
C000
ENDCHAR
STARTCHAR 0071
ENCODING 113
SWIDTH 556 0
DWIDTH 17 0
BBX 14 23 1 -7
BITMAP
0F8C
1FEC
3EFC
703C
E01C
E01C
E01C
C00C
C00C
E01C
E01C
E01C
703C
7EFC
3FEC
0F8C
000C
000C
000C
000C
000C
000C
0004
ENDCHAR
STARTCHAR 0072
ENCODING 114
SWIDTH 327 0
DWIDTH 10 0
BBX 8 16 2 0
BITMAP
C7
CF
DC
F0
E0
E0
E0
E0
E0
E0
E0
E0
E0
E0
E0
E0
ENDCHAR
STARTCHAR 0073
ENCODING 115
SWIDTH 490 0
DWIDTH 15 0
BBX 13 16 1 0
BITMAP
0FC0
3FE0
78F0
6070
E030
F000
7C00
3FC0
0FF0
00F8
0038
E038
E038
7CF0
7FE0
1FC0
ENDCHAR
STARTCHAR 0074
ENCODING 116
SWIDTH 294 0
DWIDTH 9 0
BBX 8 20 0 0
BITMAP
18
18
18
18
FF
FF
18
18
18
18
18
18
18
18
18
18
18
18
1F
0F
ENDCHAR
STARTCHAR 0075
ENCODING 117
SWIDTH 556 0
DWIDTH 17 0
BBX 13 16 2 -1
BITMAP
E038
E038
E038
E038
E038
E038
E038
E038
E038
E038
E038
E038
E078
F1F8
7FF8
3FB8
ENDCHAR
STARTCHAR 0076
ENCODING 118
SWIDTH 490 0
DWIDTH 15 0
BBX 15 16 0 0
BITMAP
E00E
701C
701C
3018
3838
3838
1830
1C70
1C70
0C60
0EE0
0EC0
06C0
07C0
0780
0380
ENDCHAR
STARTCHAR 0077
ENCODING 119
SWIDTH 720 0
DWIDTH 22 0
BBX 21 16 0 0
BITMAP
E07818
607838
707838
70F838
70FC30
30DC70
38CC70
39CC60
19CE60
198EE0
1D86E0
1F86C0
0F87C0
0F07C0
0F0380
070380
ENDCHAR
STARTCHAR 0078
ENCODING 120
SWIDTH 490 0
DWIDTH 15 0
BBX 13 16 1 0
BITMAP
E038
7070
3070
38E0
1DC0
0D80
0F80
0700
0700
0F80
1DC0
18C0
38E0
7070
6070
E038
ENDCHAR
STARTCHAR 0079
ENCODING 121
SWIDTH 490 0
DWIDTH 15 0
BBX 13 22 1 -7
BITMAP
E018
E038
E038
6030
7070
7070
3060
38E0
38C0
19C0
1DC0
1D80
0F80
0F80
0700
0700
0600
0E00
0E00
1C00
7C00
7800
ENDCHAR
STARTCHAR 007A
ENCODING 122
SWIDTH 490 0
DWIDTH 15 0
BBX 13 16 1 0
BITMAP
7FF8
7FF8
0070
00F0
00E0
01C0
0380
0700
0E00
1E00
1C00
3800
7000
E000
FFF8
FFF8
ENDCHAR
STARTCHAR 007B
ENCODING 123
SWIDTH 327 0
DWIDTH 10 0
BBX 7 29 1 -7
BITMAP
0E
1E
18
18
18
18
18
18
18
18
18
38
38
F0
E0
F0
38
18
18
18
18
18
18
18
18
18
1C
1E
06
ENDCHAR
STARTCHAR 007C
ENCODING 124
SWIDTH 261 0
DWIDTH 8 0
BBX 2 29 3 -7
BITMAP
C0
C0
C0
C0
C0
C0
C0
C0
C0
C0
C0
C0
C0
C0
C0
C0
C0
C0
C0
C0
C0
C0
C0
C0
C0
C0
C0
C0
C0
ENDCHAR
STARTCHAR 007D
ENCODING 125
SWIDTH 327 0
DWIDTH 10 0
BBX 7 29 1 -7
BITMAP
E0
F0
38
38
38
38
38
38
38
38
38
18
1C
0E
06
1E
18
18
38
38
38
38
38
38
38
38
70
F0
E0
ENDCHAR
STARTCHAR 007E
ENCODING 126
SWIDTH 589 0
DWIDTH 18 0
BBX 14 5 2 8
BITMAP
3800
7E0C
4798
C1F8
00F0
ENDCHAR
STARTCHAR 00A0
ENCODING 160
SWIDTH 294 0
DWIDTH 9 0
BBX 0 0 0 0
BITMAP
ENDCHAR
STARTCHAR 00A1
ENCODING 161
SWIDTH 327 0
DWIDTH 10 0
BBX 2 22 4 -6
BITMAP
C0
C0
C0
00
00
C0
C0
C0
C0
C0
C0
C0
C0
C0
C0
C0
C0
C0
C0
C0
C0
C0
ENDCHAR
STARTCHAR 00A2
ENCODING 162
SWIDTH 556 0
DWIDTH 17 0
BBX 14 23 2 -4
BITMAP
0300
0300
0300
1FE0
3FF0
7B78
7338
E318
E300
C300
C300
C300
C300
E31C
E318
E338
7338
3FF0
1FE0
0780
0300
0300
0300
ENDCHAR
STARTCHAR 00A3
ENCODING 163
SWIDTH 556 0
DWIDTH 17 0
BBX 15 22 1 0
BITMAP
07E0
1FF8
3EF8
781C
701C
700E
700E
7000
7000
3800
FFC0
FFC0
1C00
0C00
0C00
0C00
1800
3800
7F80
FFFE
73FE
007C
ENDCHAR
STARTCHAR 00A4
ENCODING 164
SWIDTH 556 0
DWIDTH 17 0
BBX 12 12 2 4
BITMAP
4000
EFB0
7FF0
3DE0
7070
6070
6030
6030
7070
3DE0
7FF0
6FB0
ENDCHAR
STARTCHAR 00A5
ENCODING 165
SWIDTH 556 0
DWIDTH 17 0
BBX 15 22 1 0
BITMAP
C006
E00E
600C
701C
3018
3838
1C30
0C60
0EE0
06C0
07C0
7FFC
7FFC
0380
0380
7FFC
7FFC
0380
0380
0380
0380
0380
ENDCHAR
STARTCHAR 00A6
ENCODING 166
SWIDTH 261 0
DWIDTH 8 0
BBX 2 29 3 -7
BITMAP
C0
C0
C0
C0
C0
C0
C0
C0
C0
C0
C0
C0
00
00
00
00
00
C0
C0
C0
C0
C0
C0
C0
C0
C0
C0
C0
C0
ENDCHAR
STARTCHAR 00A7
ENCODING 167
SWIDTH 556 0
DWIDTH 17 0
BBX 14 28 1 -6
BITMAP
07C0
0FF0
1EF8
3838
3818
3818
1C00
1E00
1F80
73E0
61F0
E078
E03C
E01C
700C
7C0C
3E0C
0F1C
07F8
01F0
00F0
0070
7038
7038
3038
3870
1FF0
0FC0
ENDCHAR
STARTCHAR 00A8
ENCODING 168
SWIDTH 327 0
DWIDTH 10 0
BBX 8 3 1 19
BITMAP
E7
E7
E7
ENDCHAR
STARTCHAR 00A9
ENCODING 169
SWIDTH 752 0
DWIDTH 23 0
BBX 23 22 0 0
BITMAP
00FE00
07FF80
0F01E0
1C0070
307C38
70FE1C
61C70C
C3830C
C30386
C30006
C30006
C30006
C30186
C30386
C3830C
61C70C
70FE18
387838
1C0070
0F01E0
07FF80
00FE00
ENDCHAR
STARTCHAR 00AA
ENCODING 170
SWIDTH 360 0
DWIDTH 11 0
BBX 9 13 1 9
BITMAP
3E00
7F00
6300
0300
1F00
6300
C300
C300
FF80
7980
0000
FF80
FF80
ENDCHAR
STARTCHAR 00AB
ENCODING 171
SWIDTH 556 0
DWIDTH 17 0
BBX 11 10 3 3
BITMAP
0820
3860
71C0
E380
C300
C380
71C0
38E0
1860
0800
ENDCHAR
STARTCHAR 00AC
ENCODING 172
SWIDTH 589 0
DWIDTH 18 0
BBX 16 9 1 2
BITMAP
FFFF
FFFF
0007
0007
0007
0007
0007
0007
0007
ENDCHAR
STARTCHAR 00AD
ENCODING 173
SWIDTH 327 0
DWIDTH 10 0
BBX 8 2 1 7
BITMAP
FF
FF
ENDCHAR
STARTCHAR 00AE
ENCODING 174
SWIDTH 752 0
DWIDTH 23 0
BBX 23 22 0 0
BITMAP
00FE00
07FF80
0F01E0
1C0070
33FE38
63FF1C
63038C
C3018C
C30186
C30306
C3FF06
C3FF06
C30306
C30386
C3038C
63038C
730198
380038
1C0070
0F01E0
07FF80
00FE00
ENDCHAR
STARTCHAR 00AF
ENCODING 175
SWIDTH 327 0
DWIDTH 10 0
BBX 8 2 1 19
BITMAP
FF
FF
ENDCHAR
STARTCHAR 00B0
ENCODING 176
SWIDTH 392 0
DWIDTH 12 0
BBX 10 9 1 12
BITMAP
1E00
3F80
6180
40C0
C0C0
40C0
6180
3F80
1E00
ENDCHAR
STARTCHAR 00B1
ENCODING 177
SWIDTH 589 0
DWIDTH 18 0
BBX 14 19 2 0
BITMAP
0300
0300
0300
0300
0300
0300
FFFC
FFFC
0300
0300
0300
0300
0300
0300
0000
0000
0000
FFFC
FFFC
ENDCHAR
STARTCHAR 00B2
ENCODING 178
SWIDTH 327 0
DWIDTH 10 0
BBX 10 13 0 9
BITMAP
1F00
3F80
6180
60C0
60C0
0180
0380
0E00
3800
7000
6000
FFC0
FFC0
ENDCHAR
STARTCHAR 00B3
ENCODING 179
SWIDTH 327 0
DWIDTH 10 0
BBX 10 14 0 8
BITMAP
1E00
7F80
6180
4180
0180
0780
0F00
0380
0180
C0C0
C180
6180
7F00
0C00
ENDCHAR
STARTCHAR 00B4
ENCODING 180
SWIDTH 327 0
DWIDTH 10 0
BBX 6 5 3 17
BITMAP
3C
38
70
E0
C0
ENDCHAR
STARTCHAR 00B5
ENCODING 181
SWIDTH 556 0
DWIDTH 17 0
BBX 15 22 2 -6
BITMAP
E038
E038
E038
E038
E038
E038
E038
E038
E038
E038
E038
E038
E078
F1F8
FFBE
FF1E
E000
E000
E000
E000
E000
E000
ENDCHAR
STARTCHAR 00B6
ENCODING 182
SWIDTH 523 0
DWIDTH 16 0
BBX 15 28 1 -6
BITMAP
07FE
1FFE
3F98
7F98
7F98
7F98
7F98
FF98
7F98
7F98
7F98
3F98
3F98
0F98
0198
0198
0198
0198
0198
0198
0198
0198
0198
0198
0198
0198
0198
0198
ENDCHAR
STARTCHAR 00B7
ENCODING 183
SWIDTH 294 0
DWIDTH 9 0
BBX 4 3 3 7
BITMAP
F0
F0
F0
ENDCHAR
STARTCHAR 00B8
ENCODING 184
SWIDTH 327 0
DWIDTH 10 0
BBX 7 6 2 -6
BITMAP
10
30
3C
0E
8E
FC
ENDCHAR
STARTCHAR 00B9
ENCODING 185
SWIDTH 327 0
DWIDTH 10 0
BBX 5 13 2 9
BITMAP
18
18
38
F8
18
18
18
18
18
18
18
18
18
ENDCHAR
STARTCHAR 00BA
ENCODING 186
SWIDTH 360 0
DWIDTH 11 0
BBX 9 13 1 9
BITMAP
3E00
7F00
6380
C180
C180
C180
C180
6300
7F00
3E00
0000
7F80
7F80
ENDCHAR
STARTCHAR 00BB
ENCODING 187
SWIDTH 556 0
DWIDTH 17 0
BBX 11 9 3 3
BITMAP
8200
C300
F1C0
38E0
1860
38E0
71C0
E380
C300
ENDCHAR
STARTCHAR 00BC
ENCODING 188
SWIDTH 818 0
DWIDTH 25 0
BBX 24 22 1 0
BITMAP
180060
180040
F800C0
F80180
180180
180300
180200
180600
180C00
18080C
18181C
18303C
18206C
00606C
00C0CC
00C18C
01830C
0103FF
0303FF
06000C
04000C
0C0000
ENDCHAR
STARTCHAR 00BD
ENCODING 189
SWIDTH 818 0
DWIDTH 25 0
BBX 24 22 1 0
BITMAP
1800C0
180080
F80180
F80300
180300
180600
180400
180C00
181830
1818FE
1831C6
186183
186183
00C006
00800E
01803C
030070
0300C0
060180
040180
0C03FF
180000
ENDCHAR
STARTCHAR 00BE
ENCODING 190
SWIDTH 818 0
DWIDTH 25 0
BBX 24 22 1 0
BITMAP
3E0030
7F0060
C38060
C180C0
018080
1F0180
1F0300
018200
01860C
C18C0C
C18C1C
7F183C
3E106C
00304C
0060CC
00418C
00C30C
0183FF
0183FF
03000C
02000C
060000
ENDCHAR
STARTCHAR 00BF
ENCODING 191
SWIDTH 621 0
DWIDTH 19 0
BBX 13 22 3 -6
BITMAP
0700
0700
0700
0000
0000
0000
0700
0700
0700
0700
0E00
1C00
3800
7000
E000
E018
E038
E038
E038
7870
7FF0
1FC0
ENDCHAR
STARTCHAR 00C0
ENCODING 192
SWIDTH 654 0
DWIDTH 20 0
BBX 19 28 1 0
BITMAP
078000
01C000
00C000
006000
000000
000000
01E000
01F000
01F000
03F000
03B800
073800
073800
071C00
0E1C00
0E1E00
0E0E00
1C0E00
1C0700
1FFF00
3FFF00
380380
700380
700380
7001C0
E001C0
E001C0
E000E0
ENDCHAR
STARTCHAR 00C1
ENCODING 193
SWIDTH 654 0
DWIDTH 20 0
BBX 19 28 1 0
BITMAP
003800
007000
00E000
00C000
000000
000000
01E000
01F000
01F000
03F000
03B800
073800
073800
071C00
0E1C00
0E1E00
0E0E00
1C0E00
1C0700
1FFF00
3FFF00
380380
700380
700380
7001C0
E001C0
E001C0
E000E0
ENDCHAR
STARTCHAR 00C2
ENCODING 194
SWIDTH 654 0
DWIDTH 20 0
BBX 19 28 1 0
BITMAP
01E000
01F000
033800
061800
000000
000000
01E000
01F000
01F000
03F000
03B800
073800
073800
071C00
0E1C00
0E1E00
0E0E00
1C0E00
1C0700
1FFF00
3FFF00
380380
700380
700380
7001C0
E001C0
E001C0
E000E0
ENDCHAR
STARTCHAR 00C3
ENCODING 195
SWIDTH 654 0
DWIDTH 20 0
BBX 19 28 1 0
BITMAP
038C00
07FC00
067800
000000
000000
000000
01E000
01F000
01F000
03F000
03B800
073800
073800
071C00
0E1C00
0E1E00
0E0E00
1C0E00
1C0700
1FFF00
3FFF00
380380
700380
700380
7001C0
E001C0
E001C0
E000E0
ENDCHAR
STARTCHAR 00C4
ENCODING 196
SWIDTH 654 0
DWIDTH 20 0
BBX 19 28 1 0
BITMAP
073800
073800
073800
000000
000000
000000
01E000
01F000
01F000
03F000
03B800
073800
073800
071C00
0E1C00
0E1E00
0E0E00
1C0E00
1C0700
1FFF00
3FFF00
380380
700380
700380
7001C0
E001C0
E001C0
E000E0
ENDCHAR
STARTCHAR 00C5
ENCODING 197
SWIDTH 654 0
DWIDTH 20 0
BBX 19 29 1 0
BITMAP
00E000
01B000
011000
013000
01E000
000000
000000
01E000
01F000
01F000
03F000
03B800
073800
073800
071C00
0E1C00
0E1E00
0E0E00
1C0E00
1C0700
1FFF00
3FFF00
380380
700380
700380
7001C0
E001C0
E001C0
E000E0
ENDCHAR
STARTCHAR 00C6
ENCODING 198
SWIDTH 1014 0
DWIDTH 31 0
BBX 28 22 1 0
BITMAP
00FFFFE0
00FFFFE0
01FFFFE0
01C70000
01870000
03870000
03870000
07070000
07070000
06070000
0E07FFE0
0E07FFE0
1C070000
1FFF0000
3FFF0000
3FFF0000
38070000
70070000
70070000
E0070000
E007FFF0
E007FFF0
ENDCHAR
STARTCHAR 00C7
ENCODING 199
SWIDTH 720 0
DWIDTH 22 0
BBX 20 28 1 -6
BITMAP
01FC00
07FF00
0FFF80
1E03C0
3C01C0
3800E0
7000E0
700000
700000
600000
600000
E00000
E00000
600000
700070
700070
7000E0
3800E0
3C01E0
1E03C0
0FFF80
07FF00
01FC00
004000
007800
001800
021800
03F000
ENDCHAR
STARTCHAR 00C8
ENCODING 200
SWIDTH 654 0
DWIDTH 20 0
BBX 16 28 3 0
BITMAP
0E00
0700
0380
0180
0000
0000
FFFE
FFFE
FFFE
E000
E000
E000
E000
E000
E000
E000
FFFE
FFFE
E000
E000
E000
E000
E000
E000
E000
E000
FFFF
FFFF
ENDCHAR
STARTCHAR 00C9
ENCODING 201
SWIDTH 654 0
DWIDTH 20 0
BBX 16 28 3 0
BITMAP
00E0
01C0
0380
0300
0000
0000
FFFE
FFFE
FFFE
E000
E000
E000
E000
E000
E000
E000
FFFE
FFFE
E000
E000
E000
E000
E000
E000
E000
E000
FFFF
FFFF
ENDCHAR
STARTCHAR 00CA
ENCODING 202
SWIDTH 654 0
DWIDTH 20 0
BBX 16 28 3 0
BITMAP
07C0
06C0
0C60
0C70
0000
0000
FFFE
FFFE
FFFE
E000
E000
E000
E000
E000
E000
E000
FFFE
FFFE
E000
E000
E000
E000
E000
E000
E000
E000
FFFF
FFFF
ENDCHAR
STARTCHAR 00CB
ENCODING 203
SWIDTH 654 0
DWIDTH 20 0
BBX 16 28 3 0
BITMAP
1EF0
1EF0
1EF0
0000
0000
0000
FFFE
FFFE
FFFE
E000
E000
E000
E000
E000
E000
E000
FFFE
FFFE
E000
E000
E000
E000
E000
E000
E000
E000
FFFF
FFFF
ENDCHAR
STARTCHAR 00CC
ENCODING 204
SWIDTH 294 0
DWIDTH 9 0
BBX 5 28 1 0
BITMAP
E0
70
30
18
00
00
38
38
38
38
38
38
38
38
38
38
38
38
38
38
38
38
38
38
38
38
38
38
ENDCHAR
STARTCHAR 00CD
ENCODING 205
SWIDTH 294 0
DWIDTH 9 0
BBX 5 28 3 0
BITMAP
78
70
E0
C0
00
00
E0
E0
E0
E0
E0
E0
E0
E0
E0
E0
E0
E0
E0
E0
E0
E0
E0
E0
E0
E0
E0
E0
ENDCHAR
STARTCHAR 00CE
ENCODING 206
SWIDTH 294 0
DWIDTH 9 0
BBX 8 28 0 0
BITMAP
3C
36
67
C3
00
00
1C
1C
1C
1C
1C
1C
1C
1C
1C
1C
1C
1C
1C
1C
1C
1C
1C
1C
1C
1C
1C
1C
ENDCHAR
STARTCHAR 00CF
ENCODING 207
SWIDTH 294 0
DWIDTH 9 0
BBX 8 27 0 0
BITMAP
E7
E7
E7
00
00
1C
1C
1C
1C
1C
1C
1C
1C
1C
1C
1C
1C
1C
1C
1C
1C
1C
1C
1C
1C
1C
1C
ENDCHAR
STARTCHAR 00D0
ENCODING 208
SWIDTH 720 0
DWIDTH 22 0
BBX 19 22 1 0
BITMAP
3FF800
3FFE00
3FFF80
380780
3801C0
3801C0
3800E0
3800E0
3800E0
3800E0
FFC060
FFC060
3800E0
3800E0
3800E0
3800E0
3801C0
3801C0
380380
383F80
3FFE00
3FF800
ENDCHAR
STARTCHAR 00D1
ENCODING 209
SWIDTH 720 0
DWIDTH 22 0
BBX 18 28 2 0
BITMAP
038C00
07FC00
067800
000000
000000
000000
F001C0
F001C0
F801C0
FC01C0
FC01C0
EE01C0
EF01C0
E701C0
E381C0
E3C1C0
E1C1C0
E0E1C0
E0F1C0
E071C0
E039C0
E039C0
E01DC0
E00FC0
E00FC0
E007C0
E003C0
E003C0
ENDCHAR
STARTCHAR 00D2
ENCODING 210
SWIDTH 785 0
DWIDTH 24 0
BBX 22 28 1 0
BITMAP
01C000
00E000
007000
003000
000000
000000
00FE00
07FF80
0FFFC0
1E01E0
3C00F0
780070
700038
700038
E00018
E0001C
E0001C
E0001C
E0001C
E00018
700038
700038
780070
3C00F0
1E01E0
0FFFC0
07FF80
01FC00
ENDCHAR
STARTCHAR 00D3
ENCODING 211
SWIDTH 785 0
DWIDTH 24 0
BBX 22 28 1 0
BITMAP
001E00
001C00
003800
007000
000000
000000
00FE00
07FF80
0FFFC0
1E01E0
3C00F0
780070
700038
700038
E00018
E0001C
E0001C
E0001C
E0001C
E00018
700038
700038
780070
3C00F0
1E01E0
0FFFC0
07FF80
01FC00
ENDCHAR
STARTCHAR 00D4
ENCODING 212
SWIDTH 785 0
DWIDTH 24 0
BBX 22 28 1 0
BITMAP
007800
00F800
00CC00
018E00
018600
000000
00FE00
07FF80
0FFFC0
1E01E0
3C00F0
780070
700038
700038
E00018
E0001C
E0001C
E0001C
E0001C
E00018
700038
700038
780070
3C00F0
1E01E0
0FFFC0
07FF80
01FC00
ENDCHAR
STARTCHAR 00D5
ENCODING 213
SWIDTH 785 0
DWIDTH 24 0
BBX 22 27 1 0
BITMAP
01E300
01FE00
031E00
000000
000000
00FE00
07FF80
0FFFC0
1E01E0
3C00F0
780070
700038
700038
E00018
E0001C
E0001C
E0001C
E0001C
E00018
700038
700038
780070
3C00F0
1E01E0
0FFFC0
07FF80
01FC00
ENDCHAR
STARTCHAR 00D6
ENCODING 214
SWIDTH 785 0
DWIDTH 24 0
BBX 22 27 1 0
BITMAP
01CE00
01CE00
01CE00
000000
000000
00FE00
07FF80
0FFFC0
1E01E0
3C00F0
780070
700038
700038
E00018
E0001C
E0001C
E0001C
E0001C
E00018
700038
700038
780070
3C00F0
1E01E0
0FFFC0
07FF80
01FC00
ENDCHAR
STARTCHAR 00D7
ENCODING 215
SWIDTH 589 0
DWIDTH 18 0
BBX 12 12 3 1
BITMAP
4020
E070
70E0
39C0
1F80
0F00
0F00
1F80
39C0
70E0
E070
4020
ENDCHAR
STARTCHAR 00D8
ENCODING 216
SWIDTH 785 0
DWIDTH 24 0
BBX 22 22 1 0
BITMAP
01FC0C
07FF98
0FFFF0
1E01E0
3800F0
7801F0
700338
600638
E00C38
E0181C
E0301C
E0601C
E0C01C
E18018
730038
760038
7C0070
3800F0
3E01E0
6FFFC0
C7FF80
01FC00
ENDCHAR
STARTCHAR 00D9
ENCODING 217
SWIDTH 720 0
DWIDTH 22 0
BBX 17 28 3 0
BITMAP
0F0000
030000
018000
00C000
000000
000000
C00380
C00380
C00380
C00380
C00380
C00380
C00380
C00380
C00380
C00380
C00380
C00380
C00380
C00380
C00380
E00380
E00380
E00700
700F00
7FFE00
1FFC00
07F000
ENDCHAR
STARTCHAR 00DA
ENCODING 218
SWIDTH 720 0
DWIDTH 22 0
BBX 17 28 3 0
BITMAP
00F000
00C000
018000
030000
000000
000000
C00380
C00380
C00380
C00380
C00380
C00380
C00380
C00380
C00380
C00380
C00380
C00380
C00380
C00380
C00380
E00380
E00380
E00700
700F00
7FFE00
1FFC00
07F000
ENDCHAR
STARTCHAR 00DB
ENCODING 219
SWIDTH 720 0
DWIDTH 22 0
BBX 17 28 3 0
BITMAP
03C000
07E000
066000
0C3000
000000
000000
C00380
C00380
C00380
C00380
C00380
C00380
C00380
C00380
C00380
C00380
C00380
C00380
C00380
C00380
C00380
E00380
E00380
E00700
700F00
7FFE00
1FFC00
07F000
ENDCHAR
STARTCHAR 00DC
ENCODING 220
SWIDTH 720 0
DWIDTH 22 0
BBX 17 28 3 0
BITMAP
0E7000
0E7000
0E7000
000000
000000
000000
C00380
C00380
C00380
C00380
C00380
C00380
C00380
C00380
C00380
C00380
C00380
C00380
C00380
C00380
C00380
E00380
E00380
E00700
700F00
7FFE00
1FFC00
07F000
ENDCHAR
STARTCHAR 00DD
ENCODING 221
SWIDTH 654 0
DWIDTH 20 0
BBX 19 28 1 0
BITMAP
003800
007000
00E000
00C000
000000
000000
E001E0
F001C0
7003C0
380380
3C0700
1C0700
0E0E00
0E1C00
071C00
07B800
03B800
01F000
01E000
00E000
00E000
00E000
00E000
00E000
00E000
00E000
00E000
00E000
ENDCHAR
STARTCHAR 00DE
ENCODING 222
SWIDTH 654 0
DWIDTH 20 0
BBX 16 22 3 0
BITMAP
E000
E000
E000
E000
FFF8
FFFC
E01E
E00E
E007
E007
E007
E007
E00E
E01E
FFFC
FFF8
FFC0
E000
E000
E000
E000
E000
ENDCHAR
STARTCHAR 00DF
ENCODING 223
SWIDTH 621 0
DWIDTH 19 0
BBX 15 22 2 0
BITMAP
0FC0
3FF0
7CF8
703C
E01C
E01C
E01C
E018
E070
E3C0
E3F0
E07C
E01C
E00E
E00E
E00E
E00E
E00E
E01C
E3F8
E3F0
E3C0
ENDCHAR
STARTCHAR 00E0
ENCODING 224
SWIDTH 556 0
DWIDTH 17 0
BBX 15 22 1 0
BITMAP
0E00
0700
0300
0180
0000
0000
0FE0
1FF0
3C78
7018
7018
0018
0038
0FF8
3F98
7018
E018
E018
E038
78FC
7FDE
1F0E
ENDCHAR
STARTCHAR 00E1
ENCODING 225
SWIDTH 556 0
DWIDTH 17 0
BBX 15 22 1 0
BITMAP
00E0
01C0
0180
0300
0000
0000
0FE0
1FF0
3C78
7018
7018
0018
0038
0FF8
3F98
7018
E018
E018
E038
78FC
7FDE
1F0E
ENDCHAR
STARTCHAR 00E2
ENCODING 226
SWIDTH 556 0
DWIDTH 17 0
BBX 15 22 1 0
BITMAP
0380
07C0
0EE0
0C60
0000
0000
0FE0
1FF0
3C78
7018
7018
0018
0038
0FF8
3F98
7018
E018
E018
E038
78FC
7FDE
1F0E
ENDCHAR
STARTCHAR 00E3
ENCODING 227
SWIDTH 556 0
DWIDTH 17 0
BBX 15 22 1 0
BITMAP
0E30
1FF0
19E0
0000
0000
0000
0FE0
1FF0
3C78
7018
7018
0018
0038
0FF8
3F98
7018
E018
E018
E038
78FC
7FDE
1F0E
ENDCHAR
STARTCHAR 00E4
ENCODING 228
SWIDTH 556 0
DWIDTH 17 0
BBX 15 22 1 0
BITMAP
1CE0
1CE0
1CE0
0000
0000
0000
0FE0
1FF0
3C78
7018
7018
0018
0038
0FF8
3F98
7018
E018
E018
E038
78FC
7FDE
1F0E
ENDCHAR
STARTCHAR 00E5
ENCODING 229
SWIDTH 556 0
DWIDTH 17 0
BBX 15 22 1 0
BITMAP
0780
04C0
0440
06C0
0380
0000
0FE0
1FF0
3C78
7018
7018
0018
0038
0FF8
3F98
7018
E018
E018
E038
78FC
7FDE
1F0E
ENDCHAR
STARTCHAR 00E6
ENCODING 230
SWIDTH 883 0
DWIDTH 27 0
BBX 25 16 1 0
BITMAP
0FC1F800
3FF7FC00
7CFFBE00
703E0700
601C0700
00180380
00380380
0FFFFF80
3FDFFF80
78180000
E0180080
E03C0300
E03C0700
F0EF9E00
7FC7FC00
1F01F000
ENDCHAR
STARTCHAR 00E7
ENCODING 231
SWIDTH 490 0
DWIDTH 15 0
BBX 14 22 1 -6
BITMAP
07C0
1FF0
3CF0
7038
6038
E018
E000
E000
E000
E000
E000
E01C
7018
7038
3EF0
1FE0
0FC0
0200
0780
00C0
11C0
1F80
ENDCHAR
STARTCHAR 00E8
ENCODING 232
SWIDTH 556 0
DWIDTH 17 0
BBX 15 22 1 0
BITMAP
0E00
0700
0300
0180
0000
0000
07C0
1FF0
3EF8
701C
701C
600C
E00E
FFFE
FFFE
E000
E000
700C
701C
3E78
1FF0
07C0
ENDCHAR
STARTCHAR 00E9
ENCODING 233
SWIDTH 556 0
DWIDTH 17 0
BBX 15 22 1 0
BITMAP
00E0
01C0
0180
0300
0000
0000
07C0
1FF0
3EF8
701C
701C
600C
E00E
FFFE
FFFE
E000
E000
700C
701C
3E78
1FF0
07C0
ENDCHAR
STARTCHAR 00EA
ENCODING 234
SWIDTH 556 0
DWIDTH 17 0
BBX 15 22 1 0
BITMAP
03C0
07C0
06E0
0C70
0000
0000
07C0
1FF0
3EF8
701C
701C
600C
E00E
FFFE
FFFE
E000
E000
700C
701C
3E78
1FF0
07C0
ENDCHAR
STARTCHAR 00EB
ENCODING 235
SWIDTH 556 0
DWIDTH 17 0
BBX 15 22 1 0
BITMAP
0E70
0E70
0E70
0000
0000
0000
07C0
1FF0
3EF8
701C
701C
600C
E00E
FFFE
FFFE
E000
E000
700C
701C
3E78
1FF0
07C0
ENDCHAR
STARTCHAR 00EC
ENCODING 236
SWIDTH 294 0
DWIDTH 9 0
BBX 6 22 0 0
BITMAP
F0
70
18
0C
00
00
18
18
18
18
18
18
18
18
18
18
18
18
18
18
18
18
ENDCHAR
STARTCHAR 00ED
ENCODING 237
SWIDTH 294 0
DWIDTH 9 0
BBX 6 22 2 0
BITMAP
1C
38
70
E0
00
00
60
60
60
60
60
60
60
60
60
60
60
60
60
60
60
60
ENDCHAR
STARTCHAR 00EE
ENCODING 238
SWIDTH 294 0
DWIDTH 9 0
BBX 8 22 0 0
BITMAP
3C
3E
66
C3
00
00
18
18
18
18
18
18
18
18
18
18
18
18
18
18
18
18
ENDCHAR
STARTCHAR 00EF
ENCODING 239
SWIDTH 294 0
DWIDTH 9 0
BBX 8 22 0 0
BITMAP
E7
E7
E7
00
00
00
18
18
18
18
18
18
18
18
18
18
18
18
18
18
18
18
ENDCHAR
STARTCHAR 00F0
ENCODING 240
SWIDTH 556 0
DWIDTH 17 0
BBX 15 22 1 0
BITMAP
1000
3DE0
0F80
1F80
31C0
00E0
0FF0
1FF8
3CF8
703C
701C
E00C
E00E
E00E
E00E
E00E
E00C
701C
703C
3EF8
1FF0
0FC0
ENDCHAR
STARTCHAR 00F1
ENCODING 241
SWIDTH 556 0
DWIDTH 17 0
BBX 13 22 2 0
BITMAP
1E60
3FE0
33C0
0000
0000
0000
C7C0
DFF0
DC78
F038
E038
E038
E038
E038
E038
E038
E038
E038
E038
E038
E038
E038
ENDCHAR
STARTCHAR 00F2
ENCODING 242
SWIDTH 556 0
DWIDTH 17 0
BBX 15 22 1 0
BITMAP
0E00
0600
0300
0180
0000
0000
07C0
1FF0
3EF8
703C
701C
E00C
E00E
E00E
E00E
E00E
E00C
701C
703C
3EF8
1FF0
0FC0
ENDCHAR
STARTCHAR 00F3
ENCODING 243
SWIDTH 556 0
DWIDTH 17 0
BBX 15 22 1 0
BITMAP
00E0
01C0
0380
0300
0000
0000
07C0
1FF0
3EF8
703C
701C
E00C
E00E
E00E
E00E
E00E
E00C
701C
703C
3EF8
1FF0
0FC0
ENDCHAR
STARTCHAR 00F4
ENCODING 244
SWIDTH 556 0
DWIDTH 17 0
BBX 15 22 1 0
BITMAP
0380
07C0
0EC0
0C60
1000
0000
07C0
1FF0
3EF8
703C
701C
E00C
E00E
E00E
E00E
E00E
E00C
701C
703C
3EF8
1FF0
0FC0
ENDCHAR
STARTCHAR 00F5
ENCODING 245
SWIDTH 556 0
DWIDTH 17 0
BBX 15 22 1 0
BITMAP
0E30
1FF0
19E0
0000
0000
0000
07C0
1FF0
3EF8
703C
701C
E00C
E00E
E00E
E00E
E00E
E00C
701C
703C
3EF8
1FF0
0FC0
ENDCHAR
STARTCHAR 00F6
ENCODING 246
SWIDTH 556 0
DWIDTH 17 0
BBX 15 22 1 0
BITMAP
1CE0
1CE0
1CE0
0000
0000
0000
07C0
1FF0
3EF8
703C
701C
E00C
E00E
E00E
E00E
E00E
E00C
701C
703C
3EF8
1FF0
0FC0
ENDCHAR
STARTCHAR 00F7
ENCODING 247
SWIDTH 589 0
DWIDTH 18 0
BBX 14 14 2 0
BITMAP
0780
0780
0780
0000
0000
0000
FFFC
FFFC
0000
0000
0000
0780
0780
0780
ENDCHAR
STARTCHAR 00F8
ENCODING 248
SWIDTH 621 0
DWIDTH 19 0
BBX 15 16 1 0
BITMAP
07C2
1FF6
3EFC
703C
703C
E06C
E0CE
E18E
E30E
E60E
EC0C
781C
703C
7EF8
DFF0
8FC0
ENDCHAR
STARTCHAR 00F9
ENCODING 249
SWIDTH 556 0
DWIDTH 17 0
BBX 13 22 2 -1
BITMAP
3C00
1C00
0600
0300
0000
0000
E038
E038
E038
E038
E038
E038
E038
E038
E038
E038
E038
E038
E078
F1F8
7FF8
3FB8
ENDCHAR
STARTCHAR 00FA
ENCODING 250
SWIDTH 556 0
DWIDTH 17 0
BBX 13 22 2 -1
BITMAP
01C0
0380
0700
0600
0000
0000
E038
E038
E038
E038
E038
E038
E038
E038
E038
E038
E038
E038
E078
F1F8
7FF8
3FB8
ENDCHAR
STARTCHAR 00FB
ENCODING 251
SWIDTH 556 0
DWIDTH 17 0
BBX 13 22 2 -1
BITMAP
0700
0F80
1D80
18C0
2000
0000
E038
E038
E038
E038
E038
E038
E038
E038
E038
E038
E038
E038
E078
F1F8
7FF8
3FB8
ENDCHAR
STARTCHAR 00FC
ENCODING 252
SWIDTH 556 0
DWIDTH 17 0
BBX 13 22 2 -1
BITMAP
39C0
39C0
39C0
0000
0000
0000
E038
E038
E038
E038
E038
E038
E038
E038
E038
E038
E038
E038
E078
F1F8
7FF8
3FB8
ENDCHAR
STARTCHAR 00FD
ENCODING 253
SWIDTH 490 0
DWIDTH 15 0
BBX 13 28 1 -7
BITMAP
01C0
0380
0300
0600
0000
0000
E018
E038
E038
6030
7070
7070
3060
38E0
38C0
19C0
1DC0
1D80
0F80
0F80
0700
0700
0600
0E00
0E00
1C00
7C00
7800
ENDCHAR
STARTCHAR 00FE
ENCODING 254
SWIDTH 556 0
DWIDTH 17 0
BBX 14 27 2 -6
BITMAP
C000
C000
C000
C000
C000
C7C0
DFE0
FDF0
F038
E038
E01C
C01C
C01C
C01C
C01C
E01C
E038
F038
FDF0
DFE0
C7C0
C000
C000
C000
C000
C000
C000
ENDCHAR
STARTCHAR 00FF
ENCODING 255
SWIDTH 490 0
DWIDTH 15 0
BBX 13 28 1 -7
BITMAP
3DE0
3DE0
3DE0
0000
0000
0000
E018
E038
E038
6030
7070
7070
3060
38E0
38C0
19C0
1DC0
1D80
0F80
0F80
0700
0700
0600
0E00
0E00
1C00
7C00
7800
ENDCHAR
STARTCHAR 0100
ENCODING 256
SWIDTH 654 0
DWIDTH 20 0
BBX 19 27 1 0
BITMAP
07F800
07F800
000000
000000
000000
01E000
01F000
01F000
03F000
03B800
073800
073800
071C00
0E1C00
0E1E00
0E0E00
1C0E00
1C0700
1FFF00
3FFF00
380380
700380
700380
7001C0
E001C0
E001C0
E000E0
ENDCHAR
STARTCHAR 0101
ENCODING 257
SWIDTH 556 0
DWIDTH 17 0
BBX 15 21 1 0
BITMAP
1FF0
1FF0
0000
0000
0000
0FE0
1FF0
3C78
7018
7018
0018
0038
0FF8
3F98
7018
E018
E018
E038
78FC
7FDE
1F0E
ENDCHAR
STARTCHAR 0102
ENCODING 258
SWIDTH 654 0
DWIDTH 20 0
BBX 19 28 1 0
BITMAP
060C00
071800
07F800
01F000
000000
000000
01E000
01F000
01F000
03F000
03B800
073800
073800
071C00
0E1C00
0E1E00
0E0E00
1C0E00
1C0700
1FFF00
3FFF00
380380
700380
700380
7001C0
E001C0
E001C0
E000E0
ENDCHAR
STARTCHAR 0103
ENCODING 259
SWIDTH 556 0
DWIDTH 17 0
BBX 15 22 1 0
BITMAP
1830
1870
0FE0
07C0
0000
0000
0FE0
1FF0
3C78
7018
7018
0018
0038
0FF8
3F98
7018
E018
E018
E038
78FC
7FDE
1F0E
ENDCHAR
STARTCHAR 0104
ENCODING 260
SWIDTH 654 0
DWIDTH 20 0
BBX 20 28 1 -6
BITMAP
01E000
01F000
01F000
03F000
03B800
073800
073800
071C00
0E1C00
0E1E00
0E0E00
1C0E00
1C0700
1FFF00
3FFF00
380380
700380
700380
7001C0
E001C0
E001C0
E000E0
0000C0
000180
000300
000300
000380
0001F0
ENDCHAR
STARTCHAR 0105
ENCODING 261
SWIDTH 556 0
DWIDTH 17 0
BBX 17 21 1 -5
BITMAP
0FE000
1FF000
3C7800
701800
701800
001800
003800
0FF800
3F9800
701800
E01800
E01800
E03800
78FC00
7FDE00
1F0E00
000C00
001800
001800
001C00
000F80
ENDCHAR
STARTCHAR 0106
ENCODING 262
SWIDTH 720 0
DWIDTH 22 0
BBX 20 28 1 0
BITMAP
001C00
003800
003000
006000
000000
000000
01FC00
07FF00
0FFF80
1E03C0
3801E0
3800E0
7000E0
700000
700000
600000
E00000
E00000
600000
700000
700070
7000E0
3800E0
3C01E0
1E03C0
0FFF80
07FF00
01FC00
ENDCHAR
STARTCHAR 0107
ENCODING 263
SWIDTH 490 0
DWIDTH 15 0
BBX 14 22 1 0
BITMAP
00E0
01C0
0380
0300
0000
0000
0FC0
1FF0
3CF0
7038
6018
E018
E000
E000
E000
E000
E01C
E018
7038
3CF0
1FF0
0FC0
ENDCHAR
STARTCHAR 0108
ENCODING 264
SWIDTH 720 0
DWIDTH 22 0
BBX 20 28 1 0
BITMAP
007000
00F800
01DC00
018C00
030600
000000
01FC00
07FF00
0FFF80
1E03C0
3801E0
3800E0
7000E0
700000
700000
600000
E00000
E00000
600000
700000
700070
7000E0
3800E0
3C01E0
1E03C0
0FFF80
07FF00
01FC00
ENDCHAR
STARTCHAR 0109
ENCODING 265
SWIDTH 490 0
DWIDTH 15 0
BBX 14 22 1 0
BITMAP
0780
07C0
0CC0
1C60
0000
0000
0FC0
1FF0
3CF0
7038
6018
E018
E000
E000
E000
E000
E01C
E018
7038
3CF0
1FF0
0FC0
ENDCHAR
STARTCHAR 010A
ENCODING 266
SWIDTH 720 0
DWIDTH 22 0
BBX 20 27 1 0
BITMAP
007000
007000
007000
000000
000000
01FC00
07FF00
0FFF80
1E03C0
3801E0
3800E0
7000E0
700000
700000
600000
E00000
E00000
600000
700000
700070
7000E0
3800E0
3C01E0
1E03C0
0FFF80
07FF00
01FC00
ENDCHAR
STARTCHAR 010B
ENCODING 267
SWIDTH 490 0
DWIDTH 15 0
BBX 14 22 1 0
BITMAP
0380
0380
0380
0000
0000
0000
0FC0
1FF0
3CF0
7038
6018
E018
E000
E000
E000
E000
E01C
E018
7038
3CF0
1FF0
0FC0
ENDCHAR
STARTCHAR 010C
ENCODING 268
SWIDTH 720 0
DWIDTH 22 0
BBX 20 28 1 0
BITMAP
018600
01CC00
00D800
007800
007000
000000
01FC00
07FF00
0FFF80
1E03C0
3801E0
3800E0
7000E0
700000
700000
600000
E00000
E00000
600000
700000
700070
7000E0
3800E0
3C01E0
1E03C0
0FFF80
07FF00
01FC00
ENDCHAR
STARTCHAR 010D
ENCODING 269
SWIDTH 490 0
DWIDTH 15 0
BBX 14 22 1 0
BITMAP
1860
0CE0
0FC0
0780
0000
0000
0FC0
1FF0
3CF0
7038
6018
E018
E000
E000
E000
E000
E01C
E018
7038
3CF0
1FF0
0FC0
ENDCHAR
STARTCHAR 010E
ENCODING 270
SWIDTH 720 0
DWIDTH 22 0
BBX 17 28 3 0
BITMAP
1C6000
0EC000
07C000
078000
000000
000000
FFE000
FFFC00
FFFE00
E00E00
E00700
E00700
E00380
E00380
E00380
E00380
E00180
E00180
E00380
E00380
E00380
E00380
E00700
E00700
E00E00
E0FE00
FFF800
FFE000
ENDCHAR
STARTCHAR 010F
ENCODING 271
SWIDTH 654 0
DWIDTH 20 0
BBX 19 22 1 0
BITMAP
000CE0
000CE0
000CE0
000C60
000C60
000C40
0F8C80
3FEC00
7EFC00
703C00
E01C00
E01C00
E01C00
C00C00
C00C00
E00C00
E01C00
E01C00
703C00
7EFC00
3FEC00
0F8C00
ENDCHAR
STARTCHAR 0110
ENCODING 272
SWIDTH 720 0
DWIDTH 22 0
BBX 19 22 1 0
BITMAP
3FF800
3FFE00
3FFF80
380780
3801C0
3801C0
3800E0
3800E0
3800E0
3800E0
FFC060
FFC060
3800E0
3800E0
3800E0
3800E0
3801C0
3801C0
380380
383F80
3FFE00
3FF800
ENDCHAR
STARTCHAR 0111
ENCODING 273
SWIDTH 556 0
DWIDTH 17 0
BBX 16 22 1 0
BITMAP
000C
000C
01FF
01FF
000C
000C
0F8C
3FEC
7FFC
703C
E01C
E01C
E01C
C00C
C00C
E01C
E01C
E01C
703C
3FFC
3FEC
0F8C
ENDCHAR
STARTCHAR 0112
ENCODING 274
SWIDTH 654 0
DWIDTH 20 0
BBX 16 27 3 0
BITMAP
1FF0
1FF0
0000
0000
0000
FFFE
FFFE
FFFE
E000
E000
E000
E000
E000
E000
E000
FFFE
FFFE
E000
E000
E000
E000
E000
E000
E000
E000
FFFF
FFFF
ENDCHAR
STARTCHAR 0113
ENCODING 275
SWIDTH 556 0
DWIDTH 17 0
BBX 15 21 1 0
BITMAP
0FF0
0FF0
0000
0000
0000
07C0
1FF0
3EF8
701C
701C
600C
E00E
FFFE
FFFE
E000
E000
700C
701C
3E78
1FF0
07C0
ENDCHAR
STARTCHAR 0114
ENCODING 276
SWIDTH 654 0
DWIDTH 20 0
BBX 16 28 3 0
BITMAP
1830
1C70
0FE0
07C0
0000
0000
FFFE
FFFE
FFFE
E000
E000
E000
E000
E000
E000
E000
FFFE
FFFE
E000
E000
E000
E000
E000
E000
E000
E000
FFFF
FFFF
ENDCHAR
STARTCHAR 0115
ENCODING 277
SWIDTH 556 0
DWIDTH 17 0
BBX 15 22 1 0
BITMAP
1830
1C30
0FF0
07C0
0000
0000
07C0
1FF0
3EF8
701C
701C
600C
E00E
FFFE
FFFE
E000
E000
700C
701C
3E78
1FF0
07C0
ENDCHAR
STARTCHAR 0116
ENCODING 278
SWIDTH 654 0
DWIDTH 20 0
BBX 16 28 3 0
BITMAP
0380
0380
0380
0000
0000
0000
FFFE
FFFE
FFFE
E000
E000
E000
E000
E000
E000
E000
FFFE
FFFE
E000
E000
E000
E000
E000
E000
E000
E000
FFFF
FFFF
ENDCHAR
STARTCHAR 0117
ENCODING 279
SWIDTH 556 0
DWIDTH 17 0
BBX 15 22 1 0
BITMAP
0380
0380
0380
0000
0000
0000
07C0
1FF0
3EF8
701C
701C
600C
E00E
FFFE
FFFE
E000
E000
700C
701C
3E78
1FF0
07C0
ENDCHAR
STARTCHAR 0118
ENCODING 280
SWIDTH 654 0
DWIDTH 20 0
BBX 17 28 3 -6
BITMAP
FFFE00
FFFE00
FFFE00
E00000
E00000
E00000
E00000
E00000
E00000
E00000
FFFE00
FFFE00
E00000
E00000
E00000
E00000
E00000
E00000
E00000
E00000
FFFF00
FFFF00
000600
001C00
001800
001800
001800
000F80
ENDCHAR
STARTCHAR 0119
ENCODING 281
SWIDTH 556 0
DWIDTH 17 0
BBX 15 21 1 -5
BITMAP
07C0
1FF0
3EF8
701C
701C
600C
E00E
FFFE
FFFE
E000
E000
700C
701C
3E78
1FF0
07E0
0040
00C0
00C0
00C0
00FC
ENDCHAR
STARTCHAR 011A
ENCODING 282
SWIDTH 654 0
DWIDTH 20 0
BBX 16 28 3 0
BITMAP
0C60
0EE0
07C0
0380
0000
0000
FFFE
FFFE
FFFE
E000
E000
E000
E000
E000
E000
E000
FFFE
FFFE
E000
E000
E000
E000
E000
E000
E000
E000
FFFF
FFFF
ENDCHAR
STARTCHAR 011B
ENCODING 283
SWIDTH 556 0
DWIDTH 17 0
BBX 15 22 1 0
BITMAP
0C30
0E60
06E0
03C0
0000
0000
07C0
1FF0
3EF8
701C
701C
600C
E00E
FFFE
FFFE
E000
E000
700C
701C
3E78
1FF0
07C0
ENDCHAR
STARTCHAR 011C
ENCODING 284
SWIDTH 785 0
DWIDTH 24 0
BBX 21 28 1 0
BITMAP
007800
00F800
00CC00
018E00
030600
000000
00FE00
07FF80
0FFFC0
1E01E0
3C00F0
380070
700070
700000
600000
E00000
E01FF8
E01FF8
E01FF8
700038
700038
700038
380078
3C00F8
1E01F8
0FFFB8
07FF18
01FC00
ENDCHAR
STARTCHAR 011D
ENCODING 285
SWIDTH 556 0
DWIDTH 17 0
BBX 14 28 1 -6
BITMAP
0380
07C0
0CE0
1C60
0000
0000
0F9C
1FFC
3CFC
703C
603C
E01C
E01C
E01C
E01C
E01C
E01C
603C
703C
3CFC
1FDC
0F9C
0018
6018
7038
7870
3FE0
0FC0
ENDCHAR
STARTCHAR 011E
ENCODING 286
SWIDTH 785 0
DWIDTH 24 0
BBX 21 28 1 0
BITMAP
018300
018700
01FE00
007C00
000000
000000
00FE00
07FF80
0FFFC0
1E01E0
3C00F0
380070
700070
700000
600000
E00000
E01FF8
E01FF8
E01FF8
700038
700038
700038
380078
3C00F8
1E01F8
0FFFB8
07FF18
01FC00
ENDCHAR
STARTCHAR 011F
ENCODING 287
SWIDTH 556 0
DWIDTH 17 0
BBX 14 28 1 -6
BITMAP
1830
1870
1FE0
07C0
0000
0000
0F9C
1FFC
3CFC
703C
603C
E01C
E01C
E01C
E01C
E01C
E01C
603C
703C
3CFC
1FDC
0F9C
0018
6018
7038
7870
3FE0
0FC0
ENDCHAR
STARTCHAR 0120
ENCODING 288
SWIDTH 785 0
DWIDTH 24 0
BBX 21 27 1 0
BITMAP
007800
007800
007800
000000
000000
00FE00
07FF80
0FFFC0
1E01E0
3C00F0
380070
700070
700000
600000
E00000
E01FF8
E01FF8
E01FF8
700038
700038
700038
380078
3C00F8
1E01F8
0FFFB8
07FF18
01FC00
ENDCHAR
STARTCHAR 0121
ENCODING 289
SWIDTH 556 0
DWIDTH 17 0
BBX 14 28 1 -6
BITMAP
0780
0780
0780
0000
0000
0000
0F9C
1FFC
3CFC
703C
603C
E01C
E01C
E01C
E01C
E01C
E01C
603C
703C
3CFC
1FDC
0F9C
0018
6018
7038
7870
3FE0
0FC0
ENDCHAR
STARTCHAR 0122
ENCODING 290
SWIDTH 785 0
DWIDTH 24 0
BBX 21 30 1 -8
BITMAP
00FE00
07FF80
0FFFC0
1E01E0
3C00F0
380070
700070
700000
600000
E00000
E01FF8
E01FF8
E01FF8
700038
700038
700038
380078
3C00F8
1E01F8
0FFFB8
07FF18
01FC00
000000
007000
007000
007000
001000
001000
003000
006000
ENDCHAR
STARTCHAR 0123
ENCODING 291
SWIDTH 556 0
DWIDTH 17 0
BBX 14 31 1 -6
BITMAP
0180
0300
0200
0200
0380
0380
0380
0000
0000
0F9C
1FFC
3CFC
703C
603C
E01C
E01C
E01C
E01C
E01C
E01C
603C
703C
3CFC
1FDC
0F9C
0018
6018
7038
7870
3FE0
0FC0
ENDCHAR
STARTCHAR 0124
ENCODING 292
SWIDTH 720 0
DWIDTH 22 0
BBX 17 28 3 0
BITMAP
03C000
036000
067000
0C3000
000000
000000
C00380
C00380
C00380
C00380
C00380
C00380
C00380
C00380
C00380
C00380
FFFF80
FFFF80
C00380
C00380
C00380
C00380
C00380
C00380
C00380
C00380
C00380
C00380
ENDCHAR
STARTCHAR 0125
ENCODING 293
SWIDTH 556 0
DWIDTH 17 0
BBX 16 28 -1 0
BITMAP
3E00
3600
6300
E300
0000
0000
1C00
1C00
1C00
1C00
1C00
1C00
1CF8
1DFE
1F9F
1E07
1C07
1C07
1C07
1C07
1C07
1C07
1C07
1C07
1C07
1C07
1C07
1C07
ENDCHAR
STARTCHAR 0126
ENCODING 294
SWIDTH 720 0
DWIDTH 22 0
BBX 22 22 0 0
BITMAP
180070
180070
180070
180070
180070
FFFFFC
FFFFFC
180070
180070
180070
1FFFF0
1FFFF0
180070
180070
180070
180070
180070
180070
180070
180070
180070
180070
ENDCHAR
STARTCHAR 0127
ENCODING 295
SWIDTH 556 0
DWIDTH 17 0
BBX 15 22 0 0
BITMAP
3800
3800
FFE0
FFE0
3800
3800
39F0
3BFC
3F3E
3C0E
380E
380E
380E
380E
380E
380E
380E
380E
380E
380E
380E
380E
ENDCHAR
STARTCHAR 0128
ENCODING 296
SWIDTH 294 0
DWIDTH 9 0
BBX 10 28 -1 0
BITMAP
38C0
7FC0
C780
0000
0000
0000
0E00
0E00
0E00
0E00
0E00
0E00
0E00
0E00
0E00
0E00
0E00
0E00
0E00
0E00
0E00
0E00
0E00
0E00
0E00
0E00
0E00
0E00
ENDCHAR
STARTCHAR 0129
ENCODING 297
SWIDTH 294 0
DWIDTH 9 0
BBX 10 22 -1 0
BITMAP
38C0
7FC0
C780
0000
0000
0000
0C00
0C00
0C00
0C00
0C00
0C00
0C00
0C00
0C00
0C00
0C00
0C00
0C00
0C00
0C00
0C00
ENDCHAR
STARTCHAR 012A
ENCODING 298
SWIDTH 294 0
DWIDTH 9 0
BBX 7 27 1 0
BITMAP
FE
FE
00
00
00
38
38
38
38
38
38
38
38
38
38
38
38
38
38
38
38
38
38
38
38
38
38
ENDCHAR
STARTCHAR 012B
ENCODING 299
SWIDTH 294 0
DWIDTH 9 0
BBX 8 21 0 0
BITMAP
FF
FF
00
00
00
1C
1C
1C
1C
1C
1C
1C
1C
1C
1C
1C
1C
1C
1C
1C
1C
ENDCHAR
STARTCHAR 012C
ENCODING 300
SWIDTH 294 0
DWIDTH 9 0
BBX 9 28 0 0
BITMAP
C180
E300
FF00
3E00
0000
0000
1C00
1C00
1C00
1C00
1C00
1C00
1C00
1C00
1C00
1C00
1C00
1C00
1C00
1C00
1C00
1C00
1C00
1C00
1C00
1C00
1C00
1C00
ENDCHAR
STARTCHAR 012D
ENCODING 301
SWIDTH 294 0
DWIDTH 9 0
BBX 9 22 0 0
BITMAP
C180
E380
FF00
3E00
0000
0000
1800
1800
1800
1800
1800
1800
1800
1800
1800
1800
1800
1800
1800
1800
1800
1800
ENDCHAR
STARTCHAR 012E
ENCODING 302
SWIDTH 294 0
DWIDTH 9 0
BBX 5 28 2 -6
BITMAP
70
70
70
70
70
70
70
70
70
70
70
70
70
70
70
70
70
70
70
70
70
70
20
60
C0
C0
E0
78
ENDCHAR
STARTCHAR 012F
ENCODING 303
SWIDTH 229 0
DWIDTH 7 0
BBX 5 28 1 -6
BITMAP
70
70
70
00
00
00
70
70
70
70
70
70
70
70
70
70
70
70
70
70
70
70
60
40
C0
C0
C0
78
ENDCHAR
STARTCHAR 0130
ENCODING 304
SWIDTH 294 0
DWIDTH 9 0
BBX 3 28 3 0
BITMAP
E0
E0
E0
00
00
00
E0
E0
E0
E0
E0
E0
E0
E0
E0
E0
E0
E0
E0
E0
E0
E0
E0
E0
E0
E0
E0
E0
ENDCHAR
STARTCHAR 0131
ENCODING 305
SWIDTH 294 0
DWIDTH 9 0
BBX 2 16 3 0
BITMAP
C0
C0
C0
C0
C0
C0
C0
C0
C0
C0
C0
C0
C0
C0
C0
C0
ENDCHAR
STARTCHAR 0132
ENCODING 306
SWIDTH 720 0
DWIDTH 22 0
BBX 17 22 3 0
BITMAP
E00380
E00380
E00380
E00380
E00380
E00380
E00380
E00380
E00380
E00380
E00380
E00380
E00380
E00380
E60380
E60380
E70380
E70380
E70380
E7CF00
E3FE00
E0F800
ENDCHAR
STARTCHAR 0133
ENCODING 307
SWIDTH 458 0
DWIDTH 14 0
BBX 8 29 3 -7
BITMAP
C3
C3
C3
00
00
00
C3
C3
C3
C3
C3
C3
C3
C3
C3
C3
C3
C3
C3
C3
C3
C3
03
03
03
07
0F
1F
1C
ENDCHAR
STARTCHAR 0134
ENCODING 308
SWIDTH 490 0
DWIDTH 15 0
BBX 14 28 1 0
BITMAP
00F0
00F8
019C
030C
0000
0000
0070
0070
0070
0070
0070
0070
0070
0070
0070
0070
0070
0070
0070
0070
C070
C070
E070
E070
E0F0
FBE0
7FC0
1F00
ENDCHAR
STARTCHAR 0135
ENCODING 309
SWIDTH 229 0
DWIDTH 7 0
BBX 8 29 -1 -7
BITMAP
3C
3E
67
C3
00
00
1C
1C
1C
1C
1C
1C
1C
1C
1C
1C
1C
1C
1C
1C
1C
1C
1C
1C
1C
1C
3C
F8
F0
ENDCHAR
STARTCHAR 0136
ENCODING 310
SWIDTH 654 0
DWIDTH 20 0
BBX 18 31 2 -9
BITMAP
E003C0
E00700
E00E00
E01C00
E03800
E07000
E0E000
E1C000
E38000
E78000
EFC000
FDE000
F8E000
F07000
E03800
E03C00
E01C00
E00E00
E00F00
E00700
E00380
E003C0
000000
000000
01C000
01C000
01C000
004000
004000
00C000
010000
ENDCHAR
STARTCHAR 0137
ENCODING 311
SWIDTH 490 0
DWIDTH 15 0
BBX 13 31 2 -9
BITMAP
C000
C000
C000
C000
C000
C000
C070
C0E0
C1C0
C380
C700
CE00
DE00
FF00
F780
E380
C1C0
C1E0
C0E0
C070
C070
C038
0000
0000
0700
0700
0700
0300
0300
0600
0400
ENDCHAR
STARTCHAR 0138
ENCODING 312
SWIDTH 490 0
DWIDTH 15 0
BBX 12 16 1 0
BITMAP
C030
C060
C0C0
C180
C300
C600
CC00
DE00
F600
E300
C380
C1C0
C0C0
C060
C070
C030
ENDCHAR
STARTCHAR 0139
ENCODING 313
SWIDTH 556 0
DWIDTH 17 0
BBX 14 28 2 0
BITMAP
3C00
3800
7000
6000
0000
0000
E000
E000
E000
E000
E000
E000
E000
E000
E000
E000
E000
E000
E000
E000
E000
E000
E000
E000
E000
E000
FFFC
FFFC
ENDCHAR
STARTCHAR 013A
ENCODING 314
SWIDTH 229 0
DWIDTH 7 0
BBX 6 28 2 0
BITMAP
3C
30
60
C0
00
00
E0
E0
E0
E0
E0
E0
E0
E0
E0
E0
E0
E0
E0
E0
E0
E0
E0
E0
E0
E0
E0
E0
ENDCHAR
STARTCHAR 013B
ENCODING 315
SWIDTH 556 0
DWIDTH 17 0
BBX 14 31 2 -9
BITMAP
E000
E000
E000
E000
E000
E000
E000
E000
E000
E000
E000
E000
E000
E000
E000
E000
E000
E000
E000
E000
FFFC
FFFC
0000
0000
0380
0380
0380
0080
0180
0100
0200
ENDCHAR
STARTCHAR 013C
ENCODING 316
SWIDTH 229 0
DWIDTH 7 0
BBX 3 31 2 -9
BITMAP
E0
E0
E0
E0
E0
E0
E0
E0
E0
E0
E0
E0
E0
E0
E0
E0
E0
E0
E0
E0
E0
E0
00
00
E0
E0
E0
20
60
40
80
ENDCHAR
STARTCHAR 013D
ENCODING 317
SWIDTH 556 0
DWIDTH 17 0
BBX 14 22 2 0
BITMAP
E380
E380
E380
E080
E080
E180
E300
E000
E000
E000
E000
E000
E000
E000
E000
E000
E000
E000
E000
E000
FFFC
FFFC
ENDCHAR
STARTCHAR 013E
ENCODING 318
SWIDTH 294 0
DWIDTH 9 0
BBX 7 22 2 0
BITMAP
EE
EE
EE
E2
E2
E6
EC
E0
E0
E0
E0
E0
E0
E0
E0
E0
E0
E0
E0
E0
E0
E0
ENDCHAR
STARTCHAR 013F
ENCODING 319
SWIDTH 556 0
DWIDTH 17 0
BBX 14 22 2 0
BITMAP
E000
E000
E000
E000
E000
E000
E000
E000
E000
E000
E0F0
E0F0
E0F0
E000
E000
E000
E000
E000
E000
E000
FFFC
FFFC
ENDCHAR
STARTCHAR 0140
ENCODING 320
SWIDTH 327 0
DWIDTH 10 0
BBX 8 22 2 0
BITMAP
E0
E0
E0
E0
E0
E0
E0
E0
E0
E0
E7
E7
E7
E0
E0
E0
E0
E0
E0
E0
E0
E0
ENDCHAR
STARTCHAR 0141
ENCODING 321
SWIDTH 556 0
DWIDTH 17 0
BBX 17 22 0 0
BITMAP
380000
380000
380000
380000
380000
380000
382000
38E000
39C000
3B8000
3E0000
3C0000
780000
F80000
B80000
380000
380000
380000
380000
380000
3FFF80
3FFF80
ENDCHAR
STARTCHAR 0142
ENCODING 322
SWIDTH 229 0
DWIDTH 7 0
BBX 6 22 0 0
BITMAP
30
30
30
30
30
30
30
30
34
3C
38
70
F0
B0
30
30
30
30
30
30
30
30
ENDCHAR
STARTCHAR 0143
ENCODING 323
SWIDTH 720 0
DWIDTH 22 0
BBX 18 28 2 0
BITMAP
007800
006000
00C000
018000
000000
000000
F001C0
F001C0
F801C0
FC01C0
FC01C0
EE01C0
EF01C0
E701C0
E381C0
E3C1C0
E1C1C0
E0E1C0
E0F1C0
E071C0
E039C0
E039C0
E01DC0
E00FC0
E00FC0
E007C0
E003C0
E003C0
ENDCHAR
STARTCHAR 0144
ENCODING 324
SWIDTH 556 0
DWIDTH 17 0
BBX 13 22 2 0
BITMAP
01C0
0380
0300
0600
0000
0000
C7C0
DFF0
DC78
F038
E038
E038
E038
E038
E038
E038
E038
E038
E038
E038
E038
E038
ENDCHAR
STARTCHAR 0145
ENCODING 325
SWIDTH 720 0
DWIDTH 22 0
BBX 18 31 2 -9
BITMAP
F001C0
F001C0
F801C0
FC01C0
FC01C0
EE01C0
EF01C0
E701C0
E381C0
E3C1C0
E1C1C0
E0E1C0
E0F1C0
E071C0
E039C0
E039C0
E01DC0
E00FC0
E00FC0
E007C0
E003C0
E003C0
000000
000000
01C000
01C000
01C000
004000
004000
00C000
010000
ENDCHAR
STARTCHAR 0146
ENCODING 326
SWIDTH 556 0
DWIDTH 17 0
BBX 13 25 2 -9
BITMAP
C7C0
DFF0
DC78
F038
E038
E038
E038
E038
E038
E038
E038
E038
E038
E038
E038
E038
0000
0000
0700
0700
0700
0100
0100
0200
0400
ENDCHAR
STARTCHAR 0147
ENCODING 327
SWIDTH 720 0
DWIDTH 22 0
BBX 18 28 2 0
BITMAP
061800
033000
01F000
01E000
000000
000000
F001C0
F001C0
F801C0
FC01C0
FC01C0
EE01C0
EF01C0
E701C0
E381C0
E3C1C0
E1C1C0
E0E1C0
E0F1C0
E071C0
E039C0
E039C0
E01DC0
E00FC0
E00FC0
E007C0
E003C0
E003C0
ENDCHAR
STARTCHAR 0148
ENCODING 328
SWIDTH 556 0
DWIDTH 17 0
BBX 13 22 2 0
BITMAP
38E0
18C0
0D80
0700
0000
0000
C7C0
DFF0
DC78
F038
E038
E038
E038
E038
E038
E038
E038
E038
E038
E038
E038
E038
ENDCHAR
STARTCHAR 0149
ENCODING 329
SWIDTH 589 0
DWIDTH 18 0
BBX 16 23 0 0
BITMAP
E000
E000
E000
2000
2000
E000
C000
0CFC
0DFE
0F8F
0E07
0E03
0C03
0C03
0C03
0C03
0C03
0C03
0C03
0C03
0C03
0C03
0C03
ENDCHAR
STARTCHAR 014A
ENCODING 330
SWIDTH 720 0
DWIDTH 22 0
BBX 16 31 3 -9
BITMAP
01F0
C7FC
CFFE
D80F
F007
F007
E003
E003
E003
E003
E003
E003
E003
E003
E003
E003
E003
E003
E003
E003
E003
E003
0003
0003
0003
0003
0003
0007
003F
003E
003C
ENDCHAR
STARTCHAR 014B
ENCODING 331
SWIDTH 556 0
DWIDTH 17 0
BBX 13 23 2 -7
BITMAP
E7C0
EFF0
FC78
F038
E038
E038
E038
E038
E038
E038
E038
E038
E038
E038
E038
E038
0038
0038
0038
0038
0038
00F0
00E0
ENDCHAR
STARTCHAR 014C
ENCODING 332
SWIDTH 785 0
DWIDTH 24 0
BBX 22 27 1 0
BITMAP
01FE00
01FE00
000000
000000
000000
00FE00
07FF80
0FFFC0
1E01E0
3C00F0
780070
700038
700038
E00018
E0001C
E0001C
E0001C
E0001C
E00018
700038
700038
780070
3C00F0
1E01E0
0FFFC0
07FF80
01FC00
ENDCHAR
STARTCHAR 014D
ENCODING 333
SWIDTH 556 0
DWIDTH 17 0
BBX 15 21 1 0
BITMAP
1FF0
1FF0
0000
0000
0000
07C0
1FF0
3EF8
703C
701C
E00C
E00E
E00E
E00E
E00E
E00C
701C
703C
3EF8
1FF0
0FC0
ENDCHAR
STARTCHAR 014E
ENCODING 334
SWIDTH 785 0
DWIDTH 24 0
BBX 22 28 1 0
BITMAP
030200
038600
01FE00
00F800
000000
000000
00FE00
07FF80
0FFFC0
1E01E0
3C00F0
780070
700038
700038
E00018
E0001C
E0001C
E0001C
E0001C
E00018
700038
700038
780070
3C00F0
1E01E0
0FFFC0
07FF80
01FC00
ENDCHAR
STARTCHAR 014F
ENCODING 335
SWIDTH 556 0
DWIDTH 17 0
BBX 15 22 1 0
BITMAP
1830
1870
1FE0
07C0
0000
0000
07C0
1FF0
3EF8
703C
701C
E00C
E00E
E00E
E00E
E00E
E00C
701C
703C
3EF8
1FF0
0FC0
ENDCHAR
STARTCHAR 0150
ENCODING 336
SWIDTH 785 0
DWIDTH 24 0
BBX 22 28 1 0
BITMAP
0039C0
007380
006300
00C600
018400
000000
00FE00
07FF80
0FFFC0
1E01E0
3C00F0
780070
700038
700038
E00018
E0001C
E0001C
E0001C
E0001C
E00018
700038
700038
780070
3C00F0
1E01E0
0FFFC0
07FF80
01FC00
ENDCHAR
STARTCHAR 0151
ENCODING 337
SWIDTH 556 0
DWIDTH 17 0
BBX 15 22 1 0
BITMAP
039E
071C
0638
0C70
0000
0000
07C0
1FF0
3EF8
703C
701C
E00C
E00E
E00E
E00E
E00E
E00C
701C
703C
3EF8
1FF0
0FC0
ENDCHAR
STARTCHAR 0152
ENCODING 338
SWIDTH 1014 0
DWIDTH 31 0
BBX 28 22 1 0
BITMAP
01F1FFF0
07FDFFF0
1FFFFFF0
3C07C000
3803C000
7001C000
7001C000
7001C000
6001C000
E001C000
E001FFF0
E001FFF0
E001C000
E001C000
7001C000
7001C000
7001C000
3803C000
3C07C000
1FFFC000
0FFDFFF0
03F1FFF0
ENDCHAR
STARTCHAR 0153
ENCODING 339
SWIDTH 949 0
DWIDTH 29 0
BBX 26 16 1 0
BITMAP
07C07C00
1FF1FF00
3EFBEF80
703F03C0
701E01C0
600E00C0
E00E00C0
E00FFFC0
E00FFFC0
E00E0000
E00E0000
701E01C0
701F01C0
3EFBE780
1FF1FF00
0FC0FC00
ENDCHAR
STARTCHAR 0154
ENCODING 340
SWIDTH 720 0
DWIDTH 22 0
BBX 18 28 3 0
BITMAP
00F000
01C000
018000
030000
000000
000000
FFF800
FFFE00
FFFF00
E00780
E00380
E00380
E00380
E00380
E00700
E00F00
FFFC00
FFFC00
FFFE00
E00700
E00700
E00300
E00300
E00300
E00380
E00380
E00380
E003C0
ENDCHAR
STARTCHAR 0155
ENCODING 341
SWIDTH 327 0
DWIDTH 10 0
BBX 8 22 2 0
BITMAP
0F
0C
18
30
00
00
C7
CF
DC
F0
E0
E0
E0
E0
E0
E0
E0
E0
E0
E0
E0
E0
ENDCHAR
STARTCHAR 0156
ENCODING 342
SWIDTH 720 0
DWIDTH 22 0
BBX 18 31 3 -9
BITMAP
FFF800
FFFE00
FFFF00
E00780
E00380
E00380
E00380
E00380
E00700
E00F00
FFFC00
FFFC00
FFFE00
E00700
E00700
E00300
E00300
E00300
E00380
E00380
E00380
E003C0
000000
000000
01C000
01C000
01C000
00C000
00C000
018000
010000
ENDCHAR
STARTCHAR 0157
ENCODING 343
SWIDTH 327 0
DWIDTH 10 0
BBX 8 25 2 -9
BITMAP
C7
CF
DC
F0
E0
E0
E0
E0
E0
E0
E0
E0
E0
E0
E0
E0
00
00
E0
E0
E0
20
20
40
80
ENDCHAR
STARTCHAR 0158
ENCODING 344
SWIDTH 720 0
DWIDTH 22 0
BBX 18 28 3 0
BITMAP
0C3000
066000
07C000
03C000
000000
000000
FFF800
FFFE00
FFFF00
E00780
E00380
E00380
E00380
E00380
E00700
E00F00
FFFC00
FFFC00
FFFE00
E00700
E00700
E00300
E00300
E00300
E00380
E00380
E00380
E003C0
ENDCHAR
STARTCHAR 0159
ENCODING 345
SWIDTH 327 0
DWIDTH 10 0
BBX 8 22 2 0
BITMAP
C3
66
7C
3C
00
00
C7
CF
DC
F0
E0
E0
E0
E0
E0
E0
E0
E0
E0
E0
E0
E0
ENDCHAR
STARTCHAR 015A
ENCODING 346
SWIDTH 654 0
DWIDTH 20 0
BBX 17 28 2 0
BITMAP
007000
00E000
01C000
018000
000000
000000
07F000
1FFC00
3E7E00
700E00
E00700
E00700
E00700
F00000
780000
7F8000
1FF800
03FE00
003F00
000780
000380
C00380
E00380
E00380
700700
7FFE00
3FFC00
07F000
ENDCHAR
STARTCHAR 015B
ENCODING 347
SWIDTH 490 0
DWIDTH 15 0
BBX 13 22 1 0
BITMAP
01C0
0380
0300
0600
0000
0000
0FC0
3FE0
78F0
6070
E030
F000
7C00
3FC0
0FF0
00F8
0038
E038
E038
7CF0
7FE0
1FC0
ENDCHAR
STARTCHAR 015C
ENCODING 348
SWIDTH 654 0
DWIDTH 20 0
BBX 17 28 2 0
BITMAP
03C000
03E000
066000
0C3000
0C1000
000000
07F000
1FFC00
3E7E00
700E00
E00700
E00700
E00700
F00000
780000
7F8000
1FF800
03FE00
003F00
000780
000380
C00380
E00380
E00380
700700
7FFE00
3FFC00
07F000
ENDCHAR
STARTCHAR 015D
ENCODING 349
SWIDTH 490 0
DWIDTH 15 0
BBX 13 22 1 0
BITMAP
0700
0F80
0DC0
18C0
0020
0000
0FC0
3FE0
78F0
6070
E030
F000
7C00
3FC0
0FF0
00F8
0038
E038
E038
7CF0
7FE0
1FC0
ENDCHAR
STARTCHAR 015E
ENCODING 350
SWIDTH 654 0
DWIDTH 20 0
BBX 17 28 2 -6
BITMAP
07F000
1FFC00
3E7E00
700F00
600700
E00700
E00300
F00000
780000
7F0000
3FF000
07FE00
007F00
000F80
000380
C00380
C00380
E00380
F00700
780F00
3FFE00
1FF800
018000
018000
03E000
006000
086000
0FC000
ENDCHAR
STARTCHAR 015F
ENCODING 351
SWIDTH 490 0
DWIDTH 15 0
BBX 13 22 1 -6
BITMAP
0FC0
3FE0
78F0
7070
E030
E000
7800
7F00
1FE0
03F0
0078
0038
E038
E038
7DF0
3FE0
1F80
0400
0780
0180
2180
3F00
ENDCHAR
STARTCHAR 0160
ENCODING 352
SWIDTH 654 0
DWIDTH 20 0
BBX 17 28 2 0
BITMAP
0C3000
067000
07E000
03C000
01C000
000000
07F000
1FFC00
3E7E00
700E00
E00700
E00700
E00700
F00000
780000
7F8000
1FF800
03FE00
003F00
000780
000380
C00380
E00380
E00380
700700
7FFE00
3FFC00
07F000
ENDCHAR
STARTCHAR 0161
ENCODING 353
SWIDTH 490 0
DWIDTH 15 0
BBX 13 22 1 0
BITMAP
3860
18C0
0D80
0F80
0000
0000
0FC0
3FE0
78F0
6070
E030
F000
7C00
3FC0
0FF0
00F8
0038
E038
E038
7CF0
7FE0
1FC0
ENDCHAR
STARTCHAR 0162
ENCODING 354
SWIDTH 621 0
DWIDTH 19 0
BBX 17 28 1 -6
BITMAP
FFFF80
FFFF80
FFFF80
01C000
01C000
01C000
01C000
01C000
01C000
01C000
01C000
01C000
01C000
01C000
01C000
01C000
01C000
01C000
01C000
01C000
01C000
01C000
008000
008000
01F000
003000
043000
07E000
ENDCHAR
STARTCHAR 0163
ENCODING 355
SWIDTH 294 0
DWIDTH 9 0
BBX 8 26 0 -6
BITMAP
18
18
18
18
FF
FF
18
18
18
18
18
18
18
18
18
18
18
18
1F
0F
08
1E
07
03
67
7C
ENDCHAR
STARTCHAR 0164
ENCODING 356
SWIDTH 621 0
DWIDTH 19 0
BBX 17 28 1 0
BITMAP
0E3000
077000
03E000
01C000
000000
000000
FFFF80
FFFF80
FFFF80
01C000
01C000
01C000
01C000
01C000
01C000
01C000
01C000
01C000
01C000
01C000
01C000
01C000
01C000
01C000
01C000
01C000
01C000
01C000
ENDCHAR
STARTCHAR 0165
ENCODING 357
SWIDTH 327 0
DWIDTH 10 0
BBX 10 24 0 0
BITMAP
01C0
01C0
01C0
00C0
18C0
1980
1800
1800
FF00
FF00
1800
1800
1800
1800
1800
1800
1800
1800
1800
1800
1800
1800
1F00
0F00
ENDCHAR
STARTCHAR 0166
ENCODING 358
SWIDTH 621 0
DWIDTH 19 0
BBX 17 22 1 0
BITMAP
FFFF80
FFFF80
FFFF80
01C000
01C000
01C000
01C000
01C000
3FFE00
3FFE00
01C000
01C000
01C000
01C000
01C000
01C000
01C000
01C000
01C000
01C000
01C000
01C000
ENDCHAR
STARTCHAR 0167
ENCODING 359
SWIDTH 294 0
DWIDTH 9 0
BBX 8 20 0 0
BITMAP
18
18
18
18
FF
FF
18
18
7E
7E
18
18
18
18
18
18
18
18
1F
0F
ENDCHAR
STARTCHAR 0168
ENCODING 360
SWIDTH 720 0
DWIDTH 22 0
BBX 17 28 3 0
BITMAP
0F1800
0FF000
19F000
000000
000000
000000
C00380
C00380
C00380
C00380
C00380
C00380
C00380
C00380
C00380
C00380
C00380
C00380
C00380
C00380
C00380
E00380
E00380
E00700
700F00
7FFE00
3FFC00
07F000
ENDCHAR
STARTCHAR 0169
ENCODING 361
SWIDTH 556 0
DWIDTH 17 0
BBX 13 22 2 -1
BITMAP
1C60
3FE0
33C0
0000
0000
0000
E038
E038
E038
E038
E038
E038
E038
E038
E038
E038
E038
E038
E078
F1F8
7FF8
3FB8
ENDCHAR
STARTCHAR 016A
ENCODING 362
SWIDTH 720 0
DWIDTH 22 0
BBX 17 27 3 0
BITMAP
0FF000
0FF000
000000
000000
000000
C00380
C00380
C00380
C00380
C00380
C00380
C00380
C00380
C00380
C00380
C00380
C00380
C00380
C00380
C00380
E00380
E00380
E00700
700F00
7FFE00
3FFC00
07F000
ENDCHAR
STARTCHAR 016B
ENCODING 363
SWIDTH 556 0
DWIDTH 17 0
BBX 13 21 2 -1
BITMAP
3FE0
3FE0
0000
0000
0000
E038
E038
E038
E038
E038
E038
E038
E038
E038
E038
E038
E038
E078
F1F8
7FF8
3FB8
ENDCHAR
STARTCHAR 016C
ENCODING 364
SWIDTH 720 0
DWIDTH 22 0
BBX 17 28 3 0
BITMAP
181800
0C3000
0FF000
03C000
000000
000000
C00380
C00380
C00380
C00380
C00380
C00380
C00380
C00380
C00380
C00380
C00380
C00380
C00380
C00380
C00380
E00380
E00380
E00700
700F00
7FFE00
3FFC00
07F000
ENDCHAR
STARTCHAR 016D
ENCODING 365
SWIDTH 556 0
DWIDTH 17 0
BBX 13 22 2 -1
BITMAP
3060
38E0
1FC0
0F80
0000
0000
E038
E038
E038
E038
E038
E038
E038
E038
E038
E038
E038
E038
E078
F1F8
7FF8
3FB8
ENDCHAR
STARTCHAR 016E
ENCODING 366
SWIDTH 720 0
DWIDTH 22 0
BBX 17 29 3 0
BITMAP
01C000
03E000
066000
026000
03C000
000000
000000
C00380
C00380
C00380
C00380
C00380
C00380
C00380
C00380
C00380
C00380
C00380
C00380
C00380
C00380
C00380
E00380
E00380
E00700
700F00
7FFE00
3FFC00
07F000
ENDCHAR
STARTCHAR 016F
ENCODING 367
SWIDTH 556 0
DWIDTH 17 0
BBX 13 23 2 -1
BITMAP
0700
0D80
0880
0980
0F00
0000
0000
E038
E038
E038
E038
E038
E038
E038
E038
E038
E038
E038
E038
E078
F1F8
7FF8
3FB8
ENDCHAR
STARTCHAR 0170
ENCODING 368
SWIDTH 720 0
DWIDTH 22 0
BBX 17 28 3 0
BITMAP
03CE00
039C00
071800
063000
000000
000000
C00380
C00380
C00380
C00380
C00380
C00380
C00380
C00380
C00380
C00380
C00380
C00380
C00380
C00380
C00380
E00380
E00380
E00700
700F00
7FFE00
3FFC00
07F000
ENDCHAR
STARTCHAR 0171
ENCODING 369
SWIDTH 556 0
DWIDTH 17 0
BBX 14 22 2 -1
BITMAP
073C
0E38
0C70
18E0
0000
0000
E038
E038
E038
E038
E038
E038
E038
E038
E038
E038
E038
E038
E078
F1F8
7FF8
3FB8
ENDCHAR
STARTCHAR 0172
ENCODING 370
SWIDTH 720 0
DWIDTH 22 0
BBX 17 27 3 -5
BITMAP
C00380
C00380
C00380
C00380
C00380
C00380
C00380
C00380
C00380
C00380
C00380
C00380
C00380
C00380
C00380
E00380
E00380
E00700
700F00
7FFF00
3FFE00
07FC00
003800
007000
006000
007000
003E00
ENDCHAR
STARTCHAR 0173
ENCODING 371
SWIDTH 556 0
DWIDTH 17 0
BBX 14 21 2 -5
BITMAP
E038
E038
E038
E038
E038
E038
E038
E038
E038
E038
E038
E038
E078
F1F8
7FB8
3F38
0030
0060
00C0
00E0
007C
ENDCHAR
STARTCHAR 0174
ENCODING 372
SWIDTH 949 0
DWIDTH 29 0
BBX 27 28 1 0
BITMAP
001E0000
001B0000
00338000
00618000
00000000
00000000
E00E00E0
E00E00E0
E01F00E0
701F01C0
701B01C0
703B81C0
703B81C0
383B8380
38318380
3871C380
3871C380
1C60C300
1C60E700
1CE0E700
1CE0E700
0CC06600
0FC07E00
0FC07E00
0F803E00
07803C00
07803C00
07803C00
ENDCHAR
STARTCHAR 0175
ENCODING 373
SWIDTH 720 0
DWIDTH 22 0
BBX 21 22 0 0
BITMAP
007800
00F800
00CC00
018600
000000
000000
E07818
607838
707838
70F838
70FC30
30DC70
38CC70
39CC60
19CE60
198EE0
1D86E0
1F86C0
0F87C0
0F07C0
0F0380
070380
ENDCHAR
STARTCHAR 0176
ENCODING 374
SWIDTH 654 0
DWIDTH 20 0
BBX 19 28 1 0
BITMAP
01F000
01B000
031800
031800
000000
000000
E001E0
F001C0
7003C0
380380
3C0700
1C0700
0E0E00
0E1C00
071C00
07B800
03B800
01F000
01E000
00E000
00E000
00E000
00E000
00E000
00E000
00E000
00E000
00E000
ENDCHAR
STARTCHAR 0177
ENCODING 375
SWIDTH 490 0
DWIDTH 15 0
BBX 13 28 1 -7
BITMAP
0700
0F80
1CC0
18E0
0000
0000
E018
E038
E038
6030
7070
7070
3060
38E0
38C0
19C0
1DC0
1D80
0F80
0F80
0700
0700
0600
0E00
0E00
1C00
7C00
7800
ENDCHAR
STARTCHAR 0178
ENCODING 376
SWIDTH 654 0
DWIDTH 20 0
BBX 19 28 1 0
BITMAP
07B800
07B800
07B800
000000
000000
000000
E001E0
F001C0
7003C0
380380
3C0700
1C0700
0E0E00
0E1C00
071C00
07B800
03B800
01F000
01E000
00E000
00E000
00E000
00E000
00E000
00E000
00E000
00E000
00E000
ENDCHAR
STARTCHAR 0179
ENCODING 377
SWIDTH 621 0
DWIDTH 19 0
BBX 17 28 1 0
BITMAP
007800
00E000
00C000
018000
000000
000000
7FFF80
7FFF80
7FFF80
000F00
000E00
001C00
003C00
007800
007000
00E000
01E000
03C000
078000
070000
0E0000
1E0000
3C0000
780000
700000
E00000
FFFF80
FFFF80
ENDCHAR
STARTCHAR 017A
ENCODING 378
SWIDTH 490 0
DWIDTH 15 0
BBX 13 22 1 0
BITMAP
01C0
0380
0300
0600
0000
0000
7FF8
7FF8
0070
00F0
00E0
01C0
0380
0700
0E00
1E00
1C00
3800
7000
E000
FFF8
FFF8
ENDCHAR
STARTCHAR 017B
ENCODING 379
SWIDTH 621 0
DWIDTH 19 0
BBX 17 28 1 0
BITMAP
01C000
01C000
01C000
000000
000000
000000
7FFF80
7FFF80
7FFF80
000F00
000E00
001C00
003C00
007800
007000
00E000
01E000
03C000
078000
070000
0E0000
1E0000
3C0000
780000
700000
E00000
FFFF80
FFFF80
ENDCHAR
STARTCHAR 017C
ENCODING 380
SWIDTH 490 0
DWIDTH 15 0
BBX 13 22 1 0
BITMAP
0700
0700
0700
0000
0000
0000
7FF8
7FF8
0070
00F0
00E0
01C0
0380
0700
0E00
1E00
1C00
3800
7000
E000
FFF8
FFF8
ENDCHAR
STARTCHAR 017D
ENCODING 381
SWIDTH 621 0
DWIDTH 19 0
BBX 17 28 1 0
BITMAP
063800
033000
03E000
01E000
000000
000000
7FFF80
7FFF80
7FFF80
000F00
000E00
001C00
003C00
007800
007000
00E000
01E000
03C000
078000
070000
0E0000
1E0000
3C0000
780000
700000
E00000
FFFF80
FFFF80
ENDCHAR
STARTCHAR 017E
ENCODING 382
SWIDTH 490 0
DWIDTH 15 0
BBX 13 22 1 0
BITMAP
1860
1CC0
0D80
0780
0000
0000
7FF8
7FF8
0070
00F0
00E0
01C0
0380
0700
0E00
1E00
1C00
3800
7000
E000
FFF8
FFF8
ENDCHAR
STARTCHAR 017F
ENCODING 383
SWIDTH 229 0
DWIDTH 7 0
BBX 7 22 0 0
BITMAP
0E
3E
38
30
30
30
F0
F0
30
30
30
30
30
30
30
30
30
30
30
30
30
30
ENDCHAR
STARTCHAR 0192
ENCODING 402
SWIDTH 556 0
DWIDTH 17 0
BBX 16 28 0 -6
BITMAP
000F
001F
003F
0070
0070
0060
00E0
00E0
0FFC
0FFC
00C0
01C0
01C0
01C0
01C0
0180
0180
0380
0380
0380
0300
0300
0700
0700
0600
0E00
7C00
F800
ENDCHAR
STARTCHAR 01FA
ENCODING 506
SWIDTH 654 0
DWIDTH 20 0
BBX 19 33 1 0
BITMAP
01E000
01C000
038000
070000
06E000
01B000
011000
013000
01E000
000000
000000
01E000
01F000
01F000
03F000
03B800
073800
073800
071C00
0E1C00
0E1E00
0E0E00
1C0E00
1C0700
1FFF00
3FFF00
380380
700380
700380
7001C0
E001C0
E001C0
E000E0
ENDCHAR
STARTCHAR 01FB
ENCODING 507
SWIDTH 556 0
DWIDTH 17 0
BBX 15 27 1 0
BITMAP
0380
0700
0600
0C00
1800
0380
0640
0440
06C0
0380
0000
0FE0
1FF0
3C78
7018
7018
0018
0038
0FF8
3F98
7018
E018
E018
E038
78FC
7FDE
1F0E
ENDCHAR
STARTCHAR 01FC
ENCODING 508
SWIDTH 1014 0
DWIDTH 31 0
BBX 28 28 1 0
BITMAP
00007800
0000E000
0000C000
00018000
00000000
00000000
00FFFFE0
00FFFFE0
01FFFFE0
01C70000
01870000
03870000
03870000
07070000
07070000
06070000
0E07FFE0
0E07FFE0
1C070000
1FFF0000
3FFF0000
3FFF0000
38070000
70070000
70070000
E0070000
E007FFF0
E007FFF0
ENDCHAR
STARTCHAR 01FD
ENCODING 509
SWIDTH 883 0
DWIDTH 27 0
BBX 25 22 1 0
BITMAP
00070000
000E0000
000C0000
00180000
00000000
00000000
0FC1F800
3FF7FC00
7CFFBE00
703E0700
601C0700
00180380
00380380
0FFFFF80
3FDFFF80
78180000
E0180080
E03C0300
E03C0700
F0EF9E00
7FC7FC00
1F01F000
ENDCHAR
STARTCHAR 01FE
ENCODING 510
SWIDTH 785 0
DWIDTH 24 0
BBX 22 28 1 0
BITMAP
001C00
003800
007000
006000
000000
000000
01FC0C
07FF98
0FFFF0
1E01E0
3800F0
7801F0
700338
600638
E00C38
E0181C
E0301C
E0601C
E0C01C
E18018
730038
760038
7C0070
3800F0
3E01E0
6FFFC0
C7FF80
01FC00
ENDCHAR
STARTCHAR 01FF
ENCODING 511
SWIDTH 621 0
DWIDTH 19 0
BBX 15 23 1 0
BITMAP
00E0
01C0
0380
0300
0600
0000
0000
07C2
1FF6
3EFC
703C
703C
E06C
E0CE
E18E
E30E
E60E
EC0C
781C
703C
7EF8
DFF0
8FC0
ENDCHAR
STARTCHAR 0218
ENCODING 536
SWIDTH 654 0
DWIDTH 20 0
BBX 17 30 2 -8
BITMAP
07F000
1FFC00
3E7E00
700E00
E00700
E00700
E00700
F00000
780000
7F8000
1FF800
03FE00
003F00
000780
000380
C00380
E00380
E00380
700700
7FFE00
3FFC00
07F000
000000
01C000
01C000
01C000
004000
00C000
008000
010000
ENDCHAR
STARTCHAR 0219
ENCODING 537
SWIDTH 490 0
DWIDTH 15 0
BBX 13 24 1 -8
BITMAP
0FC0
3FE0
78F0
6070
E030
F000
7C00
3FC0
0FF0
00F8
0038
E038
E038
7CF0
7FE0
1FC0
0000
0700
0700
0700
0100
0100
0200
0400
ENDCHAR
STARTCHAR 021A
ENCODING 538
SWIDTH 621 0
DWIDTH 19 0
BBX 17 31 1 -9
BITMAP
FFFF80
FFFF80
FFFF80
01C000
01C000
01C000
01C000
01C000
01C000
01C000
01C000
01C000
01C000
01C000
01C000
01C000
01C000
01C000
01C000
01C000
01C000
01C000
000000
000000
01C000
01C000
01C000
004000
00C000
008000
010000
ENDCHAR
STARTCHAR 021B
ENCODING 539
SWIDTH 294 0
DWIDTH 9 0
BBX 8 28 0 -8
BITMAP
18
18
18
18
FF
FF
18
18
18
18
18
18
18
18
18
18
18
18
1F
0F
00
1C
1C
1C
04
04
0C
18
ENDCHAR
STARTCHAR 02C6
ENCODING 710
SWIDTH 327 0
DWIDTH 10 0
BBX 8 5 1 17
BITMAP
3C
3C
66
C3
C3
ENDCHAR
STARTCHAR 02C7
ENCODING 711
SWIDTH 327 0
DWIDTH 10 0
BBX 8 5 1 17
BITMAP
C3
66
7E
3C
38
ENDCHAR
STARTCHAR 02C9
ENCODING 713
SWIDTH 327 0
DWIDTH 10 0
BBX 8 2 1 19
BITMAP
FF
FF
ENDCHAR
STARTCHAR 02D8
ENCODING 728
SWIDTH 327 0
DWIDTH 10 0
BBX 10 4 0 18
BITMAP
C0C0
6180
7F80
3F00
ENDCHAR
STARTCHAR 02D9
ENCODING 729
SWIDTH 327 0
DWIDTH 10 0
BBX 3 3 4 19
BITMAP
E0
E0
E0
ENDCHAR
STARTCHAR 02DA
ENCODING 730
SWIDTH 327 0
DWIDTH 10 0
BBX 6 5 2 18
BITMAP
38
7C
CC
4C
78
ENDCHAR
STARTCHAR 02DB
ENCODING 731
SWIDTH 327 0
DWIDTH 10 0
BBX 6 6 2 -6
BITMAP
30
E0
C0
C0
E0
7C
ENDCHAR
STARTCHAR 02DC
ENCODING 732
SWIDTH 327 0
DWIDTH 10 0
BBX 10 3 0 19
BITMAP
78C0
7F80
C780
ENDCHAR
STARTCHAR 02DD
ENCODING 733
SWIDTH 327 0
DWIDTH 10 0
BBX 11 5 -1 17
BITMAP
1CE0
39C0
7180
6300
C600
ENDCHAR
STARTCHAR 0384
ENCODING 900
SWIDTH 327 0
DWIDTH 10 0
BBX 2 6 4 18
BITMAP
C0
C0
C0
C0
C0
C0
ENDCHAR
STARTCHAR 0385
ENCODING 901
SWIDTH 327 0
DWIDTH 10 0
BBX 8 8 1 19
BITMAP
18
18
18
18
18
FF
E7
E7
ENDCHAR
STARTCHAR 0386
ENCODING 902
SWIDTH 654 0
DWIDTH 20 0
BBX 19 22 1 0
BITMAP
61E000
61F000
61F000
63F000
63B800
473800
073800
071C00
0E1C00
0E1E00
0E0E00
1C0E00
1C0700
1FFF00
3FFF00
380380
700380
700380
7001C0
E001C0
E001C0
E000E0
ENDCHAR
STARTCHAR 0387
ENCODING 903
SWIDTH 294 0
DWIDTH 9 0
BBX 4 3 3 7
BITMAP
F0
F0
F0
ENDCHAR
STARTCHAR 0388
ENCODING 904
SWIDTH 785 0
DWIDTH 24 0
BBX 20 22 1 0
BITMAP
CFFFE0
CFFFE0
CFFFE0
CE0000
CE0000
CE0000
0E0000
0E0000
0E0000
0E0000
0FFFE0
0FFFE0
0E0000
0E0000
0E0000
0E0000
0E0000
0E0000
0E0000
0E0000
0FFFF0
0FFFF0
ENDCHAR
STARTCHAR 0389
ENCODING 905
SWIDTH 850 0
DWIDTH 26 0
BBX 21 22 1 0
BITMAP
CE0038
CE0038
CE0038
CE0038
CE0038
8E0038
0E0038
0E0038
0E0038
0E0038
0FFFF8
0FFFF8
0E0038
0E0038
0E0038
0E0038
0E0038
0E0038
0E0038
0E0038
0E0038
0E0038
ENDCHAR
STARTCHAR 038A
ENCODING 906
SWIDTH 392 0
DWIDTH 12 0
BBX 7 22 1 0
BITMAP
CE
CE
CE
CE
CE
CE
0E
0E
0E
0E
0E
0E
0E
0E
0E
0E
0E
0E
0E
0E
0E
0E
ENDCHAR
STARTCHAR 038C
ENCODING 908
SWIDTH 785 0
DWIDTH 24 0
BBX 24 22 -1 0
BITMAP
E07F00
E1FFE0
E3FFF0
E78078
4E003C
5E001C
1C000E
18000E
38000E
380007
380007
380007
380007
38000E
1C000E
1C000E
1E001C
0F003C
078078
03FFF0
01FFE0
007F00
ENDCHAR
STARTCHAR 038E
ENCODING 910
SWIDTH 850 0
DWIDTH 26 0
BBX 23 22 1 0
BITMAP
EE000E
EF001C
E7003C
C38038
C3C070
41C070
00E0E0
00F1E0
0071C0
003B80
003B80
001F00
001E00
000E00
000E00
000E00
000E00
000E00
000E00
000E00
000E00
000E00
ENDCHAR
STARTCHAR 038F
ENCODING 911
SWIDTH 752 0
DWIDTH 23 0
BBX 23 22 -1 0
BITMAP
E07F00
E1FFC0
E3FFE0
E780F0
4E0038
5C003C
1C001C
1C001C
38000E
38000E
38000E
38000E
18000C
1C001C
1C001C
0C0018
0E0038
070070
0380E0
3FE380
3FE3FE
3FE3FE
ENDCHAR
STARTCHAR 0390
ENCODING 912
SWIDTH 229 0
DWIDTH 7 0
BBX 8 27 -1 0
BITMAP
1C
1C
1C
1C
18
EB
E3
E3
00
00
00
1C
1C
1C
1C
1C
1C
1C
1C
1C
1C
1C
1C
1C
1C
1C
1C
ENDCHAR
STARTCHAR 0391
ENCODING 913
SWIDTH 654 0
DWIDTH 20 0
BBX 19 22 1 0
BITMAP
01E000
01F000
01F000
03F000
03B800
073800
073800
071C00
0E1C00
0E1E00
0E0E00
1C0E00
1C0700
1FFF00
3FFF00
380380
700380
700380
7001C0
E001C0
E001C0
E000E0
ENDCHAR
STARTCHAR 0392
ENCODING 914
SWIDTH 654 0
DWIDTH 20 0
BBX 17 22 2 0
BITMAP
FFF800
FFFC00
FFFE00
E00F00
E00700
E00700
E00700
E00700
E00E00
E07C00
FFF800
FFFE00
E00F00
E00380
E00380
E00380
E00380
E00380
E00700
E03F00
FFFE00
FFF800
ENDCHAR
STARTCHAR 0393
ENCODING 915
SWIDTH 556 0
DWIDTH 17 0
BBX 15 22 2 0
BITMAP
FFFE
FFFE
FFFE
E000
E000
E000
E000
E000
E000
E000
E000
E000
E000
E000
E000
E000
E000
E000
E000
E000
E000
E000
ENDCHAR
STARTCHAR 0394
ENCODING 916
SWIDTH 654 0
DWIDTH 20 0
BBX 21 22 0 0
BITMAP
00F000
00F000
00F800
01F800
01DC00
039C00
039C00
038E00
070E00
070700
0E0700
0E0700
0E0380
1C0380
1C01C0
3801C0
3801C0
7000E0
7000E0
700070
FFFFF0
FFFFF8
ENDCHAR
STARTCHAR 0395
ENCODING 917
SWIDTH 654 0
DWIDTH 20 0
BBX 16 22 3 0
BITMAP
FFFE
FFFE
FFFE
E000
E000
E000
E000
E000
E000
E000
FFFE
FFFE
E000
E000
E000
E000
E000
E000
E000
E000
FFFF
FFFF
ENDCHAR
STARTCHAR 0396
ENCODING 918
SWIDTH 621 0
DWIDTH 19 0
BBX 17 22 1 0
BITMAP
7FFF80
7FFF80
7FFF80
000F00
000E00
001C00
003C00
007800
007000
00E000
01E000
03C000
078000
070000
0E0000
1E0000
3C0000
780000
700000
E00000
FFFF80
FFFF80
ENDCHAR
STARTCHAR 0397
ENCODING 919
SWIDTH 720 0
DWIDTH 22 0
BBX 17 22 3 0
BITMAP
C00380
C00380
C00380
C00380
C00380
C00380
C00380
C00380
C00380
C00380
FFFF80
FFFF80
C00380
C00380
C00380
C00380
C00380
C00380
C00380
C00380
C00380
C00380
ENDCHAR
STARTCHAR 0398
ENCODING 920
SWIDTH 785 0
DWIDTH 24 0
BBX 22 22 1 0
BITMAP
01FE00
07FF80
0FFFC0
1E01E0
3800F0
780070
700038
700038
E00018
E0001C
E3FE1C
E3FE1C
E0001C
E00018
700038
700038
780070
3C00F0
1E01E0
0FFFC0
07FF80
01FC00
ENDCHAR
STARTCHAR 0399
ENCODING 921
SWIDTH 294 0
DWIDTH 9 0
BBX 3 22 3 0
BITMAP
E0
E0
E0
E0
E0
E0
E0
E0
E0
E0
E0
E0
E0
E0
E0
E0
E0
E0
E0
E0
E0
E0
ENDCHAR
STARTCHAR 039A
ENCODING 922
SWIDTH 654 0
DWIDTH 20 0
BBX 18 22 2 0
BITMAP
E003C0
E00700
E00E00
E01C00
E03800
E07000
E0E000
E1C000
E38000
E78000
EFC000
FDE000
F8E000
F07000
E03800
E03C00
E01C00
E00E00
E00F00
E00700
E00380
E003C0
ENDCHAR
STARTCHAR 039B
ENCODING 923
SWIDTH 654 0
DWIDTH 20 0
BBX 19 22 1 0
BITMAP
01E000
01F000
03F000
03F000
03B800
073800
073800
071C00
0E1C00
0E1C00
0E0E00
1C0E00
1C0F00
1C0700
380700
380780
780380
700380
7001C0
F001C0
E001C0
E000E0
ENDCHAR
STARTCHAR 039C
ENCODING 924
SWIDTH 818 0
DWIDTH 25 0
BBX 21 22 2 0
BITMAP
F00078
F80078
F800F8
F800F8
FC00D8
EC01D8
EC01D8
EE0198
E60398
E70398
E70318
E30718
E38718
E38618
E18E18
E1CE18
E1CC18
E0DC18
E0F818
E0F818
E07818
E07018
ENDCHAR
STARTCHAR 039D
ENCODING 925
SWIDTH 720 0
DWIDTH 22 0
BBX 18 22 2 0
BITMAP
F001C0
F001C0
F801C0
FC01C0
FC01C0
EE01C0
EF01C0
E701C0
E381C0
E3C1C0
E1C1C0
E0E1C0
E0F1C0
E071C0
E039C0
E039C0
E01DC0
E00FC0
E00FC0
E007C0
E003C0
E003C0
ENDCHAR
STARTCHAR 039E
ENCODING 926
SWIDTH 654 0
DWIDTH 20 0
BBX 16 22 2 0
BITMAP
FFFF
FFFF
FFFF
0000
0000
0000
0000
0000
0000
7FFE
7FFE
7FFE
0000
0000
0000
0000
0000
0000
0000
FFFF
FFFF
FFFF
ENDCHAR
STARTCHAR 039F
ENCODING 927
SWIDTH 785 0
DWIDTH 24 0
BBX 22 22 1 0
BITMAP
00FE00
07FF80
0FFFC0
1E01E0
3C00F0
780070
700038
700038
E00018
E0001C
E0001C
E0001C
E0001C
E00018
700038
700038
780070
3C00F0
1E01E0
0FFFC0
07FF80
01FC00
ENDCHAR
STARTCHAR 03A0
ENCODING 928
SWIDTH 720 0
DWIDTH 22 0
BBX 18 22 2 0
BITMAP
FFFFC0
FFFFC0
FFFFC0
E001C0
E001C0
E001C0
E001C0
E001C0
E001C0
E001C0
E001C0
E001C0
E001C0
E001C0
E001C0
E001C0
E001C0
E001C0
E001C0
E001C0
E001C0
E001C0
ENDCHAR
STARTCHAR 03A1
ENCODING 929
SWIDTH 654 0
DWIDTH 20 0
BBX 16 22 3 0
BITMAP
FFF0
FFFC
FFFE
E00E
E00F
E007
E007
E007
E00F
E01E
FFFC
FFF8
FFC0
E000
E000
E000
E000
E000
E000
E000
E000
E000
ENDCHAR
STARTCHAR 03A3
ENCODING 931
SWIDTH 621 0
DWIDTH 19 0
BBX 17 22 1 0
BITMAP
FFFF00
FFFF00
FFFF00
780000
3C0000
1E0000
0F0000
078000
01C000
00E000
007000
00F000
01E000
03C000
078000
0F0000
1E0000
3C0000
780000
F00000
FFFF80
FFFF80
ENDCHAR
STARTCHAR 03A4
ENCODING 932
SWIDTH 621 0
DWIDTH 19 0
BBX 17 22 1 0
BITMAP
FFFF80
FFFF80
FFFF80
01C000
01C000
01C000
01C000
01C000
01C000
01C000
01C000
01C000
01C000
01C000
01C000
01C000
01C000
01C000
01C000
01C000
01C000
01C000
ENDCHAR
STARTCHAR 03A5
ENCODING 933
SWIDTH 654 0
DWIDTH 20 0
BBX 19 22 1 0
BITMAP
E001E0
F001C0
7003C0
380380
3C0700
1C0700
0E0E00
0E1C00
071C00
07B800
03B800
01F000
01E000
00E000
00E000
00E000
00E000
00E000
00E000
00E000
00E000
00E000
ENDCHAR
STARTCHAR 03A6
ENCODING 934
SWIDTH 785 0
DWIDTH 24 0
BBX 20 22 2 0
BITMAP
007000
007000
007000
07FE00
1FFF80
3E73C0
3871E0
7070E0
707070
E07070
E07070
E07070
E07070
707070
7070E0
3871E0
3E73C0
1FFF80
07FE00
007000
007000
007000
ENDCHAR
STARTCHAR 03A7
ENCODING 935
SWIDTH 654 0
DWIDTH 20 0
BBX 18 22 1 0
BITMAP
F001C0
780380
380780
1C0700
1E0E00
0E1E00
071C00
07B800
03F000
01F000
01E000
01F000
03F000
03B800
073C00
0E1C00
0E0E00
1C0F00
380700
780380
7003C0
E001C0
ENDCHAR
STARTCHAR 03A8
ENCODING 936
SWIDTH 850 0
DWIDTH 26 0
BBX 22 22 2 0
BITMAP
E0701C
E0701C
E0701C
E0701C
E0701C
E0701C
E0701C
E0701C
E07018
E07018
E07018
E07038
707038
707078
3C70F0
3FFFE0
0FFFC0
01FE00
007000
007000
007000
007000
ENDCHAR
STARTCHAR 03A9
ENCODING 937
SWIDTH 752 0
DWIDTH 23 0
BBX 21 22 1 0
BITMAP
01FC00
07FF00
0FFF80
1E03C0
3800E0
7000F0
700070
700070
E00030
E00038
E00038
E00038
600030
700070
700070
700060
3800E0
1C01C0
0E0380
FF8E00
FF8FF8
FF8FF8
ENDCHAR
STARTCHAR 03AA
ENCODING 938
SWIDTH 294 0
DWIDTH 9 0
BBX 8 28 0 0
BITMAP
E7
E7
E7
00
00
00
1C
1C
1C
1C
1C
1C
1C
1C
1C
1C
1C
1C
1C
1C
1C
1C
1C
1C
1C
1C
1C
1C
ENDCHAR
STARTCHAR 03AB
ENCODING 939
SWIDTH 654 0
DWIDTH 20 0
BBX 19 28 1 0
BITMAP
073800
073800
073800
000000
000000
000000
E001E0
F001C0
7003C0
380380
3C0700
1C0700
0E0E00
0E1C00
071C00
07B800
03B800
01F000
01E000
00E000
00E000
00E000
00E000
00E000
00E000
00E000
00E000
00E000
ENDCHAR
STARTCHAR 03AC
ENCODING 940
SWIDTH 589 0
DWIDTH 18 0
BBX 18 23 0 0
BITMAP
038000
038000
038000
030000
010000
010000
000000
07C1C0
1FF180
3EFB80
783B80
701F00
601F00
E00E00
E00E00
E00E00
E00F00
E01F00
701B00
783B80
3EF180
1FE1C0
07C1C0
ENDCHAR
STARTCHAR 03AD
ENCODING 941
SWIDTH 458 0
DWIDTH 14 0
BBX 13 23 1 0
BITMAP
0600
0600
0600
0600
0600
0400
0000
1F80
7FC0
79E0
E070
E030
E000
7800
3F00
7F00
E000
C038
C030
E070
F8E0
7FC0
1F80
ENDCHAR
STARTCHAR 03AE
ENCODING 942
SWIDTH 556 0
DWIDTH 17 0
BBX 13 31 2 -7
BITMAP
0300
0300
0300
0300
0300
0300
0000
0000
C7C0
DFF0
D8F8
F038
E038
E038
E038
E038
E038
E038
E038
E038
E038
E038
E038
E038
0038
0038
0038
0038
0038
0038
0038
ENDCHAR
STARTCHAR 03AF
ENCODING 943
SWIDTH 229 0
DWIDTH 7 0
BBX 3 24 2 0
BITMAP
E0
E0
E0
E0
C0
40
00
00
E0
E0
E0
E0
E0
E0
E0
E0
E0
E0
E0
E0
E0
E0
E0
E0
ENDCHAR
STARTCHAR 03B0
ENCODING 944
SWIDTH 556 0
DWIDTH 17 0
BBX 13 27 2 0
BITMAP
0700
0700
0700
0700
0600
3AC0
38C0
38C0
0000
0000
0000
E038
E038
E038
E038
E038
E038
E038
E038
E038
E038
E038
E038
E030
78F0
3FE0
1F80
ENDCHAR
STARTCHAR 03B1
ENCODING 945
SWIDTH 589 0
DWIDTH 18 0
BBX 17 16 1 0
BITMAP
0F8380
1FE300
3DF700
707700
603E00
E03E00
E01E00
E01C00
E01C00
E01E00
E03E00
603600
707700
3DE300
3FC380
0F0380
ENDCHAR
STARTCHAR 03B2
ENCODING 946
SWIDTH 589 0
DWIDTH 18 0
BBX 14 28 2 -6
BITMAP
0F80
3FE0
78F0
7070
6038
E038
E038
E070
E1F0
E3C0
E3F0
E038
E01C
E01C
E01C
E01C
E01C
E01C
E038
FCF8
FFF0
EFC0
E000
E000
E000
E000
E000
E000
ENDCHAR
STARTCHAR 03B3
ENCODING 947
SWIDTH 490 0
DWIDTH 15 0
BBX 14 23 1 -7
BITMAP
C01C
E038
E038
7038
7070
3070
3860
38E0
18E0
1CC0
1DC0
0FC0
0F80
0780
0700
0700
0700
0700
0700
0700
0700
0700
0700
ENDCHAR
STARTCHAR 03B4
ENCODING 948
SWIDTH 556 0
DWIDTH 17 0
BBX 15 22 1 0
BITMAP
3FF8
3FF8
3C00
0E00
0780
03C0
0FE0
1FF8
3838
701C
700C
600E
E00E
E00E
E00E
E00E
600C
701C
781C
3EF8
1FF0
07C0
ENDCHAR
STARTCHAR 03B5
ENCODING 949
SWIDTH 458 0
DWIDTH 14 0
BBX 13 16 1 0
BITMAP
1F80
7FC0
79E0
E070
E030
E000
7800
3F00
7F00
E000
C038
C030
E070
F8E0
7FC0
1F80
ENDCHAR
STARTCHAR 03B6
ENCODING 950
SWIDTH 425 0
DWIDTH 13 0
BBX 13 29 1 -7
BITMAP
3FF0
3FF0
00F0
01C0
0380
0700
0E00
1C00
3800
3800
7000
7000
6000
E000
E000
E000
E000
E000
7000
7800
3FE0
1FF0
0078
0038
0038
0038
0030
0070
0070
ENDCHAR
STARTCHAR 03B7
ENCODING 951
SWIDTH 556 0
DWIDTH 17 0
BBX 13 23 2 -7
BITMAP
C7C0
DFF0
D8F8
F038
E038
E038
E038
E038
E038
E038
E038
E038
E038
E038
E038
E038
0038
0038
0038
0038
0038
0038
0038
ENDCHAR
STARTCHAR 03B8
ENCODING 952
SWIDTH 556 0
DWIDTH 17 0
BBX 15 23 1 0
BITMAP
0FE0
1FF0
3878
3018
701C
701C
600C
600C
600C
600E
FFFE
FFFE
E00E
600E
600C
600C
600C
701C
701C
3838
3C78
1FF0
07C0
ENDCHAR
STARTCHAR 03B9
ENCODING 953
SWIDTH 229 0
DWIDTH 7 0
BBX 3 16 2 0
BITMAP
E0
E0
E0
E0
E0
E0
E0
E0
E0
E0
E0
E0
E0
E0
E0
E0
ENDCHAR
STARTCHAR 03BA
ENCODING 954
SWIDTH 490 0
DWIDTH 15 0
BBX 13 16 2 0
BITMAP
C070
C0E0
C1C0
C380
C700
CE00
DE00
FF00
F780
E380
C1C0
C1C0
C0E0
C070
C070
C038
ENDCHAR
STARTCHAR 03BB
ENCODING 955
SWIDTH 490 0
DWIDTH 15 0
BBX 13 22 1 0
BITMAP
1C00
1C00
0C00
0E00
0E00
0700
0700
0700
0780
0F80
0D80
1DC0
1DC0
18E0
38E0
38E0
3070
7070
7030
6038
E038
E018
ENDCHAR
STARTCHAR 03BC
ENCODING 956
SWIDTH 589 0
DWIDTH 18 0
BBX 13 22 2 -6
BITMAP
E018
E018
E018
E018
E018
E018
E018
E018
E018
E018
E038
E038
F078
F8F8
FFD8
FF00
E000
E000
E000
E000
E000
E000
ENDCHAR
STARTCHAR 03BD
ENCODING 957
SWIDTH 490 0
DWIDTH 15 0
BBX 14 16 1 0
BITMAP
C01C
E018
E038
6038
7070
7070
3060
38E0
38E0
18C0
1DC0
1D80
0D80
0F80
0F00
0700
ENDCHAR
STARTCHAR 03BE
ENCODING 958
SWIDTH 458 0
DWIDTH 14 0
BBX 13 28 1 -6
BITMAP
FFF0
FFF0
1E00
3800
7000
7000
7000
3800
3C00
1FE0
0FE0
3C00
7000
E000
E000
E000
E000
E000
F000
7F00
3FF0
0FF8
0038
0038
0038
0038
0030
0070
ENDCHAR
STARTCHAR 03BF
ENCODING 959
SWIDTH 556 0
DWIDTH 17 0
BBX 15 16 1 0
BITMAP
07C0
1FF0
3EF8
703C
701C
600E
E00E
E00E
E00E
E00E
600E
701C
781C
3EF8
1FF0
07C0
ENDCHAR
STARTCHAR 03C0
ENCODING 960
SWIDTH 687 0
DWIDTH 21 0
BBX 17 16 2 0
BITMAP
FFFF80
FFFF80
380E00
380E00
380E00
380E00
380E00
380E00
380E00
380E00
380E00
380E00
380E00
380E00
380E00
380E00
ENDCHAR
STARTCHAR 03C1
ENCODING 961
SWIDTH 556 0
DWIDTH 17 0
BBX 14 22 2 -6
BITMAP
0FC0
1FF0
3CF0
7038
E01C
E01C
E01C
C01C
C01C
E01C
E01C
E01C
F038
FCF0
DFE0
C7C0
C000
C000
C000
C000
C000
C000
ENDCHAR
STARTCHAR 03C2
ENCODING 962
SWIDTH 490 0
DWIDTH 15 0
BBX 14 23 1 -7
BITMAP
07C0
1FF0
3EF8
7038
601C
E01C
E000
C000
E000
E000
E000
7000
7800
3E00
1F80
07F0
00F8
0038
0018
0038
0038
0030
0070
ENDCHAR
STARTCHAR 03C3
ENCODING 963
SWIDTH 621 0
DWIDTH 19 0
BBX 16 16 2 0
BITMAP
0FFF
1FFF
3CF8
7038
E01C
E01C
E00C
E00C
E00C
E00C
E01C
E01C
7038
7CF8
3FF0
0FC0
ENDCHAR
STARTCHAR 03C4
ENCODING 964
SWIDTH 392 0
DWIDTH 12 0
BBX 14 16 -1 0
BITMAP
FFFC
FFFC
0300
0300
0300
0300
0300
0300
0300
0300
0300
0300
0300
0300
0300
0300
ENDCHAR
STARTCHAR 03C5
ENCODING 965
SWIDTH 556 0
DWIDTH 17 0
BBX 13 16 2 0
BITMAP
E038
E038
E038
E038
E038
E038
E038
E038
E038
E038
E038
E038
E030
78F0
3FE0
1F80
ENDCHAR
STARTCHAR 03C6
ENCODING 966
SWIDTH 654 0
DWIDTH 20 0
BBX 18 23 1 -7
BITMAP
01F000
19FC00
39DE00
71C700
71C380
E1C380
E1C180
E1C1C0
E1C1C0
E1C1C0
E1C180
E1C380
71C380
71C700
3DCF00
1FFE00
0FF800
01C000
01C000
01C000
01C000
01C000
01C000
ENDCHAR
STARTCHAR 03C7
ENCODING 967
SWIDTH 523 0
DWIDTH 16 0
BBX 14 23 1 -7
BITMAP
E018
7038
7030
3870
3860
1CE0
1CC0
0FC0
0FC0
0780
0780
0780
0780
0FC0
0FC0
1CE0
1CE0
3870
3870
7038
7038
E01C
E01C
ENDCHAR
STARTCHAR 03C8
ENCODING 968
SWIDTH 720 0
DWIDTH 22 0
BBX 17 23 3 -7
BITMAP
C18380
C18380
C18380
C18380
C18380
C18380
C18380
C18380
C18380
C18380
C18380
E18300
E18700
718F00
7FFE00
1FF800
03C000
018000
018000
018000
018000
018000
018000
ENDCHAR
STARTCHAR 03C9
ENCODING 969
SWIDTH 785 0
DWIDTH 24 0
BBX 18 16 3 0
BITMAP
1C0E00
380700
700380
600380
E0C1C0
E0C1C0
E0C1C0
C0C1C0
C0C1C0
C0C1C0
E0C1C0
E0C1C0
E1E180
7BF780
3F3F00
1E1E00
ENDCHAR
STARTCHAR 03CA
ENCODING 970
SWIDTH 229 0
DWIDTH 7 0
BBX 8 22 -1 0
BITMAP
E7
E7
E7
00
00
00
1C
1C
1C
1C
1C
1C
1C
1C
1C
1C
1C
1C
1C
1C
1C
1C
ENDCHAR
STARTCHAR 03CB
ENCODING 971
SWIDTH 556 0
DWIDTH 17 0
BBX 13 22 2 0
BITMAP
39C0
39C0
39C0
0000
0000
0000
E038
E038
E038
E038
E038
E038
E038
E038
E038
E038
E038
E038
E030
78F0
3FE0
1F80
ENDCHAR
STARTCHAR 03CC
ENCODING 972
SWIDTH 556 0
DWIDTH 17 0
BBX 15 23 1 0
BITMAP
0380
0380
0380
0300
0100
0100
0000
07C0
1FF0
3EF8
703C
701C
600E
E00E
E00E
E00E
E00E
600E
701C
781C
3EF8
1FF0
07C0
ENDCHAR
STARTCHAR 03CD
ENCODING 973
SWIDTH 556 0
DWIDTH 17 0
BBX 13 24 2 0
BITMAP
0700
0700
0700
0700
0600
0200
0000
0000
E038
E038
E038
E038
E038
E038
E038
E038
E038
E038
E038
E038
E030
78F0
3FE0
1F80
ENDCHAR
STARTCHAR 03CE
ENCODING 974
SWIDTH 785 0
DWIDTH 24 0
BBX 18 24 3 0
BITMAP
00C000
00C000
00C000
00C000
00C000
00C000
000000
000000
1C0E00
380700
700380
600380
E0C1C0
E0C1C0
E0C1C0
C0C1C0
C0C1C0
C0C1C0
E0C1C0
E0C1C0
E1E180
7BF780
3F3F00
1E1E00
ENDCHAR
STARTCHAR 03D1
ENCODING 977
SWIDTH 556 0
DWIDTH 17 0
BBX 16 23 0 0
BITMAP
07E0
0FF0
1C38
181C
380C
380C
180E
1C0E
1E0E
0FCE
03FF
007F
000E
F00E
F00E
700E
300E
300C
381C
381C
1E78
0FF0
07C0
ENDCHAR
STARTCHAR 03D5
ENCODING 981
SWIDTH 556 0
DWIDTH 17 0
BBX 17 27 0 -7
BITMAP
01C000
01C000
01C000
01C000
0FF800
1FFC00
39CE00
71C700
71C700
61C380
61C380
E1C380
E1C380
E1C380
61C380
71C300
71C700
39CE00
3FFE00
0FF800
03E000
01C000
01C000
01C000
01C000
01C000
01C000
ENDCHAR
STARTCHAR 03D6
ENCODING 982
SWIDTH 785 0
DWIDTH 24 0
BBX 19 16 2 0
BITMAP
FFF800
FFFE00
1C0F80
3803C0
7001C0
7000E0
6000E0
E060E0
E06060
E06060
60E0E0
70E0E0
70F0C0
3BFBC0
1FBF80
0F0F00
ENDCHAR
STARTCHAR 0400
ENCODING 1024
SWIDTH 654 0
DWIDTH 20 0
BBX 16 28 3 0
BITMAP
0F00
0300
0180
00C0
0000
0000
FFFE
FFFE
FFFE
E000
E000
E000
E000
E000
E000
E000
FFFE
FFFE
E000
E000
E000
E000
E000
E000
E000
E000
FFFF
FFFF
ENDCHAR
STARTCHAR 0401
ENCODING 1025
SWIDTH 654 0
DWIDTH 20 0
BBX 16 28 3 0
BITMAP
1CE0
1CE0
1CE0
0000
0000
0000
FFFE
FFFE
FFFE
C000
C000
C000
C000
C000
C000
C000
FFFE
FFFE
C000
C000
C000
C000
C000
C000
C000
C000
FFFF
FFFF
ENDCHAR
STARTCHAR 0402
ENCODING 1026
SWIDTH 850 0
DWIDTH 26 0
BBX 23 22 1 0
BITMAP
FFFE00
FFFE00
FFFE00
01C000
01C000
01C000
01C000
01CFE0
01DFF8
01FFFC
01E01C
01C00E
01C00E
01C00E
01C00E
01C00E
01C00E
01C00E
01C00E
01C3FC
01C3F8
01C3F0
ENDCHAR
STARTCHAR 0403
ENCODING 1027
SWIDTH 556 0
DWIDTH 17 0
BBX 14 28 3 0
BITMAP
0380
0700
0E00
0C00
0000
0000
FFFC
FFFC
FFFC
E000
E000
E000
E000
E000
E000
E000
E000
E000
E000
E000
E000
E000
E000
E000
E000
E000
E000
E000
ENDCHAR
STARTCHAR 0404
ENCODING 1028
SWIDTH 720 0
DWIDTH 22 0
BBX 22 22 0 0
BITMAP
00FE00
07FF80
0FFFC0
1E01E0
3C0070
380038
700030
700000
700000
7FF800
FFF800
FFF800
600000
700000
70001C
700038
380038
3C0070
1E01E0
0FFFC0
07FF80
00FE00
ENDCHAR
STARTCHAR 0405
ENCODING 1029
SWIDTH 654 0
DWIDTH 20 0
BBX 17 22 2 0
BITMAP
07F000
1FFC00
3E7E00
700F00
E00700
E00700
E00700
F00000
780000
7F8000
1FF800
03FE00
003F00
000780
000380
C00380
E00380
E00380
700700
7FFE00
3FFC00
07F000
ENDCHAR
STARTCHAR 0406
ENCODING 1030
SWIDTH 294 0
DWIDTH 9 0
BBX 3 22 3 0
BITMAP
E0
E0
E0
E0
E0
E0
E0
E0
E0
E0
E0
E0
E0
E0
E0
E0
E0
E0
E0
E0
E0
E0
ENDCHAR
STARTCHAR 0407
ENCODING 1031
SWIDTH 294 0
DWIDTH 9 0
BBX 8 28 0 0
BITMAP
E7
E7
E7
00
00
00
1C
1C
1C
1C
1C
1C
1C
1C
1C
1C
1C
1C
1C
1C
1C
1C
1C
1C
1C
1C
1C
1C
ENDCHAR
STARTCHAR 0408
ENCODING 1032
SWIDTH 490 0
DWIDTH 15 0
BBX 13 22 0 0
BITMAP
0038
0038
0038
0038
0038
0038
0038
0038
0038
0038
0038
0038
0038
0038
E038
E038
E038
7038
7070
7DF0
3FE0
0F80
ENDCHAR
STARTCHAR 0409
ENCODING 1033
SWIDTH 1047 0
DWIDTH 32 0
BBX 31 22 1 0
BITMAP
1FFFC000
1FFFC000
1FFFC000
1C01C000
1C01C000
1C01C000
1C01C000
1C01C000
1C01C000
1C01C000
1C01FFF0
1C01FFF8
1C01C03C
1C01C01C
1C01C01C
1C01C00E
1C01C00E
1C01C01C
3801C01C
F801C1F8
F001FFF8
E001FFE0
ENDCHAR
STARTCHAR 040A
ENCODING 1034
SWIDTH 1014 0
DWIDTH 31 0
BBX 28 22 2 0
BITMAP
E01C0000
E01C0000
E01C0000
E01C0000
E01C0000
E01C0000
E01C0000
E01C0000
E01C0000
E01C0000
FFFFFF80
FFFFFFE0
E01C01E0
E01C0070
E01C0070
E01C0070
E01C0070
E01C0070
E01C00F0
E01C07E0
E01FFFC0
E01FFF00
ENDCHAR
STARTCHAR 040B
ENCODING 1035
SWIDTH 850 0
DWIDTH 26 0
BBX 22 22 1 0
BITMAP
FFFF00
FFFF00
FFFF00
01C000
01C000
01C000
01C000
01CFE0
01DFF0
01FFF8
01E03C
01C01C
01C01C
01C01C
01C01C
01C01C
01C01C
01C01C
01C01C
01C01C
01C01C
01C01C
ENDCHAR
STARTCHAR 040C
ENCODING 1036
SWIDTH 589 0
DWIDTH 18 0
BBX 14 28 2 0
BITMAP
01E0
0380
0300
0600
0000
0000
E038
E070
E070
E0E0
E1E0
E1C0
E380
E380
E700
FF00
FE00
FF00
E780
E380
E1C0
E1C0
E0E0
E070
E070
E038
E01C
E01C
ENDCHAR
STARTCHAR 040D
ENCODING 1037
SWIDTH 720 0
DWIDTH 22 0
BBX 18 28 2 0
BITMAP
038000
01C000
00E000
006000
000000
000000
E001C0
E001C0
E001C0
E003C0
E007C0
E00FC0
E01FC0
E03DC0
E079C0
E0F1C0
E0E1C0
E1C1C0
E381C0
E781C0
EF01C0
FE01C0
FC01C0
F801C0
F001C0
E001C0
E001C0
E001C0
ENDCHAR
STARTCHAR 040E
ENCODING 1038
SWIDTH 621 0
DWIDTH 19 0
BBX 18 28 1 0
BITMAP
0C1800
0E3800
07F000
03E000
000000
000000
E001C0
F003C0
700380
780780
380700
380700
1C0E00
1C0E00
0E1C00
0E1C00
0F3C00
073800
073800
03F000
03F000
01E000
01E000
00C000
01C000
1FC000
1F8000
1F0000
ENDCHAR
STARTCHAR 040F
ENCODING 1039
SWIDTH 720 0
DWIDTH 22 0
BBX 18 27 2 -5
BITMAP
E001C0
E001C0
E001C0
E001C0
E001C0
E001C0
E001C0
E001C0
E001C0
E001C0
E001C0
E001C0
E001C0
E001C0
E001C0
E001C0
E001C0
E001C0
E001C0
E001C0
FFFFC0
FFFFC0
00C000
00C000
00C000
00C000
00C000
ENDCHAR
STARTCHAR 0410
ENCODING 1040
SWIDTH 654 0
DWIDTH 20 0
BBX 19 22 1 0
BITMAP
01E000
01F000
01F000
03F000
03B800
073800
073800
071C00
0E1C00
0E1C00
0C0E00
1C0E00
1C0F00
1FFF00
3FFF00
380780
700380
700380
7001C0
E001C0
E001C0
E000E0
ENDCHAR
STARTCHAR 0411
ENCODING 1041
SWIDTH 654 0
DWIDTH 20 0
BBX 17 22 2 0
BITMAP
FFFE00
FFFE00
FFFE00
E00000
E00000
E00000
E00000
E00000
E00000
E00000
FFFC00
FFFE00
E00F00
E00780
E00380
E00380
E00380
E00380
E00700
E03F00
FFFE00
FFF800
ENDCHAR
STARTCHAR 0412
ENCODING 1042
SWIDTH 654 0
DWIDTH 20 0
BBX 17 22 2 0
BITMAP
FFF800
FFFC00
FFFE00
E00F00
E00700
E00700
E00700
E00700
E00E00
E07C00
FFF800
FFFE00
E00F00
E00380
E00380
E00380
E00380
E00380
E00780
E03F00
FFFE00
FFF800
ENDCHAR
STARTCHAR 0413
ENCODING 1043
SWIDTH 556 0
DWIDTH 17 0
BBX 13 22 3 0
BITMAP
FFF8
FFF8
FFF8
C000
C000
C000
C000
C000
C000
C000
C000
C000
C000
C000
C000
C000
C000
C000
C000
C000
C000
C000
ENDCHAR
STARTCHAR 0414
ENCODING 1044
SWIDTH 687 0
DWIDTH 21 0
BBX 20 27 0 -5
BITMAP
03FFE0
03FFE0
03FFE0
0380E0
0380E0
0380E0
0380E0
0380E0
0380E0
0380E0
0380E0
0380E0
0380E0
0300E0
0700E0
0700E0
0700E0
0E00E0
1C00E0
F800E0
FFFFF0
FFFFF0
E00070
E00070
E00070
E00070
E00070
ENDCHAR
STARTCHAR 0415
ENCODING 1045
SWIDTH 654 0
DWIDTH 20 0
BBX 16 22 3 0
BITMAP
FFFE
FFFE
FFFE
C000
C000
C000
C000
C000
C000
C000
FFFE
FFFE
C000
C000
C000
C000
C000
C000
C000
C000
FFFF
FFFF
ENDCHAR
STARTCHAR 0416
ENCODING 1046
SWIDTH 916 0
DWIDTH 28 0
BBX 28 22 0 0
BITMAP
700700E0
380701C0
3C0703C0
1C070380
0E070700
0F070700
07070E00
03871E00
03871C00
01FFF800
01FFF800
01FFFC00
03871C00
07070E00
07070700
0E070700
1C070380
1C0703C0
380701C0
700700E0
700700F0
E0070070
ENDCHAR
STARTCHAR 0417
ENCODING 1047
SWIDTH 589 0
DWIDTH 18 0
BBX 15 22 2 0
BITMAP
0FC0
1FF0
3FF8
7038
701C
E01C
E01C
001C
0038
03F0
03E0
03F8
003C
001C
000E
E00E
E00E
E01C
701C
7FF8
3FF0
0FC0
ENDCHAR
STARTCHAR 0418
ENCODING 1048
SWIDTH 720 0
DWIDTH 22 0
BBX 18 22 2 0
BITMAP
E001C0
E001C0
E001C0
E003C0
E007C0
E00FC0
E01FC0
E03DC0
E079C0
E0F1C0
E0E1C0
E1C1C0
E381C0
E781C0
EF01C0
FE01C0
FC01C0
F801C0
F001C0
E001C0
E001C0
E001C0
ENDCHAR
STARTCHAR 0419
ENCODING 1049
SWIDTH 720 0
DWIDTH 22 0
BBX 18 28 2 0
BITMAP
0C0800
061800
07F800
03E000
000000
000000
E001C0
E001C0
E001C0
E003C0
E007C0
E00FC0
E01FC0
E03DC0
E079C0
E0F1C0
E0E1C0
E1C1C0
E381C0
E781C0
EF01C0
FE01C0
FC01C0
F801C0
F001C0
E001C0
E001C0
E001C0
ENDCHAR
STARTCHAR 041A
ENCODING 1050
SWIDTH 589 0
DWIDTH 18 0
BBX 15 22 2 0
BITMAP
E038
E070
E070
E0E0
E1E0
E1C0
E380
E380
E700
FF00
FE00
FF00
E780
E380
E1C0
E1E0
E0E0
E070
E078
E038
E01C
E01E
ENDCHAR
STARTCHAR 041B
ENCODING 1051
SWIDTH 654 0
DWIDTH 20 0
BBX 19 22 0 0
BITMAP
0FFFE0
0FFFE0
0FFFE0
0E00E0
0E00E0
0E00E0
0E00E0
0E00E0
0E00E0
0E00E0
0E00E0
0E00E0
0E00E0
0E00E0
0E00E0
0C00E0
1C00E0
1C00E0
3C00E0
F800E0
F000E0
E000E0
ENDCHAR
STARTCHAR 041C
ENCODING 1052
SWIDTH 818 0
DWIDTH 25 0
BBX 21 22 2 0
BITMAP
F00078
F80078
F800F8
F800F8
FC00D8
EC01D8
EC01D8
EE0198
E60398
E60398
E70318
E30718
E38618
E38618
E18E18
E1CC18
E1CC18
E0DC18
E0F818
E0F818
E07818
E07018
ENDCHAR
STARTCHAR 041D
ENCODING 1053
SWIDTH 720 0
DWIDTH 22 0
BBX 18 22 2 0
BITMAP
E001C0
E001C0
E001C0
E001C0
E001C0
E001C0
E001C0
E001C0
E001C0
E001C0
FFFFC0
FFFFC0
E001C0
E001C0
E001C0
E001C0
E001C0
E001C0
E001C0
E001C0
E001C0
E001C0
ENDCHAR
STARTCHAR 041E
ENCODING 1054
SWIDTH 785 0
DWIDTH 24 0
BBX 22 22 1 0
BITMAP
00FE00
07FF80
0FFFC0
1E01E0
3800F0
780070
700038
700038
E00018
E0001C
E0001C
E0001C
E0001C
E00018
700038
700038
780070
3C00F0
1E01E0
0FFFC0
07FF80
01FC00
ENDCHAR
STARTCHAR 041F
ENCODING 1055
SWIDTH 720 0
DWIDTH 22 0
BBX 18 22 2 0
BITMAP
FFFFC0
FFFFC0
FFFFC0
E001C0
E001C0
E001C0
E001C0
E001C0
E001C0
E001C0
E001C0
E001C0
E001C0
E001C0
E001C0
E001C0
E001C0
E001C0
E001C0
E001C0
E001C0
E001C0
ENDCHAR
STARTCHAR 0420
ENCODING 1056
SWIDTH 654 0
DWIDTH 20 0
BBX 16 22 3 0
BITMAP
FFF0
FFFC
FFFE
E00E
E007
E007
E007
E007
E00F
E01E
FFFC
FFF8
FFC0
E000
E000
E000
E000
E000
E000
E000
E000
E000
ENDCHAR
STARTCHAR 0421
ENCODING 1057
SWIDTH 720 0
DWIDTH 22 0
BBX 20 22 1 0
BITMAP
01FC00
07FF00
0FFFC0
1E01C0
3800E0
3800E0
7000E0
700000
600000
E00000
E00000
E00000
E00000
600000
700070
700070
7800E0
3C00E0
1E03C0
0FFF80
07FF00
01FC00
ENDCHAR
STARTCHAR 0422
ENCODING 1058
SWIDTH 621 0
DWIDTH 19 0
BBX 17 22 1 0
BITMAP
FFFF80
FFFF80
FFFF80
01C000
01C000
01C000
01C000
01C000
01C000
01C000
01C000
01C000
01C000
01C000
01C000
01C000
01C000
01C000
01C000
01C000
01C000
01C000
ENDCHAR
STARTCHAR 0423
ENCODING 1059
SWIDTH 621 0
DWIDTH 19 0
BBX 18 22 1 0
BITMAP
E001C0
F003C0
700380
780780
380700
380700
1C0E00
1C0E00
0E1C00
0E1C00
0F3C00
073800
073800
03F000
03F000
01E000
01E000
00C000
01C000
1FC000
1F8000
1F0000
ENDCHAR
STARTCHAR 0424
ENCODING 1060
SWIDTH 752 0
DWIDTH 23 0
BBX 21 22 1 0
BITMAP
007000
007000
007000
07FF00
1FFFC0
3E73E0
7870F0
707078
E07038
E07038
E07038
E07038
E07038
E07038
707078
7870F0
3E73E0
1FFFC0
07FF00
007000
007000
007000
ENDCHAR
STARTCHAR 0425
ENCODING 1061
SWIDTH 654 0
DWIDTH 20 0
BBX 18 22 1 0
BITMAP
F001C0
780380
380780
3C0700
1E0E00
0E1E00
071C00
07B800
03F000
01F000
01E000
01E000
03F000
03B800
073C00
0E1C00
1E0E00
1C0F00
380700
780380
7003C0
E001C0
ENDCHAR
STARTCHAR 0426
ENCODING 1062
SWIDTH 752 0
DWIDTH 23 0
BBX 18 27 3 -5
BITMAP
C00380
C00380
C00380
C00380
C00380
C00380
C00380
C00380
C00380
C00380
C00380
C00380
C00380
C00380
C00380
C00380
C00380
C00380
C00380
C00380
FFFFC0
FFFFC0
0000C0
0000C0
0000C0
0000C0
0000C0
ENDCHAR
STARTCHAR 0427
ENCODING 1063
SWIDTH 654 0
DWIDTH 20 0
BBX 17 22 1 0
BITMAP
E00380
E00380
E00380
E00380
E00380
E00380
E00380
E00380
E00380
E00380
700380
7C0780
3FFF80
1FFF80
000380
000380
000380
000380
000380
000380
000380
000380
ENDCHAR
STARTCHAR 0428
ENCODING 1064
SWIDTH 916 0
DWIDTH 28 0
BBX 24 22 2 0
BITMAP
C01803
C01803
C01803
C01803
C01803
C01803
C01803
C01803
C01803
C01803
C01803
C01803
C01803
C01803
C01803
C01803
C01803
C01803
C01803
C01803
FFFFFF
FFFFFF
ENDCHAR
STARTCHAR 0429
ENCODING 1065
SWIDTH 949 0
DWIDTH 29 0
BBX 27 27 2 -5
BITMAP
C01C0380
C01C0380
C01C0380
C01C0380
C01C0380
C01C0380
C01C0380
C01C0380
C01C0380
C01C0380
C01C0380
C01C0380
C01C0380
C01C0380
C01C0380
C01C0380
C01C0380
C01C0380
C01C0380
FFFFFFE0
FFFFFFE0
FFFFFFE0
000000E0
000000E0
000000E0
000000E0
000000E0
ENDCHAR
STARTCHAR 042A
ENCODING 1066
SWIDTH 785 0
DWIDTH 24 0
BBX 24 22 -1 0
BITMAP
FFE000
FFE000
FFE000
00E000
00E000
00E000
00E000
00E000
00E000
00E000
00FFFC
00FFFE
00E01F
00E007
00E007
00E007
00E007
00E007
00E00F
00E07E
00FFFC
00FFF8
ENDCHAR
STARTCHAR 042B
ENCODING 1067
SWIDTH 883 0
DWIDTH 27 0
BBX 21 22 3 0
BITMAP
C00018
C00018
C00018
C00018
C00018
C00018
C00018
C00018
C00018
C00018
FFFC18
FFFE18
C01E18
C00718
C00718
C00718
C00718
C00718
C00F18
C07E18
FFFC18
FFF018
ENDCHAR
STARTCHAR 042C
ENCODING 1068
SWIDTH 654 0
DWIDTH 20 0
BBX 17 22 2 0
BITMAP
E00000
E00000
E00000
E00000
E00000
E00000
E00000
E00000
E00000
E00000
FFFC00
FFFF00
E00F00
E00780
E00380
E00380
E00380
E00380
E00700
E03F00
FFFE00
FFF800
ENDCHAR
STARTCHAR 042D
ENCODING 1069
SWIDTH 720 0
DWIDTH 22 0
BBX 22 22 0 0
BITMAP
01FC00
07FF80
0FFFC0
1E01E0
3800F0
700070
300038
000038
000038
007FFC
007FFC
007FFC
000018
000038
E00038
700038
780070
3800F0
1E01E0
0FFFC0
07FF80
01FC00
ENDCHAR
STARTCHAR 042E
ENCODING 1070
SWIDTH 1014 0
DWIDTH 31 0
BBX 28 22 2 0
BITMAP
E001F800
E00FFE00
E01FFF00
E03C0780
E07801C0
E07001E0
E0E000E0
E0E000E0
E0E000E0
E0E00070
FFC00070
FFC00070
E0E00070
E0E00060
E0E000E0
E0E000E0
E07001E0
E07801C0
E03C0380
E01FFF00
E00FFE00
E003F800
ENDCHAR
STARTCHAR 042F
ENCODING 1071
SWIDTH 720 0
DWIDTH 22 0
BBX 17 22 2 0
BITMAP
0FFF80
3FFF80
7FFF80
700380
700380
E00380
E00380
600380
700380
380380
1FFF80
1FFF80
3FFF80
700380
700380
700380
700380
700380
700380
700380
600380
E00380
ENDCHAR
STARTCHAR 0430
ENCODING 1072
SWIDTH 556 0
DWIDTH 17 0
BBX 15 16 1 0
BITMAP
0FE0
1FF0
3C78
7018
7018
0018
0078
1FF8
3F98
7018
E018
E018
E038
78FC
7FDE
1F0E
ENDCHAR
STARTCHAR 0431
ENCODING 1073
SWIDTH 589 0
DWIDTH 18 0
BBX 14 23 2 0
BITMAP
0060
0060
00E0
0FC0
1F80
3C00
7000
67C0
FFE0
FDF0
F038
E018
E01C
C01C
C01C
C01C
C01C
E01C
E018
7038
7CF0
3FE0
0FC0
ENDCHAR
STARTCHAR 0432
ENCODING 1074
SWIDTH 523 0
DWIDTH 16 0
BBX 13 16 2 0
BITMAP
FFC0
FFF0
C070
C038
C038
C038
C070
FFE0
FFF0
C038
C018
C018
C038
C078
FFF0
FFE0
ENDCHAR
STARTCHAR 0433
ENCODING 1075
SWIDTH 360 0
DWIDTH 11 0
BBX 9 16 2 0
BITMAP
FF80
FF80
C000
C000
C000
C000
C000
C000
C000
C000
C000
C000
C000
C000
C000
C000
ENDCHAR
STARTCHAR 0434
ENCODING 1076
SWIDTH 589 0
DWIDTH 18 0
BBX 17 19 0 -3
BITMAP
07FE00
07FE00
070600
070600
070600
070600
060600
060600
0E0600
0E0600
0C0600
1C0600
380600
780600
FFFF80
FFFF80
E00380
E00380
E00380
ENDCHAR
STARTCHAR 0435
ENCODING 1077
SWIDTH 556 0
DWIDTH 17 0
BBX 15 16 1 0
BITMAP
07C0
1FF0
3EF8
781C
701C
600E
E00E
FFFE
FFFE
E000
6000
700C
701C
3E78
1FF0
07C0
ENDCHAR
STARTCHAR 0436
ENCODING 1078
SWIDTH 654 0
DWIDTH 20 0
BBX 21 16 0 0
BITMAP
7070E0
3870E0
3871C0
1C71C0
1C7380
0E7380
0FFF00
0FFF00
0E7380
1C7380
1C71C0
3871C0
3870E0
7070E0
E07070
E07038
ENDCHAR
STARTCHAR 0437
ENCODING 1079
SWIDTH 458 0
DWIDTH 14 0
BBX 12 16 1 0
BITMAP
0F80
3FC0
79E0
70E0
6060
00E0
01E0
0780
07C0
00E0
0070
E070
E060
79E0
3FC0
1F80
ENDCHAR
STARTCHAR 0438
ENCODING 1080
SWIDTH 556 0
DWIDTH 17 0
BBX 13 16 2 0
BITMAP
E038
E038
E078
E0F8
E0F8
E1F8
E3B8
E738
E738
EE38
FC38
F838
F838
F038
E038
E038
ENDCHAR
STARTCHAR 0439
ENCODING 1081
SWIDTH 556 0
DWIDTH 17 0
BBX 13 22 2 0
BITMAP
3060
38E0
1FC0
0F80
0000
0000
E038
E038
E078
E0F8
E0F8
E1F8
E3B8
E738
E738
EE38
FC38
F838
F838
F038
E038
E038
ENDCHAR
STARTCHAR 043A
ENCODING 1082
SWIDTH 425 0
DWIDTH 13 0
BBX 13 16 1 0
BITMAP
E070
E0E0
E0E0
E1C0
E1C0
E380
FF80
FF00
E380
E1C0
E1C0
E0E0
E0E0
E070
E078
E038
ENDCHAR
STARTCHAR 043B
ENCODING 1083
SWIDTH 589 0
DWIDTH 18 0
BBX 14 16 1 0
BITMAP
3FFC
3FFC
380C
380C
380C
380C
380C
380C
380C
380C
380C
380C
380C
F00C
E00C
C00C
ENDCHAR
STARTCHAR 043C
ENCODING 1084
SWIDTH 687 0
DWIDTH 21 0
BBX 19 16 1 0
BITMAP
F001E0
F803E0
F803E0
FC07E0
EC06E0
EC06E0
EE0CE0
E60CE0
E71CE0
E318E0
E318E0
E3B8E0
E1B0E0
E1F0E0
E0E0E0
E0E0E0
ENDCHAR
STARTCHAR 043D
ENCODING 1085
SWIDTH 556 0
DWIDTH 17 0
BBX 13 16 2 0
BITMAP
E038
E038
E038
E038
E038
E038
E038
FFF8
FFF8
E038
E038
E038
E038
E038
E038
E038
ENDCHAR
STARTCHAR 043E
ENCODING 1086
SWIDTH 556 0
DWIDTH 17 0
BBX 15 16 1 0
BITMAP
07C0
1FF0
3EF8
703C
701C
600E
E00E
E00E
E00E
E00E
600E
701C
781C
3EF8
1FF0
07C0
ENDCHAR
STARTCHAR 043F
ENCODING 1087
SWIDTH 556 0
DWIDTH 17 0
BBX 12 16 2 0
BITMAP
FFF0
FFF0
E030
E030
E030
E030
E030
E030
E030
E030
E030
E030
E030
E030
E030
E030
ENDCHAR
STARTCHAR 0440
ENCODING 1088
SWIDTH 556 0
DWIDTH 17 0
BBX 14 22 2 -6
BITMAP
C7C0
DFF0
FDF8
F038
E01C
E01C
C01C
C01C
C01C
E01C
E01C
E01C
F038
FDF0
DFE0
C7C0
C000
C000
C000
C000
C000
C000
ENDCHAR
STARTCHAR 0441
ENCODING 1089
SWIDTH 490 0
DWIDTH 15 0
BBX 13 16 1 0
BITMAP
0FC0
1FF0
3CF0
7038
6018
E018
E000
E000
E000
E000
E018
E018
7038
3CF0
3FE0
0FC0
ENDCHAR
STARTCHAR 0442
ENCODING 1090
SWIDTH 458 0
DWIDTH 14 0
BBX 12 16 1 0
BITMAP
FFF0
FFF0
0600
0600
0600
0600
0600
0600
0600
0600
0600
0600
0600
0600
0600
0600
ENDCHAR
STARTCHAR 0443
ENCODING 1091
SWIDTH 490 0
DWIDTH 15 0
BBX 13 22 1 -6
BITMAP
E018
E038
6038
7030
7070
3070
3860
38E0
18C0
1CC0
1DC0
0D80
0F80
0F80
0700
0700
0700
0E00
0E00
0C00
7C00
7800
ENDCHAR
STARTCHAR 0444
ENCODING 1092
SWIDTH 818 0
DWIDTH 25 0
BBX 21 27 2 -7
BITMAP
007000
007000
007000
007000
07FF00
1FFFC0
3C71E0
7870F0
707070
607038
E07038
E07038
E07038
E07038
E07038
707030
787070
3C71E0
1FFFC0
0FFF80
00F800
007000
007000
007000
007000
007000
007000
ENDCHAR
STARTCHAR 0445
ENCODING 1093
SWIDTH 490 0
DWIDTH 15 0
BBX 13 16 1 0
BITMAP
E038
7030
3870
38E0
1CC0
0DC0
0F80
0700
0780
0F80
1DC0
1CE0
38E0
7070
7038
E038
ENDCHAR
STARTCHAR 0446
ENCODING 1094
SWIDTH 589 0
DWIDTH 18 0
BBX 13 21 3 -5
BITMAP
C060
C060
C060
C060
C060
C060
C060
C060
C060
C060
C060
C060
C060
C060
FFF8
FFF8
0038
0038
0038
0038
0038
ENDCHAR
STARTCHAR 0447
ENCODING 1095
SWIDTH 523 0
DWIDTH 16 0
BBX 12 16 2 0
BITMAP
C070
C070
C070
C070
C070
C070
C070
E070
F1F0
7FF0
3F70
0070
0070
0070
0070
0070
ENDCHAR
STARTCHAR 0448
ENCODING 1096
SWIDTH 818 0
DWIDTH 25 0
BBX 21 16 2 0
BITMAP
E07038
E07038
E07038
E07038
E07038
E07038
E07038
E07038
E07038
E07038
E07038
E07038
E07038
E07038
FFFFF8
FFFFF8
ENDCHAR
STARTCHAR 0449
ENCODING 1097
SWIDTH 818 0
DWIDTH 25 0
BBX 22 21 2 -5
BITMAP
E07038
E07038
E07038
E07038
E07038
E07038
E07038
E07038
E07038
E07038
E07038
E07038
E07038
E07038
FFFFFC
FFFFFC
00001C
00001C
00001C
00001C
00001C
ENDCHAR
STARTCHAR 044A
ENCODING 1098
SWIDTH 621 0
DWIDTH 19 0
BBX 20 16 -1 0
BITMAP
FF8000
FF8000
018000
018000
018000
018000
018000
01FF80
01FFE0
0180E0
018060
018070
018060
0180E0
01FFC0
01FF80
ENDCHAR
STARTCHAR 044B
ENCODING 1099
SWIDTH 720 0
DWIDTH 22 0
BBX 18 16 2 0
BITMAP
E001C0
E001C0
E001C0
E001C0
E001C0
E001C0
E001C0
FFE1C0
FFF1C0
E039C0
E039C0
E019C0
E039C0
E079C0
FFF1C0
FFE1C0
ENDCHAR
STARTCHAR 044C
ENCODING 1100
SWIDTH 523 0
DWIDTH 16 0
BBX 13 16 2 0
BITMAP
E000
E000
E000
E000
E000
E000
E000
FFE0
FFF0
E078
E038
E038
E038
E070
FFF0
FFC0
ENDCHAR
STARTCHAR 044D
ENCODING 1101
SWIDTH 523 0
DWIDTH 16 0
BBX 14 16 1 0
BITMAP
0F80
3FE0
7DF0
F038
E038
001C
001C
03FC
03FC
001C
C01C
E018
F038
7CF0
3FE0
0F80
ENDCHAR
STARTCHAR 044E
ENCODING 1102
SWIDTH 752 0
DWIDTH 23 0
BBX 20 16 2 0
BITMAP
C03F00
C0FFC0
C0F3E0
C1C0E0
C38070
C38070
C38070
FF0030
FF0030
C30030
C38070
C38070
C1C0E0
C1F3E0
C0FFC0
C03F00
ENDCHAR
STARTCHAR 044F
ENCODING 1103
SWIDTH 556 0
DWIDTH 17 0
BBX 13 16 1 0
BITMAP
1FF8
3FF8
7018
6018
E018
E018
7018
3FF8
1FF8
3818
3018
7018
7018
7018
7018
7018
ENDCHAR
STARTCHAR 0450
ENCODING 1104
SWIDTH 556 0
DWIDTH 17 0
BBX 15 22 1 0
BITMAP
0E00
0700
0300
0180
0000
0000
07C0
1FF0
3EF8
701C
701C
600C
E00E
FFFE
FFFE
E000
E000
700C
701C
3E78
1FF0
07C0
ENDCHAR
STARTCHAR 0451
ENCODING 1105
SWIDTH 556 0
DWIDTH 17 0
BBX 15 22 1 0
BITMAP
1EF0
1EF0
1EF0
0000
0000
0000
07C0
1FF0
3EF8
381C
701C
600E
E00E
FFFE
FFFE
E000
6000
700C
701C
3E78
1FF0
07C0
ENDCHAR
STARTCHAR 0452
ENCODING 1106
SWIDTH 556 0
DWIDTH 17 0
BBX 16 26 -1 -4
BITMAP
1C00
1C00
FF80
FF80
1C00
1C00
1C78
1DFE
1FDF
1F07
1E07
1C03
1C03
1C03
1C03
1C03
1C03
1C03
1C03
1C03
1C03
1C07
0007
001E
01FC
01F8
ENDCHAR
STARTCHAR 0453
ENCODING 1107
SWIDTH 360 0
DWIDTH 11 0
BBX 10 22 2 0
BITMAP
0700
0E00
1C00
1800
0000
0000
FFC0
FFC0
E000
E000
E000
E000
E000
E000
E000
E000
E000
E000
E000
E000
E000
E000
ENDCHAR
STARTCHAR 0454
ENCODING 1108
SWIDTH 523 0
DWIDTH 16 0
BBX 14 16 1 0
BITMAP
0FC0
3FF0
7CF8
7038
E01C
E000
C000
FF00
FF00
C000
E01C
E01C
7038
7CF8
3FF0
0FC0
ENDCHAR
STARTCHAR 0455
ENCODING 1109
SWIDTH 490 0
DWIDTH 15 0
BBX 13 16 1 0
BITMAP
0FC0
3FE0
78F0
6070
E030
F000
7C00
3FC0
0FF0
00F8
0038
E038
E038
7CF0
7FE0
1FC0
ENDCHAR
STARTCHAR 0456
ENCODING 1110
SWIDTH 229 0
DWIDTH 7 0
BBX 3 22 2 0
BITMAP
E0
E0
E0
00
00
00
E0
E0
E0
E0
E0
E0
E0
E0
E0
E0
E0
E0
E0
E0
E0
E0
ENDCHAR
STARTCHAR 0457
ENCODING 1111
SWIDTH 294 0
DWIDTH 9 0
BBX 8 22 0 0
BITMAP
E7
E7
E7
00
00
00
1C
1C
1C
1C
1C
1C
1C
1C
1C
1C
1C
1C
1C
1C
1C
1C
ENDCHAR
STARTCHAR 0458
ENCODING 1112
SWIDTH 229 0
DWIDTH 7 0
BBX 6 29 -1 -7
BITMAP
1C
1C
1C
00
00
00
1C
1C
1C
1C
1C
1C
1C
1C
1C
1C
1C
1C
1C
1C
1C
1C
1C
1C
1C
1C
F8
F8
E0
ENDCHAR
STARTCHAR 0459
ENCODING 1113
SWIDTH 916 0
DWIDTH 28 0
BBX 25 16 1 0
BITMAP
3FFE0000
3FFE0000
380E0000
380E0000
380E0000
380E0000
380E0000
380FFE00
380FFF00
380E0700
380E0380
380E0380
380E0380
700E0700
E00FFF00
C00FFC00
ENDCHAR
STARTCHAR 045A
ENCODING 1114
SWIDTH 818 0
DWIDTH 25 0
BBX 22 16 2 0
BITMAP
C03000
C03000
C03000
C03000
C03000
C03000
C03000
FFFFF0
FFFFF8
C0301C
C0300C
C0300C
C0301C
C0303C
C03FF8
C03FF0
ENDCHAR
STARTCHAR 045B
ENCODING 1115
SWIDTH 556 0
DWIDTH 17 0
BBX 16 22 -1 0
BITMAP
1C00
1C00
FF80
FF80
1C00
1C00
1C78
1DFE
1FDF
1F07
1E07
1C03
1C03
1C03
1C03
1C03
1C03
1C03
1C03
1C03
1C03
1C03
ENDCHAR
STARTCHAR 045C
ENCODING 1116
SWIDTH 425 0
DWIDTH 13 0
BBX 13 22 1 0
BITMAP
0380
0700
0600
0C00
0000
0000
E070
E0E0
E0E0
E1C0
E1C0
E380
FF80
FF00
E380
E1C0
E1C0
E0E0
E0E0
E070
E078
E038
ENDCHAR
STARTCHAR 045D
ENCODING 1117
SWIDTH 556 0
DWIDTH 17 0
BBX 13 22 2 0
BITMAP
3C00
1C00
0E00
0300
0000
0000
E038
E038
E078
E0F8
E0F8
E1F8
E3B8
E738
E738
EE38
FC38
F838
F838
F038
E038
E038
ENDCHAR
STARTCHAR 045E
ENCODING 1118
SWIDTH 490 0
DWIDTH 15 0
BBX 13 28 1 -6
BITMAP
3060
38E0
1FC0
0F80
0000
0000
E018
E038
6038
7030
7070
3070
3860
38E0
18C0
1CC0
1DC0
0D80
0F80
0F80
0700
0700
0700
0E00
0E00
0C00
7C00
7800
ENDCHAR
STARTCHAR 045F
ENCODING 1119
SWIDTH 556 0
DWIDTH 17 0
BBX 11 21 3 -5
BITMAP
C060
C060
C060
C060
C060
C060
C060
C060
C060
C060
C060
C060
C060
C060
FFE0
FFE0
0E00
0E00
0E00
0E00
0E00
ENDCHAR
STARTCHAR 0462
ENCODING 1122
SWIDTH 785 0
DWIDTH 24 0
BBX 22 22 0 0
BITMAP
038000
038000
038000
FFFC00
FFFC00
038000
038000
038000
038000
038000
03FFF0
03FFF8
03807C
03801C
03801C
03801C
03801C
03801C
03803C
0381F8
03FFF0
03FFE0
ENDCHAR
STARTCHAR 0463
ENCODING 1123
SWIDTH 621 0
DWIDTH 19 0
BBX 15 20 2 0
BITMAP
3000
3000
3000
3000
FE00
FE00
3000
3000
3000
3000
3000
3FF8
3FFC
301C
300E
300E
300E
301C
3FF8
3FF0
ENDCHAR
STARTCHAR 0472
ENCODING 1138
SWIDTH 785 0
DWIDTH 24 0
BBX 22 22 1 0
BITMAP
00FE00
07FF80
0FFFC0
1E01E0
3800F0
780070
700038
700038
E00018
E7C01C
FFF07C
FCFFFC
E03F9C
E00038
700038
700038
780070
3C00F0
1E01E0
0FFFC0
07FF80
01FC00
ENDCHAR
STARTCHAR 0473
ENCODING 1139
SWIDTH 556 0
DWIDTH 17 0
BBX 15 16 1 0
BITMAP
07E0
1FF0
3EF8
701C
701C
600E
EE0E
FFBE
F3FE
E0EE
600E
701C
781C
3CF8
1FF0
07C0
ENDCHAR
STARTCHAR 0474
ENCODING 1140
SWIDTH 818 0
DWIDTH 25 0
BBX 20 22 3 0
BITMAP
E000F0
E001F0
F003F0
700380
700700
380700
380700
380600
1C0E00
1C0E00
1C0C00
0E1C00
0E1C00
0E1800
071800
073800
033000
03B000
03F000
01E000
01E000
01E000
ENDCHAR
STARTCHAR 0475
ENCODING 1141
SWIDTH 621 0
DWIDTH 19 0
BBX 14 16 3 0
BITMAP
C01C
E03C
E070
6070
7060
70E0
30E0
38C0
38C0
19C0
1D80
1D80
0D80
0F80
0F00
0700
ENDCHAR
STARTCHAR 0490
ENCODING 1168
SWIDTH 490 0
DWIDTH 15 0
BBX 18 27 2 0
BITMAP
0003C0
000380
000700
000E00
000C00
FFF800
FFF800
FFF800
E00000
E00000
E00000
E00000
E00000
E00000
E00000
E00000
E00000
E00000
E00000
E00000
E00000
E00000
E00000
E00000
E00000
E00000
E00000
ENDCHAR
STARTCHAR 0491
ENCODING 1169
SWIDTH 425 0
DWIDTH 13 0
BBX 14 21 3 0
BITMAP
003C
0038
0070
00E0
00C0
FF80
FF80
C000
C000
C000
C000
C000
C000
C000
C000
C000
C000
C000
C000
C000
C000
ENDCHAR
STARTCHAR 0492
ENCODING 1170
SWIDTH 523 0
DWIDTH 16 0
BBX 15 22 1 0
BITMAP
7FFE
7FFE
7FFE
7000
7000
7000
7000
7000
7000
F000
FFF0
FFF0
7000
7000
7000
7000
7000
7000
7000
7000
7000
7000
ENDCHAR
STARTCHAR 0493
ENCODING 1171
SWIDTH 392 0
DWIDTH 12 0
BBX 11 16 1 0
BITMAP
7FE0
7FE0
7000
7000
7000
7000
FF00
FF00
7000
7000
7000
7000
7000
7000
7000
7000
ENDCHAR
STARTCHAR 0496
ENCODING 1174
SWIDTH 1014 0
DWIDTH 31 0
BBX 31 26 0 -4
BITMAP
38070070
3C0700F0
1C0700E0
0E0701C0
0E0703C0
07070380
07870700
03870700
01C70E00
01FFFE00
00FFFC00
01FFFE00
03870F00
03870700
07070380
0E0703C0
0E0701C0
1C0700E0
3C0700F0
38070070
7007003E
F007003E
0000000E
0000000E
0000000E
0000000E
ENDCHAR
STARTCHAR 0497
ENCODING 1175
SWIDTH 818 0
DWIDTH 25 0
BBX 25 21 0 -5
BITMAP
38181C00
38181C00
1C183800
1C183800
0E187000
0E187000
07FFE000
07FFE000
0E187000
0E187000
1C183800
1C183800
38181C00
78181C00
70180F80
E0180780
00000380
00000380
00000380
00000380
00000380
ENDCHAR
STARTCHAR 0498
ENCODING 1176
SWIDTH 589 0
DWIDTH 18 0
BBX 15 28 2 -6
BITMAP
07C0
1FF0
3FF8
783C
701C
601C
601C
001C
0038
00F8
03E0
03F8
003C
001C
000E
E00E
E00E
E00E
F01C
783C
3FF8
1FF0
0300
0300
07C0
00C0
10C0
1F80
ENDCHAR
STARTCHAR 0499
ENCODING 1177
SWIDTH 458 0
DWIDTH 14 0
BBX 12 22 1 -6
BITMAP
0F80
3FC0
79E0
70E0
6060
6060
00E0
07C0
07C0
01E0
0060
E070
E070
6060
79E0
3FC0
1F00
0400
0F80
0180
2180
3F00
ENDCHAR
STARTCHAR 049A
ENCODING 1178
SWIDTH 654 0
DWIDTH 20 0
BBX 17 27 2 -5
BITMAP
E01C00
E03800
E07800
E07000
E0E000
E0E000
E1C000
E3C000
E38000
FF0000
FF0000
FF8000
E38000
E1C000
E1E000
E0E000
E07000
E07800
E03800
E01C00
E01F80
E00F80
000380
000380
000380
000380
000380
ENDCHAR
STARTCHAR 049B
ENCODING 1179
SWIDTH 523 0
DWIDTH 16 0
BBX 14 21 2 -5
BITMAP
E070
E0E0
E0E0
E1C0
E1C0
E380
FF80
FF80
E380
E1C0
E1C0
E0E0
E0E0
E070
E03C
E03C
000C
000C
000C
000C
000C
ENDCHAR
STARTCHAR 049C
ENCODING 1180
SWIDTH 621 0
DWIDTH 19 0
BBX 16 22 2 0
BITMAP
E00E
E01C
E01C
E038
E678
E670
E6E0
E6E0
E7C0
FFC0
FF80
FFC0
E7E0
E6E0
E670
E678
E638
E01C
E01E
E00E
E007
E007
ENDCHAR
STARTCHAR 049D
ENCODING 1181
SWIDTH 490 0
DWIDTH 15 0
BBX 13 16 2 0
BITMAP
E070
E0E0
ECE0
EDC0
EDC0
EF80
FF80
FF80
EF80
EDC0
EDC0
ECE0
E0E0
E070
E038
E038
ENDCHAR
STARTCHAR 04A0
ENCODING 1184
SWIDTH 589 0
DWIDTH 18 0
BBX 23 22 -6 0
BITMAP
FFE038
FFE070
FFE070
00E0E0
00E1E0
00E1C0
00E380
00E380
00E700
00FF00
00FE00
00FF00
00E780
00E380
00E1C0
00E1E0
00E0E0
00E070
00E078
00E038
00E01C
00E01E
ENDCHAR
STARTCHAR 04A1
ENCODING 1185
SWIDTH 425 0
DWIDTH 13 0
BBX 19 16 -5 0
BITMAP
FF81C0
FF8380
038380
038700
038700
038E00
03FE00
03FC00
038E00
038700
038700
038380
038380
0381C0
0381E0
0380E0
ENDCHAR
STARTCHAR 04A2
ENCODING 1186
SWIDTH 720 0
DWIDTH 22 0
BBX 19 27 2 -5
BITMAP
E001C0
E001C0
E001C0
E001C0
E001C0
E001C0
E001C0
E001C0
E001C0
E001C0
FFFFC0
FFFFC0
E001C0
E001C0
E001C0
E001C0
E001C0
E001C0
E001C0
E001E0
E001E0
E001E0
0000E0
0000E0
0000E0
0000E0
0000E0
ENDCHAR
STARTCHAR 04A3
ENCODING 1187
SWIDTH 556 0
DWIDTH 17 0
BBX 14 21 2 -5
BITMAP
E038
E038
E038
E038
E038
E038
E038
FFF8
FFF8
E038
E038
E038
E038
E038
E03C
E03C
001C
001C
001C
001C
001C
ENDCHAR
STARTCHAR 04AA
ENCODING 1194
SWIDTH 720 0
DWIDTH 22 0
BBX 20 28 1 -6
BITMAP
01FC00
07FF00
0FFF80
1E03C0
3801E0
3800E0
7000E0
700000
700000
600000
600000
E00000
600000
700000
700070
7000E0
7800E0
3800E0
3C01C0
1F07C0
0FFF80
03FE00
002000
005000
007C00
001C00
011C00
01F800
ENDCHAR
STARTCHAR 04AB
ENCODING 1195
SWIDTH 490 0
DWIDTH 15 0
BBX 14 22 1 -6
BITMAP
07C0
1FF0
3CF0
7038
6038
E018
E000
E000
E000
E000
E000
E01C
7018
7038
3EF0
1FE0
0FC0
0200
03C0
00C0
10C0
1F80
ENDCHAR
STARTCHAR 04AE
ENCODING 1198
SWIDTH 687 0
DWIDTH 21 0
BBX 19 22 1 0
BITMAP
E001E0
F001C0
7003C0
380380
3C0700
1C0700
0E0E00
0E1C00
071C00
07B800
03B800
01F000
01E000
00E000
00E000
00E000
00E000
00E000
00E000
00E000
00E000
00E000
ENDCHAR
STARTCHAR 04AF
ENCODING 1199
SWIDTH 490 0
DWIDTH 15 0
BBX 13 23 1 -7
BITMAP
E018
E038
6038
7030
7070
3070
3860
38E0
18E0
1CC0
1DC0
0DC0
0F80
0F80
0700
0700
0700
0700
0700
0700
0700
0700
0700
ENDCHAR
STARTCHAR 04B0
ENCODING 1200
SWIDTH 687 0
DWIDTH 21 0
BBX 19 22 1 0
BITMAP
E001E0
F001C0
7003C0
380380
3C0700
1C0700
1E0E00
0E1E00
071C00
07B800
03B800
01F000
01E000
00E000
00E000
1FFE00
1FFE00
1FFE00
00E000
00E000
00E000
00E000
ENDCHAR
STARTCHAR 04B1
ENCODING 1201
SWIDTH 490 0
DWIDTH 15 0
BBX 13 23 1 -7
BITMAP
E018
E038
6038
7030
7070
3070
3860
38E0
18E0
1CC0
1DC0
0DC0
0F80
0F80
0700
0700
3FF0
3FF0
0700
0700
0700
0700
0700
ENDCHAR
STARTCHAR 04B2
ENCODING 1202
SWIDTH 720 0
DWIDTH 22 0
BBX 20 27 1 -5
BITMAP
F001C0
780380
380780
3C0700
1E0E00
0E1E00
071C00
07B800
03F000
01F000
01E000
01E000
03F000
03B800
073C00
0E1C00
1E0E00
1C0F00
380700
780380
7003F0
E001F0
000070
000070
000070
000070
000070
ENDCHAR
STARTCHAR 04B3
ENCODING 1203
SWIDTH 523 0
DWIDTH 16 0
BBX 14 21 1 -5
BITMAP
E038
7070
7070
38E0
1DC0
0DC0
0F80
0700
0700
0F80
1DC0
18C0
38E0
7070
607C
E03C
000C
000C
000C
000C
000C
ENDCHAR
STARTCHAR 04B6
ENCODING 1206
SWIDTH 687 0
DWIDTH 21 0
BBX 19 27 2 -5
BITMAP
E00380
E00380
E00380
E00380
E00380
E00380
E00380
E00380
E00380
E00380
E00380
F80780
7FFF80
1FFF80
000380
000380
000380
000380
000380
0003E0
0003E0
0003E0
0000E0
0000E0
0000E0
0000E0
0000E0
ENDCHAR
STARTCHAR 04B7
ENCODING 1207
SWIDTH 523 0
DWIDTH 16 0
BBX 12 21 2 -5
BITMAP
C060
C060
C060
C060
C060
C060
C060
C060
F1E0
FFE0
3F60
0060
0060
0060
0070
0070
0030
0030
0030
0030
0030
ENDCHAR
STARTCHAR 04B8
ENCODING 1208
SWIDTH 687 0
DWIDTH 21 0
BBX 17 22 2 0
BITMAP
E00380
E00380
E00380
E00380
E00380
E18380
E18380
E18380
E18380
E18380
E18380
798780
7FFF80
1FFF80
018380
018380
018380
018380
018380
000380
000380
000380
ENDCHAR
STARTCHAR 04B9
ENCODING 1209
SWIDTH 523 0
DWIDTH 16 0
BBX 11 16 2 0
BITMAP
C060
C060
C060
C060
C060
C460
C460
E460
FFE0
7FE0
1E60
0460
0460
0460
0060
0060
ENDCHAR
STARTCHAR 04BA
ENCODING 1210
SWIDTH 687 0
DWIDTH 21 0
BBX 17 22 2 0
BITMAP
E00000
E00000
E00000
E00000
E00000
E00000
E00000
E00000
FFFC00
FFFE00
F00F00
E00780
E00380
E00380
E00380
E00380
E00380
E00380
E00380
E00380
E00380
E00380
ENDCHAR
STARTCHAR 04BB
ENCODING 1211
SWIDTH 556 0
DWIDTH 17 0
BBX 12 22 3 0
BITMAP
C000
C000
C000
C000
C000
C000
C7C0
CFE0
FCF0
F070
E030
C030
C030
C030
C030
C030
C030
C030
C030
C030
C030
C030
ENDCHAR
STARTCHAR 04C0
ENCODING 1216
SWIDTH 294 0
DWIDTH 9 0
BBX 3 22 3 0
BITMAP
E0
E0
E0
E0
E0
E0
E0
E0
E0
E0
E0
E0
E0
E0
E0
E0
E0
E0
E0
E0
E0
E0
ENDCHAR
STARTCHAR 04CB
ENCODING 1227
SWIDTH 654 0
DWIDTH 20 0
BBX 17 27 1 -5
BITMAP
E00380
E00380
E00380
E00380
E00380
E00380
E00380
E00380
E00380
E00380
700380
7C0780
3FFF80
1FFF80
000380
000380
000380
000380
000380
000780
000780
000780
000700
000700
000700
000700
000700
ENDCHAR
STARTCHAR 04CC
ENCODING 1228
SWIDTH 523 0
DWIDTH 16 0
BBX 12 21 2 -5
BITMAP
C070
C070
C070
C070
C070
C070
C070
E070
F1F0
7FF0
3F70
0070
0070
0070
01F0
01F0
01C0
01C0
01C0
01C0
01C0
ENDCHAR
STARTCHAR 04CF
ENCODING 1231
SWIDTH 294 0
DWIDTH 9 0
BBX 3 22 3 0
BITMAP
E0
E0
E0
E0
E0
E0
E0
E0
E0
E0
E0
E0
E0
E0
E0
E0
E0
E0
E0
E0
E0
E0
ENDCHAR
STARTCHAR 04D8
ENCODING 1240
SWIDTH 785 0
DWIDTH 24 0
BBX 22 22 1 0
BITMAP
01FC00
07FF80
0FFFC0
1E01E0
3C00F0
780070
700038
000038
000038
00001C
FFFFFC
FFFFFC
FFFFFC
E00018
700038
700038
780070
3800F0
1E01E0
0FFFC0
07FF80
01FC00
ENDCHAR
STARTCHAR 04D9
ENCODING 1241
SWIDTH 556 0
DWIDTH 17 0
BBX 15 16 1 0
BITMAP
07C0
1FF0
3CF8
701C
601C
000E
000E
FFFE
FFFE
E00E
E00C
701C
703C
3EF8
1FF0
07C0
ENDCHAR
STARTCHAR 04E2
ENCODING 1250
SWIDTH 720 0
DWIDTH 22 0
BBX 18 25 2 0
BITMAP
07FC00
07FC00
000000
E001C0
E001C0
E001C0
E003C0
E007C0
E00FC0
E01FC0
E03DC0
E079C0
E0F1C0
E0E1C0
E1C1C0
E381C0
E781C0
EF01C0
FE01C0
FC01C0
F801C0
F001C0
E001C0
E001C0
E001C0
ENDCHAR
STARTCHAR 04E3
ENCODING 1251
SWIDTH 556 0
DWIDTH 17 0
BBX 13 20 2 0
BITMAP
3FC0
3FC0
0000
0000
E038
E038
E078
E0F8
E0F8
E1F8
E3B8
E738
E738
EE38
FC38
F838
F838
F038
E038
E038
ENDCHAR
STARTCHAR 04E8
ENCODING 1256
SWIDTH 785 0
DWIDTH 24 0
BBX 22 22 1 0
BITMAP
00FC00
07FF80
0FFFC0
1E01E0
3C00F0
780070
700038
700038
E00038
E0001C
FFFFFC
FFFFFC
FFFFFC
E00018
700038
700038
780070
3800F0
1E01E0
0FFFC0
07FF80
01FC00
ENDCHAR
STARTCHAR 04E9
ENCODING 1257
SWIDTH 556 0
DWIDTH 17 0
BBX 15 16 1 0
BITMAP
07C0
1FF0
3EF8
703C
701C
600C
E00E
FFFE
FFFE
E00E
600E
701C
701C
3EF8
1FF0
07C0
ENDCHAR
STARTCHAR 04EE
ENCODING 1262
SWIDTH 621 0
DWIDTH 19 0
BBX 18 26 1 0
BITMAP
07F800
07F800
000000
000000
E001C0
F003C0
700380
780780
380700
380700
1C0E00
1C0E00
0E1C00
0E1C00
0F3C00
073800
073800
03F000
03F000
01E000
01E000
00C000
01C000
1FC000
1F8000
1F0000
ENDCHAR
STARTCHAR 04EF
ENCODING 1263
SWIDTH 490 0
DWIDTH 15 0
BBX 13 26 1 -6
BITMAP
3FE0
3FE0
0000
0000
E018
E038
6038
7030
7070
3070
3860
38E0
18C0
1CC0
1DC0
0D80
0F80
0F80
0700
0700
0700
0E00
0E00
0C00
7C00
7800
ENDCHAR
STARTCHAR 1E80
ENCODING 7808
SWIDTH 949 0
DWIDTH 29 0
BBX 27 28 1 0
BITMAP
003C0000
000C0000
00060000
00030000
00000000
00000000
E00E00E0
E00E00E0
E01F00E0
701F01C0
701B01C0
703B81C0
703B81C0
383B8380
38318380
3871C380
3871C380
1C60C300
1C60E700
1CE0E700
1CE0E700
0CC06600
0FC07E00
0FC07E00
0F803E00
07803C00
07803C00
07803C00
ENDCHAR
STARTCHAR 1E81
ENCODING 7809
SWIDTH 720 0
DWIDTH 22 0
BBX 21 22 0 0
BITMAP
01C000
00E000
007000
003800
000000
000000
E07818
607838
707838
70F838
70FC30
30DC70
38CC70
39CC60
19CE60
198EE0
1D86E0
1F86C0
0F87C0
0F07C0
0F0380
070380
ENDCHAR
STARTCHAR 1E82
ENCODING 7810
SWIDTH 949 0
DWIDTH 29 0
BBX 27 28 1 0
BITMAP
0001E000
00018000
00030000
00060000
00000000
00000000
E00E00E0
E00E00E0
E01F00E0
701F01C0
701B01C0
703B81C0
703B81C0
383B8380
38318380
3871C380
3871C380
1C60C300
1C60E700
1CE0E700
1CE0E700
0CC06600
0FC07E00
0FC07E00
0F803E00
07803C00
07803C00
07803C00
ENDCHAR
STARTCHAR 1E83
ENCODING 7811
SWIDTH 720 0
DWIDTH 22 0
BBX 21 22 0 0
BITMAP
001C00
003800
007000
006000
000000
000000
E07818
607838
707838
70F838
70FC30
30DC70
38CC70
39CC60
19CE60
198EE0
1D86E0
1F86C0
0F87C0
0F07C0
0F0380
070380
ENDCHAR
STARTCHAR 1E84
ENCODING 7812
SWIDTH 949 0
DWIDTH 29 0
BBX 27 28 1 0
BITMAP
007B8000
007B8000
007B8000
00000000
00000000
00000000
E00E00E0
E00E00E0
E01F00E0
701F01C0
701B01C0
703B81C0
703B81C0
383B8380
38318380
3871C380
3871C380
1C60C300
1C60E700
1CE0E700
1CE0E700
0CC06600
0FC07E00
0FC07E00
0F803E00
07803C00
07803C00
07803C00
ENDCHAR
STARTCHAR 1E85
ENCODING 7813
SWIDTH 720 0
DWIDTH 22 0
BBX 21 22 0 0
BITMAP
01CE00
01CE00
01CE00
000000
000000
000000
E07818
607838
707838
70F838
70FC30
30DC70
38CC70
39CC60
19CE60
198EE0
1D86E0
1F86C0
0F87C0
0F07C0
0F0380
070380
ENDCHAR
STARTCHAR 1EF2
ENCODING 7922
SWIDTH 654 0
DWIDTH 20 0
BBX 19 28 1 0
BITMAP
078000
018000
00C000
006000
000000
000000
E001E0
F001C0
7003C0
380380
3C0700
1C0700
0E0E00
0E1C00
071C00
07B800
03B800
01F000
01E000
00E000
00E000
00E000
00E000
00E000
00E000
00E000
00E000
00E000
ENDCHAR
STARTCHAR 1EF3
ENCODING 7923
SWIDTH 490 0
DWIDTH 15 0
BBX 13 28 1 -7
BITMAP
1C00
0E00
0600
0300
0000
0000
E018
E038
E038
6030
7070
7070
3060
38E0
38C0
19C0
1DC0
1D80
0F80
0F80
0700
0700
0600
0E00
0E00
1C00
7C00
7800
ENDCHAR
STARTCHAR 2002
ENCODING 8194
SWIDTH 490 0
DWIDTH 15 0
BBX 0 0 0 0
BITMAP
ENDCHAR
STARTCHAR 2013
ENCODING 8211
SWIDTH 556 0
DWIDTH 17 0
BBX 17 2 0 7
BITMAP
FFFF80
FFFF80
ENDCHAR
STARTCHAR 2014
ENCODING 8212
SWIDTH 1014 0
DWIDTH 31 0
BBX 31 2 0 7
BITMAP
FFFFFFFE
FFFFFFFE
ENDCHAR
STARTCHAR 2015
ENCODING 8213
SWIDTH 1014 0
DWIDTH 31 0
BBX 31 2 0 7
BITMAP
FFFFFFFE
FFFFFFFE
ENDCHAR
STARTCHAR 2017
ENCODING 8215
SWIDTH 556 0
DWIDTH 17 0
BBX 19 5 -1 -7
BITMAP
FFFFE0
FFFFE0
000000
FFFFE0
FFFFE0
ENDCHAR
STARTCHAR 2018
ENCODING 8216
SWIDTH 229 0
DWIDTH 7 0
BBX 3 7 2 15
BITMAP
20
40
C0
80
E0
E0
E0
ENDCHAR
STARTCHAR 2019
ENCODING 8217
SWIDTH 229 0
DWIDTH 7 0
BBX 3 7 2 15
BITMAP
E0
E0
E0
60
60
40
C0
ENDCHAR
STARTCHAR 201A
ENCODING 8218
SWIDTH 229 0
DWIDTH 7 0
BBX 3 7 2 -4
BITMAP
E0
E0
E0
60
60
40
80
ENDCHAR
STARTCHAR 201B
ENCODING 8219
SWIDTH 229 0
DWIDTH 7 0
BBX 3 7 2 15
BITMAP
E0
E0
E0
80
C0
C0
60
ENDCHAR
STARTCHAR 201C
ENCODING 8220
SWIDTH 327 0
DWIDTH 10 0
BBX 8 7 1 15
BITMAP
21
62
46
C6
E7
E7
E7
ENDCHAR
STARTCHAR 201D
ENCODING 8221
SWIDTH 327 0
DWIDTH 10 0
BBX 8 7 1 15
BITMAP
E7
E7
E7
21
21
63
C6
ENDCHAR
STARTCHAR 201E
ENCODING 8222
SWIDTH 327 0
DWIDTH 10 0
BBX 8 7 1 -4
BITMAP
E7
E7
E7
21
21
63
C6
ENDCHAR
STARTCHAR 2020
ENCODING 8224
SWIDTH 556 0
DWIDTH 17 0
BBX 15 27 1 -5
BITMAP
0380
0380
0380
0380
0380
0380
FF80
FFFE
FFFE
0380
0380
0380
0380
0380
0380
0380
0380
0380
0380
0380
0380
0380
0380
0380
0380
0380
0380
ENDCHAR
STARTCHAR 2021
ENCODING 8225
SWIDTH 556 0
DWIDTH 17 0
BBX 15 27 1 -5
BITMAP
0380
0380
0380
0380
0380
0380
FF80
FFFE
FFFE
0380
0380
0380
0380
0380
0380
0380
0380
0380
FF80
FFFE
FFFE
0380
0380
0380
0380
0380
0380
ENDCHAR
STARTCHAR 2022
ENCODING 8226
SWIDTH 360 0
DWIDTH 11 0
BBX 7 8 2 7
BITMAP
10
7C
FE
FE
FE
FE
FC
78
ENDCHAR
STARTCHAR 2026
ENCODING 8230
SWIDTH 1014 0
DWIDTH 31 0
BBX 23 3 4 0
BITMAP
E0380E
E0380E
E0380E
ENDCHAR
STARTCHAR 2030
ENCODING 8240
SWIDTH 1014 0
DWIDTH 31 0
BBX 30 22 0 0
BITMAP
1E018000
7F030000
61830000
C1860000
C0860000
C18C0000
61980000
3F180000
1C300000
00300000
00600000
00600000
00C00000
00C780F0
018FC1F8
0398E31C
0330660C
06302604
0630660C
0C18630C
0C1FC3F8
180780F0
ENDCHAR
STARTCHAR 2032
ENCODING 8242
SWIDTH 196 0
DWIDTH 6 0
BBX 4 8 1 13
BITMAP
30
70
60
60
60
60
C0
C0
ENDCHAR
STARTCHAR 2033
ENCODING 8243
SWIDTH 360 0
DWIDTH 11 0
BBX 7 8 2 13
BITMAP
66
66
66
66
CC
CC
CC
8C
ENDCHAR
STARTCHAR 2039
ENCODING 8249
SWIDTH 327 0
DWIDTH 10 0
BBX 4 9 3 3
BITMAP
10
30
70
E0
80
C0
E0
30
10
ENDCHAR
STARTCHAR 203A
ENCODING 8250
SWIDTH 327 0
DWIDTH 10 0
BBX 4 9 3 3
BITMAP
80
C0
E0
70
10
30
70
C0
80
ENDCHAR
STARTCHAR 203C
ENCODING 8252
SWIDTH 490 0
DWIDTH 15 0
BBX 11 22 3 0
BITMAP
E0E0
E0E0
E0E0
E0E0
E0E0
E0E0
E0E0
E0E0
E0E0
E0E0
E0E0
60C0
60C0
60C0
60C0
4040
4040
0000
0000
E0E0
E0E0
E0E0
ENDCHAR
STARTCHAR 203E
ENCODING 8254
SWIDTH 327 0
DWIDTH 10 0
BBX 18 2 -4 26
BITMAP
FFFFC0
FFFFC0
ENDCHAR
STARTCHAR 2044
ENCODING 8260
SWIDTH 294 0
DWIDTH 9 0
BBX 14 22 -3 0
BITMAP
0004
000C
0018
0018
0030
0020
0060
00C0
00C0
0180
0300
0300
0600
0400
0C00
1800
1800
3000
2000
6000
C000
8000
ENDCHAR
STARTCHAR 2070
ENCODING 8304
SWIDTH 327 0
DWIDTH 10 0
BBX 10 13 0 8
BITMAP
1E00
3F00
6180
6180
6180
40C0
C0C0
C0C0
60C0
6180
6180
7380
3F00
ENDCHAR
STARTCHAR 2074
ENCODING 8308
SWIDTH 327 0
DWIDTH 10 0
BBX 10 13 0 9
BITMAP
0300
0700
0700
0F00
1B00
3300
6300
6300
FFC0
FFC0
0300
0300
0300
ENDCHAR
STARTCHAR 2075
ENCODING 8309
SWIDTH 327 0
DWIDTH 10 0
BBX 10 14 0 8
BITMAP
3F80
3F80
6000
6000
6C00
7F00
6180
01C0
00C0
00C0
C080
6180
3F00
0C00
ENDCHAR
STARTCHAR 2076
ENCODING 8310
SWIDTH 327 0
DWIDTH 10 0
BBX 10 14 0 8
BITMAP
1F00
3F80
6180
6180
6000
5F00
FF80
E180
60C0
60C0
60C0
7180
3F00
0C00
ENDCHAR
STARTCHAR 2077
ENCODING 8311
SWIDTH 327 0
DWIDTH 10 0
BBX 9 13 1 9
BITMAP
FF80
FF80
0300
0200
0600
0C00
0C00
1800
1800
3000
3000
3000
6000
ENDCHAR
STARTCHAR 2078
ENCODING 8312
SWIDTH 327 0
DWIDTH 10 0
BBX 10 14 0 8
BITMAP
1E00
3F80
6180
6180
6180
7180
3F00
7F80
6180
C0C0
C0C0
6180
7F80
1E00
ENDCHAR
STARTCHAR 2079
ENCODING 8313
SWIDTH 327 0
DWIDTH 10 0
BBX 10 14 0 8
BITMAP
1E00
7F00
6180
C180
C0C0
E1C0
61C0
3EC0
08C0
0180
6180
6380
3F00
0C00
ENDCHAR
STARTCHAR 207F
ENCODING 8319
SWIDTH 360 0
DWIDTH 11 0
BBX 8 10 2 8
BITMAP
BC
E6
C3
83
83
83
83
83
83
83
ENDCHAR
STARTCHAR 20A3
ENCODING 8355
SWIDTH 556 0
DWIDTH 17 0
BBX 16 22 1 0
BITMAP
FFFE
FFFE
FFFE
E000
E000
E000
E0C7
E0CF
E0DC
E0F0
FFE0
FFE0
E0E0
E0E0
E0E0
E0E0
E0E0
E0E0
E0E0
E0E0
E0E0
E0E0
ENDCHAR
STARTCHAR 20A4
ENCODING 8356
SWIDTH 556 0
DWIDTH 17 0
BBX 15 22 1 0
BITMAP
07E0
1FF8
3EF8
781C
701C
700E
700E
7000
7000
3800
FFC0
FFC0
1C00
FFC0
FFC0
0C00
1800
3800
7F84
FFFE
73FE
007C
ENDCHAR
STARTCHAR 20A7
ENCODING 8359
SWIDTH 1080 0
DWIDTH 33 0
BBX 28 22 3 0
BITMAP
FF000000
FF800000
EFC00000
E1E00000
E0E00000
E0E00000
E0E00000
E0E00000
E0E00000
E1E00000
FFC60000
FF860000
FE0607C0
E00F0EE0
E0060C60
E0060C00
E0060F80
E00601E0
E0060030
E0061830
E0060EE0
E00707C0
ENDCHAR
STARTCHAR 20AC
ENCODING 8364
SWIDTH 556 0
DWIDTH 17 0
BBX 16 22 0 0
BITMAP
00FC
03FF
07DF
0F03
0E00
1C00
1C00
1C00
7FFC
FFFC
3800
3800
7FF0
FFF0
1C00
1C00
1C00
0E00
0F03
07DF
03FF
00FC
ENDCHAR
STARTCHAR 20AF
ENCODING 8367
SWIDTH 916 0
DWIDTH 28 0
BBX 24 25 2 -5
BITMAP
03C000
1FF800
363800
661C00
C60C00
C60C08
C60E3E
060E67
0C0EC3
0C0EC3
0C0D83
0C0D83
0C0D83
181983
181986
183306
107304
30E30C
FFC3F8
FE03F0
000700
000600
000600
000600
000600
ENDCHAR
STARTCHAR 20DD
ENCODING 8413
SWIDTH 981 0
DWIDTH 30 0
BBX 22 22 4 0
BITMAP
00FE00
03FF80
0F01C0
1C0060
380030
300018
600018
60000C
40000C
C0000C
C0000C
C0000C
C0000C
40000C
60000C
600018
300018
380030
1C0060
0F01C0
03FF80
00FC00
ENDCHAR
STARTCHAR 2105
ENCODING 8453
SWIDTH 883 0
DWIDTH 27 0
BBX 24 23 1 0
BITMAP
0F0000
3F8060
71C0C0
60C0C0
600180
600180
E00300
600300
60C600
60C600
71CC00
3F8C7C
1F19FE
003187
003383
006303
006303
00C303
00C303
018383
0181C7
0301FE
030078
ENDCHAR
STARTCHAR 210F
ENCODING 8463
SWIDTH 556 0
DWIDTH 17 0
BBX 15 22 1 0
BITMAP
03C0
0F80
0380
0398
0370
07C0
0700
1E1C
3E3E
4E6E
0C8E
0D0C
1E0C
1E1C
1C1C
3818
3838
3038
7032
7034
6078
E030
ENDCHAR
STARTCHAR 2111
ENCODING 8465
SWIDTH 720 0
DWIDTH 22 0
BBX 18 23 2 -2
BITMAP
07C000
1FE000
30F000
607880
403880
C03C80
C01F00
C00E00
400000
600F00
301F80
1C38C0
003840
003800
003C00
C01C00
701E00
380E00
1C0E00
1E0E00
0F1C00
07F800
03E000
ENDCHAR
STARTCHAR 2112
ENCODING 8466
SWIDTH 818 0
DWIDTH 25 0
BBX 23 24 1 0
BITMAP
00E078
0380C4
060182
0C0302
080302
180302
080704
08070C
080708
040710
020740
01C780
003E00
000600
000E00
000E00
000E00
000C00
001C00
3C1804
43B004
80F008
40F810
3F07E0
ENDCHAR
STARTCHAR 2113
ENCODING 8467
SWIDTH 327 0
DWIDTH 10 0
BBX 11 22 -1 0
BITMAP
00C0
0360
0220
0620
0660
0C40
0C40
0C80
0C80
1D00
1A00
1C00
1800
3800
7800
F800
3000
3000
3200
3200
3C00
1800
ENDCHAR
STARTCHAR 2116
ENCODING 8470
SWIDTH 1080 0
DWIDTH 33 0
BBX 31 22 1 0
BITMAP
E00603C0
F0060FF0
F8061FF8
F8063838
FC06381C
EC06300C
EE06700C
E606700E
E706700E
E306700C
E386300C
E186300C
E1C6381C
E0E61C38
E0E61FF0
E0760FE0
E0360100
E03E0000
E01E0000
E01E3FFC
E00E3FFC
E00E3FFC
ENDCHAR
STARTCHAR 2118
ENCODING 8472
SWIDTH 654 0
DWIDTH 20 0
BBX 16 17 2 -5
BITMAP
0600
083E
1046
3083
2303
6403
6807
7006
3186
390C
7A18
99E0
9C00
8C00
8800
8800
7000
ENDCHAR
STARTCHAR 211C
ENCODING 8476
SWIDTH 785 0
DWIDTH 24 0
BBX 19 19 2 0
BITMAP
1F0F00
3FBF80
63C3C0
41C1C0
C1C1C0
C1C1C0
C1C380
E1C700
79FC00
3DFE00
0DC700
09C700
09C700
01C780
01C380
01C380
3F83E0
7F03C0
4E0180
ENDCHAR
STARTCHAR 211E
ENCODING 8478
SWIDTH 752 0
DWIDTH 23 0
BBX 15 20 5 0
BITMAP
FFF0
FFF8
C03C
C01C
C00E
C00E
C00E
C01C
C03C
FFF8
FFF0
C1C6
C1CE
C0FC
C078
C078
C078
C07C
C0FC
C1CE
ENDCHAR
STARTCHAR 2120
ENCODING 8480
SWIDTH 621 0
DWIDTH 19 0
BBX 16 9 1 12
BITMAP
78E3
ECA7
84A5
C0A5
7CA5
06B5
869D
C499
7C99
ENDCHAR
STARTCHAR 2122
ENCODING 8482
SWIDTH 1014 0
DWIDTH 31 0
BBX 27 13 2 9
BITMAP
FFE700E0
FFE701E0
060781E0
06078160
0606C360
0606C360
0606C260
06066660
06066660
06066C60
06063C60
06063C60
06063860
ENDCHAR
STARTCHAR 2126
ENCODING 8486
SWIDTH 752 0
DWIDTH 23 0
BBX 22 22 1 0
BITMAP
00FC00
07FF00
0FFFC0
1E01E0
3C00F0
780070
700078
600038
E00038
E00038
E00038
E00038
E00038
600038
700030
300070
380060
1C00C0
0E0380
FF8600
FF8FFC
FF8FFC
ENDCHAR
STARTCHAR 2128
ENCODING 8488
SWIDTH 621 0
DWIDTH 19 0
BBX 18 27 0 -6
BITMAP
00FC00
03FE00
060700
000380
000380
000380
000380
018380
038380
038300
010600
01FC00
00F800
03FE00
060F00
0C0780
080380
0001C0
0001C0
0001C0
7801C0
CC01C0
870180
870380
0F0300
01CE00
007800
ENDCHAR
STARTCHAR 212D
ENCODING 8493
SWIDTH 654 0
DWIDTH 20 0
BBX 18 23 2 -2
BITMAP
0F8F00
187FC0
306780
304000
60C000
60C000
E0C000
C0E000
C0F000
C07800
C03800
C01C00
E21C00
E20C00
E20C00
F20C00
711800
78F040
3C0080
1E0180
1FFF00
07FE00
01F000
ENDCHAR
STARTCHAR 212E
ENCODING 8494
SWIDTH 589 0
DWIDTH 18 0
BBX 14 16 2 0
BITMAP
0FC0
1FF0
7038
6018
E01C
E01C
E01C
FFFC
E000
E000
E000
E00C
6018
7038
3FF0
0FC0
ENDCHAR
STARTCHAR 212F
ENCODING 8495
SWIDTH 490 0
DWIDTH 15 0
BBX 12 15 2 0
BITMAP
01E0
0670
0C30
1870
3860
70C0
7380
FE00
E000
E000
E000
E040
E080
7F00
3C00
ENDCHAR
STARTCHAR 2135
ENCODING 8501
SWIDTH 490 0
DWIDTH 15 0
BBX 13 19 1 1
BITMAP
8100
C1F0
C1F8
61F8
71F8
3820
1820
2C40
2E40
67C0
63C0
F1C0
F0C0
78E0
7C70
3C38
3C18
FC18
FC08
ENDCHAR
STARTCHAR 2136
ENCODING 8502
SWIDTH 458 0
DWIDTH 14 0
BBX 12 15 1 1
BITMAP
C000
FFE0
FFE0
7FF0
0030
0010
0010
0010
0010
0010
0010
0020
7FF0
7FF0
FFF0
ENDCHAR
STARTCHAR 2137
ENCODING 8503
SWIDTH 327 0
DWIDTH 10 0
BBX 7 16 2 0
BITMAP
40
7C
7E
3E
0E
04
02
02
02
02
02
06
06
FA
FA
F2
ENDCHAR
STARTCHAR 215B
ENCODING 8539
SWIDTH 818 0
DWIDTH 25 0
BBX 22 22 2 0
BITMAP
180080
180180
F80300
F80300
180600
180400
180C00
181800
181000
1831F8
18630C
18630C
18C30C
008308
0180F0
030198
02030C
060204
0C0204
0C030C
1803F8
1000F0
ENDCHAR
STARTCHAR 215C
ENCODING 8540
SWIDTH 818 0
DWIDTH 25 0
BBX 23 22 1 0
BITMAP
3E0020
7F0060
6180C0
C18080
018180
0F0300
0F0300
018600
018400
C18CFC
C19886
7F9186
3E3186
0060CE
006078
00C0CC
008186
018102
030102
020186
0600EE
0C0078
ENDCHAR
STARTCHAR 215D
ENCODING 8541
SWIDTH 818 0
DWIDTH 25 0
BBX 23 22 1 0
BITMAP
7F0030
7F0060
600040
6000C0
400180
7F0100
630300
018600
018400
018C78
C198FC
771986
3E3186
002186
0060FC
00C0CC
008186
018102
030102
020186
0600EE
0C0078
ENDCHAR
STARTCHAR 215E
ENCODING 8542
SWIDTH 818 0
DWIDTH 25 0
BBX 22 22 2 0
BITMAP
FF0180
FF0300
030200
060600
040C00
0C0800
081800
183000
103000
3060F0
3043F8
20C30C
61830C
010318
0301F8
060198
04020C
0C060C
18060C
18030C
3003B8
2000F0
ENDCHAR
STARTCHAR 2190
ENCODING 8592
SWIDTH 1014 0
DWIDTH 31 0
BBX 25 10 3 5
BITMAP
06000000
0C000000
1C000000
38000000
FFFFFF80
FFFFFF80
78000000
1C000000
0C000000
06000000
ENDCHAR
STARTCHAR 2191
ENCODING 8593
SWIDTH 490 0
DWIDTH 15 0
BBX 10 25 2 -3
BITMAP
0400
0E00
0E00
1F00
3F80
7DC0
CC40
0C00
0C00
0C00
0C00
0C00
0C00
0C00
0C00
0C00
0C00
0C00
0C00
0C00
0C00
0C00
0C00
0C00
0C00
ENDCHAR
STARTCHAR 2192
ENCODING 8594
SWIDTH 1014 0
DWIDTH 31 0
BBX 25 10 3 5
BITMAP
00002000
00003000
00001800
00001E00
FFFFFF00
FFFFFF80
00000E00
00001C00
00003000
00002000
ENDCHAR
STARTCHAR 2193
ENCODING 8595
SWIDTH 490 0
DWIDTH 15 0
BBX 10 25 2 -3
BITMAP
0C00
0C00
0C00
0C00
0C00
0C00
0C00
0C00
0C00
0C00
0C00
0C00
0C00
0C00
0C00
0C00
0C00
0C00
8C40
6DC0
3F80
1F00
1E00
0E00
0400
ENDCHAR
STARTCHAR 2194
ENCODING 8596
SWIDTH 1014 0
DWIDTH 31 0
BBX 23 10 4 4
BITMAP
060080
0C00C0
1C0070
380078
FFFFFE
FFFFFC
380078
1C0060
0C00C0
060080
ENDCHAR
STARTCHAR 2195
ENCODING 8597
SWIDTH 490 0
DWIDTH 15 0
BBX 11 23 2 -1
BITMAP
0400
0600
0E00
1F00
3F80
75C0
C460
0400
0400
0400
0400
0400
0400
0400
0400
0400
4460
75C0
3F80
1F00
0F00
0E00
0400
ENDCHAR
STARTCHAR 2196
ENCODING 8598
SWIDTH 720 0
DWIDTH 22 0
BBX 22 22 0 -2
BITMAP
600000
F80000
FF0000
7BC000
7C4000
6E0000
370000
338000
11C000
18E000
007000
003800
001C00
000E00
000700
000380
0001C0
0000E0
000070
000038
00001C
000008
ENDCHAR
STARTCHAR 2197
ENCODING 8599
SWIDTH 720 0
DWIDTH 22 0
BBX 22 21 0 -2
BITMAP
000018
0000FC
0003F8
001E78
0018D8
0001B0
000330
000620
000C60
001840
003000
006000
00C000
018000
030000
060000
0C0000
180000
300000
600000
C00000
ENDCHAR
STARTCHAR 2198
ENCODING 8600
SWIDTH 720 0
DWIDTH 22 0
BBX 22 21 0 -2
BITMAP
C00000
E00000
700000
380000
1C0000
0E0000
070000
038000
01C000
00E000
007000
003840
001C60
000E60
000720
0003B0
0001D0
001CF8
0007F8
0001FC
000078
ENDCHAR
STARTCHAR 2199
ENCODING 8601
SWIDTH 720 0
DWIDTH 22 0
BBX 21 22 0 -2
BITMAP
000008
000018
000030
000060
0000C0
000180
000300
000600
000C00
001800
003000
186000
18C000
118000
330000
260000
6C0000
59C000
F78000
FC0000
F00000
400000
ENDCHAR
STARTCHAR 21A8
ENCODING 8616
SWIDTH 490 0
DWIDTH 15 0
BBX 10 27 3 -3
BITMAP
0800
1C00
1E00
3E00
7F00
EB80
88C0
0800
0800
0800
0800
0800
0800
0800
0800
0800
88C0
EB80
7F00
3E00
1C00
1C00
0800
0000
0000
0000
7F80
ENDCHAR
STARTCHAR 21B5
ENCODING 8629
SWIDTH 1014 0
DWIDTH 31 0
BBX 22 12 5 4
BITMAP
00000C
00000C
01800C
07800C
1E000C
70000C
FFFFFC
FFFFFC
700000
1E0000
078000
018000
ENDCHAR
STARTCHAR 21C4
ENCODING 8644
SWIDTH 981 0
DWIDTH 30 0
BBX 23 18 4 2
BITMAP
000080
0000C0
000070
000078
FFFFFC
FFFFFE
000038
000070
040060
0C00C0
180080
380000
FFFFFE
FFFFFE
780000
380000
0C0000
040000
ENDCHAR
STARTCHAR 21C6
ENCODING 8646
SWIDTH 981 0
DWIDTH 30 0
BBX 23 18 4 2
BITMAP
040000
0C0000
180000
380000
FFFFFE
FFFFFE
700000
380000
1C00C0
0C00E0
060070
000038
FFFFFC
FFFFFE
000038
000070
000060
0000C0
ENDCHAR
STARTCHAR 21D0
ENCODING 8656
SWIDTH 720 0
DWIDTH 22 0
BBX 21 12 1 3
BITMAP
020000
060000
1C0000
3FFFF8
600000
C00000
C00000
600000
3FFFF8
1C0000
060000
020000
ENDCHAR
STARTCHAR 21D1
ENCODING 8657
SWIDTH 720 0
DWIDTH 22 0
BBX 12 19 5 1
BITMAP
0600
0F00
1980
30C0
30E0
50A0
D0B0
1080
1080
1080
1080
1080
1080
1080
1080
1080
1080
1080
1080
ENDCHAR
STARTCHAR 21D2
ENCODING 8658
SWIDTH 720 0
DWIDTH 22 0
BBX 21 12 0 3
BITMAP
000200
000300
0001C0
FFFFE0
000030
000018
000018
000030
FFFFE0
0001C0
000300
000200
ENDCHAR
STARTCHAR 21D3
ENCODING 8659
SWIDTH 720 0
DWIDTH 22 0
BBX 12 20 5 0
BITMAP
1080
1080
1080
1080
1080
1080
1080
1080
1080
1080
1080
1080
9090
D0B0
70E0
30C0
1980
0F00
0600
0400
ENDCHAR
STARTCHAR 21D4
ENCODING 8660
SWIDTH 720 0
DWIDTH 22 0
BBX 20 12 1 3
BITMAP
020400
0E0700
180180
3FFFC0
600060
C00030
C00030
600060
3FFFC0
180180
0E0700
020400
ENDCHAR
STARTCHAR 21D5
ENCODING 8661
SWIDTH 720 0
DWIDTH 22 0
BBX 14 21 4 -1
BITMAP
0300
0780
0FC0
1CF0
7CF8
CCCC
0CC0
0CC0
0CC0
0CC0
0CC0
0CC0
0CC0
0CC0
0CC0
CCCC
7CF8
1CE0
0FC0
0780
0300
ENDCHAR
STARTCHAR 2200
ENCODING 8704
SWIDTH 589 0
DWIDTH 18 0
BBX 16 18 1 0
BITMAP
E003
E007
6007
700E
700E
380C
3FFC
1FFC
1C38
1C38
0E70
0E70
0670
07E0
07E0
03C0
03C0
01C0
ENDCHAR
STARTCHAR 2202
ENCODING 8706
SWIDTH 490 0
DWIDTH 15 0
BBX 13 23 1 0
BITMAP
7F00
20C0
0060
0060
0030
0030
0038
0018
0018
0018
1F38
3CF8
7078
6038
E038
E030
C070
C070
C060
E0E0
60C0
3180
1F00
ENDCHAR
STARTCHAR 2203
ENCODING 8707
SWIDTH 425 0
DWIDTH 13 0
BBX 9 18 2 0
BITMAP
FF80
FF80
FF80
0180
0180
0180
0180
0180
FF80
FF80
FF80
0180
0180
0180
0180
FF80
FF80
FF80
ENDCHAR
STARTCHAR 2205
ENCODING 8709
SWIDTH 1014 0
DWIDTH 31 0
BBX 24 22 3 0
BITMAP
003E00
00FFC3
03C1E7
07007E
0E003C
1C007C
1800EC
1801CE
300386
300706
301C06
303806
307006
30E006
39C006
1F000C
1E001C
1C0018
3E0030
7380E0
E1FFC0
007F00
ENDCHAR
STARTCHAR 2206
ENCODING 8710
SWIDTH 621 0
DWIDTH 19 0
BBX 18 19 0 0
BITMAP
00E000
01E000
01F000
03B000
03B800
033800
071800
061C00
0E0C00
0E0E00
0C0E00
1C0700
180700
380300
380380
300380
7001C0
7FFFC0
FFFFC0
ENDCHAR
STARTCHAR 2207
ENCODING 8711
SWIDTH 752 0
DWIDTH 23 0
BBX 18 19 2 0
BITMAP
FFFFC0
7FFFC0
700180
300380
380380
380700
1C0700
1C0600
0C0E00
0E0E00
0E1C00
071C00
071800
033800
03B000
01F000
01F000
01E000
00E000
ENDCHAR
STARTCHAR 2208
ENCODING 8712
SWIDTH 1014 0
DWIDTH 31 0
BBX 16 15 7 0
BITMAP
0FFF
3FFF
3000
6000
E000
C000
FFFF
FFFF
C000
E000
6000
6000
3800
3FFF
0FFF
ENDCHAR
STARTCHAR 2209
ENCODING 8713
SWIDTH 1014 0
DWIDTH 31 0
BBX 16 19 7 -1
BITMAP
0006
0004
0FFF
3FFF
3018
6030
E020
C060
FFFF
FFFF
C180
E100
6300
6200
3E00
3FFF
0FFF
1800
1800
ENDCHAR
STARTCHAR 220B
ENCODING 8715
SWIDTH 1014 0
DWIDTH 31 0
BBX 16 15 7 0
BITMAP
FFF0
FFFC
000E
0007
0003
0003
FFFF
FFFF
0003
0003
0003
0007
000E
FFFC
FFF8
ENDCHAR
STARTCHAR 220D
ENCODING 8717
SWIDTH 523 0
DWIDTH 16 0
BBX 13 14 3 0
BITMAP
FF80
FFC0
0060
0030
0030
0018
FFF8
FFF8
0018
0010
0030
0060
FFC0
FF80
ENDCHAR
STARTCHAR 220F
ENCODING 8719
SWIDTH 981 0
DWIDTH 30 0
BBX 23 30 4 -8
BITMAP
FFFFFE
FFFFFE
FFFFFE
1C0070
1C0070
1C0070
1C0070
1C0070
1C0070
1C0070
1C0070
1C0070
1C0070
1C0070
1C0070
1C0070
1C0070
1C0070
1C0070
1C0070
1C0070
1C0070
1C0070
1C0070
1C0070
1C0070
1C0070
FF01FC
FF01FC
FF01FC
ENDCHAR
STARTCHAR 2211
ENCODING 8721
SWIDTH 981 0
DWIDTH 30 0
BBX 15 27 7 -4
BITMAP
FFFE
FFFE
E006
6006
7006
3806
3806
1C00
0C00
0E00
0600
0700
0380
0380
0700
0700
0E00
0E00
1C00
1800
3806
3006
7006
6006
E006
FFFE
FFFE
ENDCHAR
STARTCHAR 2212
ENCODING 8722
SWIDTH 589 0
DWIDTH 18 0
BBX 16 2 1 6
BITMAP
FFFF
FFFF
ENDCHAR
STARTCHAR 2213
ENCODING 8723
SWIDTH 981 0
DWIDTH 30 0
BBX 14 19 8 0
BITMAP
FFFC
FFFC
0000
0000
0000
0300
0300
0300
0300
0300
0300
FFFC
FFFC
0300
0300
0300
0300
0300
0300
ENDCHAR
STARTCHAR 2215
ENCODING 8725
SWIDTH 294 0
DWIDTH 9 0
BBX 14 22 -3 0
BITMAP
0004
000C
0018
0018
0030
0020
0060
00C0
00C0
0180
0300
0300
0600
0400
0C00
1800
1800
3000
2000
6000
C000
8000
ENDCHAR
STARTCHAR 2217
ENCODING 8727
SWIDTH 1014 0
DWIDTH 31 0
BBX 9 9 11 3
BITMAP
1800
1800
DB00
EF80
1C00
7F00
FB00
1900
1800
ENDCHAR
STARTCHAR 2219
ENCODING 8729
SWIDTH 294 0
DWIDTH 9 0
BBX 4 3 3 7
BITMAP
F0
F0
F0
ENDCHAR
STARTCHAR 221A
ENCODING 8730
SWIDTH 458 0
DWIDTH 14 0
BBX 15 29 -1 -1
BITMAP
0002
0002
0002
0002
0006
0004
0004
0004
0004
0004
0004
0008
0808
3808
CC08
0C08
0608
0618
0710
0310
0390
0190
0190
00F0
00E0
0060
0060
0020
0020
ENDCHAR
STARTCHAR 221D
ENCODING 8733
SWIDTH 1014 0
DWIDTH 31 0
BBX 15 9 6 3
BITMAP
3C06
7F1E
E3B8
C1F0
C0E0
C1F0
E3B8
7F1E
3C06
ENDCHAR
STARTCHAR 221E
ENCODING 8734
SWIDTH 720 0
DWIDTH 22 0
BBX 20 9 1 4
BITMAP
000100
7E07E0
C39C60
C1F030
806030
C0F030
C19830
7F0FE0
3C03C0
ENDCHAR
STARTCHAR 221F
ENCODING 8735
SWIDTH 981 0
DWIDTH 30 0
BBX 26 27 2 0
BITMAP
C0000000
C0000000
C0000000
C0000000
C0000000
C0000000
C0000000
C0000000
C0000000
C0000000
C0000000
C0000000
C0000000
C0000000
C0000000
C0000000
C0000000
C0000000
C0000000
C0000000
C0000000
C0000000
C0000000
C0000000
C0000000
FFFFFFC0
FFFFFFC0
ENDCHAR
STARTCHAR 2220
ENCODING 8736
SWIDTH 1014 0
DWIDTH 31 0
BBX 17 13 7 0
BITMAP
000800
001800
003000
006000
00C000
018000
030000
060000
0C0000
180000
300000
600000
FFFF80
ENDCHAR
STARTCHAR 2223
ENCODING 8739
SWIDTH 720 0
DWIDTH 22 0
BBX 2 31 10 -8
BITMAP
C0
C0
C0
C0
C0
C0
C0
C0
C0
C0
C0
C0
C0
C0
C0
C0
C0
C0
C0
C0
C0
C0
C0
C0
C0
C0
C0
C0
C0
C0
C0
ENDCHAR
STARTCHAR 2225
ENCODING 8741
SWIDTH 720 0
DWIDTH 22 0
BBX 6 35 8 -8
BITMAP
8C
8C
8C
8C
8C
8C
8C
8C
8C
8C
8C
8C
8C
8C
8C
8C
8C
8C
8C
8C
8C
8C
8C
8C
8C
8C
8C
8C
8C
8C
8C
8C
8C
8C
8C
ENDCHAR
STARTCHAR 2227
ENCODING 8743
SWIDTH 1014 0
DWIDTH 31 0
BBX 15 16 8 0
BITMAP
0300
0380
0780
07C0
0EC0
0CE0
0C60
1C60
1870
3830
3038
7018
601C
600C
E00C
C00E
ENDCHAR
STARTCHAR 2228
ENCODING 8744
SWIDTH 1014 0
DWIDTH 31 0
BBX 16 16 7 0
BITMAP
E003
6007
7006
300E
380C
181C
1C18
0C18
0C38
0E30
0670
0760
03E0
03C0
01C0
01C0
ENDCHAR
STARTCHAR 2229
ENCODING 8745
SWIDTH 720 0
DWIDTH 22 0
BBX 14 19 4 0
BITMAP
0780
1FF0
7878
6018
E01C
C00C
C00C
C00C
C00C
C00C
C00C
C00C
C00C
C00C
C00C
C00C
C00C
C00C
C00C
ENDCHAR
STARTCHAR 222A
ENCODING 8746
SWIDTH 720 0
DWIDTH 22 0
BBX 14 19 4 0
BITMAP
C00C
C00C
C00C
C00C
C00C
C00C
C00C
C00C
C00C
C00C
C00C
C00C
C00C
C00C
E01C
6018
7878
3FF0
0FC0
ENDCHAR
STARTCHAR 222B
ENCODING 8747
SWIDTH 261 0
DWIDTH 8 0
BBX 9 31 0 -3
BITMAP
0700
0780
0B80
0800
0800
0800
0800
0800
0C00
0C00
0C00
0C00
1C00
1C00
1C00
1C00
1C00
1C00
1C00
0C00
0C00
0C00
0C00
0C00
0C00
0C00
0800
0800
6800
F800
7000
ENDCHAR
STARTCHAR 222E
ENCODING 8750
SWIDTH 981 0
DWIDTH 30 0
BBX 13 38 9 -8
BITMAP
01E0
0270
06F0
0460
0400
0C00
0C00
0C00
0E00
0E00
0E00
0E00
0E00
1F80
3EE0
4F20
8F10
8F10
8F18
8F18
8710
8710
4720
6760
1F80
0700
0700
0700
0700
0300
0300
0300
0300
0200
6200
F200
7400
7800
ENDCHAR
STARTCHAR 2234
ENCODING 8756
SWIDTH 1014 0
DWIDTH 31 0
BBX 19 19 6 0
BITMAP
00E000
01E000
01E000
00C000
000000
000000
000000
000000
000000
000000
000000
000000
000000
000000
000000
E001C0
F001E0
F001E0
E001C0
ENDCHAR
STARTCHAR 2235
ENCODING 8757
SWIDTH 981 0
DWIDTH 30 0
BBX 19 19 6 0
BITMAP
E001C0
F001E0
F001E0
E001C0
000000
000000
000000
000000
000000
000000
000000
000000
000000
000000
000000
00E000
01E000
01E000
00C000
ENDCHAR
STARTCHAR 2237
ENCODING 8759
SWIDTH 981 0
DWIDTH 30 0
BBX 19 19 6 0
BITMAP
E001C0
F001E0
F001E0
E001C0
000000
000000
000000
000000
000000
000000
000000
000000
000000
000000
000000
E001C0
F001E0
F001E0
E001C0
ENDCHAR
STARTCHAR 2245
ENCODING 8773
SWIDTH 1014 0
DWIDTH 31 0
BBX 15 10 8 3
BITMAP
3E04
7FFC
C0F8
0000
FFFE
FFFE
0000
0000
FFFE
FFFE
ENDCHAR
STARTCHAR 2248
ENCODING 8776
SWIDTH 556 0
DWIDTH 17 0
BBX 14 9 1 2
BITMAP
1C04
7F8C
67FC
C0F8
0000
1C04
7F8C
67FC
C0F8
ENDCHAR
STARTCHAR 2260
ENCODING 8800
SWIDTH 556 0
DWIDTH 17 0
BBX 15 16 1 -1
BITMAP
0020
0060
0060
00C0
FFFE
FFFE
0180
0300
0300
0600
FFFE
FFFE
0C00
1800
3000
3000
ENDCHAR
STARTCHAR 2261
ENCODING 8801
SWIDTH 589 0
DWIDTH 18 0
BBX 14 12 2 1
BITMAP
FFFC
FFFC
0000
0000
0000
FFFC
FFFC
0000
0000
0000
FFFC
FFFC
ENDCHAR
STARTCHAR 2262
ENCODING 8802
SWIDTH 981 0
DWIDTH 30 0
BBX 14 17 8 0
BITMAP
0030
0030
FFFC
FFFC
00C0
0180
0180
FFFC
FFFC
0600
0600
0C00
0C00
FFFC
FFFC
3000
6000
ENDCHAR
STARTCHAR 2264
ENCODING 8804
SWIDTH 556 0
DWIDTH 17 0
BBX 15 20 1 0
BITMAP
0002
000E
007E
01F0
07C0
3F00
F800
E000
F800
3F00
0FC0
01F0
007E
001E
0002
0000
0000
0000
FFFE
FFFE
ENDCHAR
STARTCHAR 2265
ENCODING 8805
SWIDTH 556 0
DWIDTH 17 0
BBX 15 20 1 0
BITMAP
8000
E000
F800
3F00
07C0
01F8
007E
000E
003E
01F8
07C0
3F00
FC00
E000
8000
0000
0000
0000
FFFE
FFFE
ENDCHAR
STARTCHAR 226A
ENCODING 8810
SWIDTH 981 0
DWIDTH 30 0
BBX 20 19 5 -1
BITMAP
000010
000070
0001F0
0007C0
003F00
00F830
03E1F0
0F87C0
7E1F00
F07C00
F83E00
1F0F80
07C3F0
01F070
007E10
000F80
0003E0
0000F0
000030
ENDCHAR
STARTCHAR 226B
ENCODING 8811
SWIDTH 981 0
DWIDTH 30 0
BBX 20 19 5 -1
BITMAP
800000
E00000
F80000
3F0000
07C000
E1F000
F87C00
3E1F80
0FC3E0
01F0F0
07E1F0
1F07C0
7C3E00
F0F800
C3E000
0F8000
7C0000
F00000
C00000
ENDCHAR
STARTCHAR 2282
ENCODING 8834
SWIDTH 1014 0
DWIDTH 31 0
BBX 16 15 7 0
BITMAP
0FFF
3FFF
3800
6000
6000
C000
C000
C000
C000
C000
6000
6000
3800
3FFF
0FFF
ENDCHAR
STARTCHAR 2283
ENCODING 8835
SWIDTH 1014 0
DWIDTH 31 0
BBX 16 15 7 0
BITMAP
FFF0
FFFC
000E
0007
0003
0003
0003
0003
0003
0003
0003
0007
000E
FFFC
FFF8
ENDCHAR
STARTCHAR 2284
ENCODING 8836
SWIDTH 1014 0
DWIDTH 31 0
BBX 16 19 7 -2
BITMAP
0003
0006
0FFF
3FFF
3808
6018
6030
C030
C060
C040
C0C0
C180
6180
6300
7A00
3FFF
0FFF
0C00
0800
ENDCHAR
STARTCHAR 2285
ENCODING 8837
SWIDTH 981 0
DWIDTH 30 0
BBX 16 19 7 -2
BITMAP
6000
6000
FFF0
FFFC
180E
0C07
0C03
0603
0203
0303
0103
0183
00C3
0047
006E
FFFC
FFF0
0018
0010
ENDCHAR
STARTCHAR 2286
ENCODING 8838
SWIDTH 1014 0
DWIDTH 31 0
BBX 16 18 7 0
BITMAP
0FFF
3FFF
3000
6000
6000
C000
C000
C000
C000
E000
6000
6000
3800
1FFF
0FFF
0000
FFFF
FFFF
ENDCHAR
STARTCHAR 2287
ENCODING 8839
SWIDTH 1014 0
DWIDTH 31 0
BBX 16 18 7 0
BITMAP
FFF0
FFFC
000E
0007
0003
0003
0003
0003
0003
0003
0003
0007
000E
FFFC
FFF0
0000
FFFF
FFFF
ENDCHAR
STARTCHAR 2295
ENCODING 8853
SWIDTH 1014 0
DWIDTH 31 0
BBX 22 22 4 0
BITMAP
00FE00
03FF80
0E31C0
1C3060
383030
303018
603018
60300C
40300C
C0300C
FFFFFC
FFFFFC
C0300C
40300C
60300C
603018
303018
383030
1C3060
0F31C0
03FF80
00FE00
ENDCHAR
STARTCHAR 2296
ENCODING 8854
SWIDTH 981 0
DWIDTH 30 0
BBX 22 22 4 -1
BITMAP
00FE00
03FF80
0F01C0
1C00E0
380030
300018
600018
60000C
40000C
C0000C
FFFFFC
FFFFFC
C0000C
40000C
60000C
600018
300018
380030
1C00E0
0F03C0
03FF00
00FC00
ENDCHAR
STARTCHAR 2297
ENCODING 8855
SWIDTH 1014 0
DWIDTH 31 0
BBX 22 22 4 0
BITMAP
00FE00
03FF80
0F01C0
1C0060
1C00F0
3601D8
630398
61870C
40CE0C
C07C0C
C0380C
C0780C
C0EC0C
41C60C
63830C
670198
3E00D8
3C0070
1C0060
0F01C0
03FF80
00FC00
ENDCHAR
STARTCHAR 2298
ENCODING 8856
SWIDTH 981 0
DWIDTH 30 0
BBX 22 22 4 0
BITMAP
00FE00
03FF80
0F01C0
1C00E0
3800F0
3001D8
600398
60070C
400E0C
C01C0C
C0380C
C0700C
C0E00C
41C00C
63800C
670018
3E0018
3C0030
1C0060
0F01C0
03FF80
00FC00
ENDCHAR
STARTCHAR 2299
ENCODING 8857
SWIDTH 981 0
DWIDTH 30 0
BBX 22 22 4 -1
BITMAP
00FE00
03FF80
0F01C0
1C0060
380030
300018
600018
60000C
40000C
C0300C
C0780C
C0780C
C0300C
40000C
60000C
600018
300018
380030
1C00E0
0F03C0
03FF00
00FC00
ENDCHAR
STARTCHAR 22A2
ENCODING 8866
SWIDTH 981 0
DWIDTH 30 0
BBX 19 17 6 0
BITMAP
C00000
C00000
C00000
C00000
C00000
C00000
C00000
FFFFE0
FFFFE0
C00000
C00000
C00000
C00000
C00000
C00000
C00000
C00000
ENDCHAR
STARTCHAR 22A3
ENCODING 8867
SWIDTH 981 0
DWIDTH 30 0
BBX 19 17 6 0
BITMAP
000060
000060
000060
000060
000060
000060
000060
FFFFE0
FFFFE0
000060
000060
000060
000060
000060
000060
000060
000060
ENDCHAR
STARTCHAR 22A4
ENCODING 8868
SWIDTH 981 0
DWIDTH 30 0
BBX 16 19 7 0
BITMAP
FFFF
FFFF
0180
0180
0180
0180
0180
0180
0180
0180
0180
0180
0180
0180
0180
0180
0180
0180
0180
ENDCHAR
STARTCHAR 22A5
ENCODING 8869
SWIDTH 1014 0
DWIDTH 31 0
BBX 18 18 6 0
BITMAP
00C000
00C000
00C000
00C000
00C000
00C000
00C000
00C000
00C000
00C000
00C000
00C000
00C000
00C000
00C000
00C000
FFFFC0
FFFFC0
ENDCHAR
STARTCHAR 22BB
ENCODING 8891
SWIDTH 981 0
DWIDTH 30 0
BBX 17 22 7 -4
BITMAP
C00380
C00300
600300
600600
700600
300E00
300C00
181C00
181800
1C1800
0C3000
0E3000
067000
066000
03E000
03C000
03C000
018000
000000
000000
FFFF80
FFFF80
ENDCHAR
STARTCHAR 2302
ENCODING 8962
SWIDTH 589 0
DWIDTH 18 0
BBX 16 22 1 0
BITMAP
0080
0180
03C0
0660
0630
0C18
1818
300C
6006
6003
C001
C001
C001
C001
C001
C001
C001
C001
C001
C001
FFFF
FFFF
ENDCHAR
STARTCHAR 2310
ENCODING 8976
SWIDTH 589 0
DWIDTH 18 0
BBX 16 9 1 2
BITMAP
FFFF
FFFF
C000
C000
C000
C000
C000
C000
C000
ENDCHAR
STARTCHAR 2320
ENCODING 8992
SWIDTH 589 0
DWIDTH 18 0
BBX 5 35 8 -7
BITMAP
38
78
78
40
C0
C0
C0
C0
C0
C0
C0
C0
C0
C0
C0
C0
C0
C0
C0
C0
C0
C0
C0
C0
C0
C0
C0
C0
C0
C0
C0
C0
C0
C0
C0
ENDCHAR
STARTCHAR 2321
ENCODING 8993
SWIDTH 589 0
DWIDTH 18 0
BBX 5 34 5 -6
BITMAP
18
18
18
18
18
18
18
18
18
18
18
18
18
18
18
18
18
18
18
18
18
18
18
18
18
18
18
18
08
08
08
48
F0
F0
ENDCHAR
STARTCHAR 2329
ENCODING 9001
SWIDTH 327 0
DWIDTH 10 0
BBX 6 22 2 -4
BITMAP
04
0C
0C
18
18
30
30
70
60
E0
C0
E0
60
60
30
30
18
18
08
0C
04
04
ENDCHAR
STARTCHAR 232A
ENCODING 9002
SWIDTH 327 0
DWIDTH 10 0
BBX 6 22 2 -4
BITMAP
80
C0
40
60
60
30
30
18
18
1C
0C
0C
18
18
30
30
20
60
40
C0
80
80
ENDCHAR
STARTCHAR 2500
ENCODING 9472
SWIDTH 1014 0
DWIDTH 31 0
BBX 31 2 0 7
BITMAP
FFFFFFFE
FFFFFFFE
ENDCHAR
STARTCHAR 2502
ENCODING 9474
SWIDTH 1014 0
DWIDTH 31 0
BBX 2 31 14 -8
BITMAP
C0
C0
C0
C0
C0
C0
C0
C0
C0
C0
C0
C0
C0
C0
C0
C0
C0
C0
C0
C0
C0
C0
C0
C0
C0
C0
C0
C0
C0
C0
C0
ENDCHAR
STARTCHAR 250C
ENCODING 9484
SWIDTH 1014 0
DWIDTH 31 0
BBX 17 16 14 -7
BITMAP
FFFF80
FFFF80
C00000
C00000
C00000
C00000
C00000
C00000
C00000
C00000
C00000
C00000
C00000
C00000
C00000
C00000
ENDCHAR
STARTCHAR 2510
ENCODING 9488
SWIDTH 1014 0
DWIDTH 31 0
BBX 16 16 0 -7
BITMAP
FFFF
FFFF
0003
0003
0003
0003
0003
0003
0003
0003
0003
0003
0003
0003
0003
0003
ENDCHAR
STARTCHAR 2514
ENCODING 9492
SWIDTH 1014 0
DWIDTH 31 0
BBX 17 16 14 7
BITMAP
C00000
C00000
C00000
C00000
C00000
C00000
C00000
C00000
C00000
C00000
C00000
C00000
C00000
C00000
FFFF80
FFFF80
ENDCHAR
STARTCHAR 2518
ENCODING 9496
SWIDTH 1014 0
DWIDTH 31 0
BBX 16 16 0 7
BITMAP
0003
0003
0003
0003
0003
0003
0003
0003
0003
0003
0003
0003
0003
0003
FFFF
FFFF
ENDCHAR
STARTCHAR 251C
ENCODING 9500
SWIDTH 1014 0
DWIDTH 31 0
BBX 17 30 14 -7
BITMAP
C00000
C00000
C00000
C00000
C00000
C00000
C00000
C00000
C00000
C00000
C00000
C00000
C00000
C00000
FFFF80
FFFF80
C00000
C00000
C00000
C00000
C00000
C00000
C00000
C00000
C00000
C00000
C00000
C00000
C00000
C00000
ENDCHAR
STARTCHAR 2524
ENCODING 9508
SWIDTH 1014 0
DWIDTH 31 0
BBX 16 30 0 -7
BITMAP
0003
0003
0003
0003
0003
0003
0003
0003
0003
0003
0003
0003
0003
0003
FFFF
FFFF
0003
0003
0003
0003
0003
0003
0003
0003
0003
0003
0003
0003
0003
0003
ENDCHAR
STARTCHAR 252C
ENCODING 9516
SWIDTH 1014 0
DWIDTH 31 0
BBX 31 16 0 -7
BITMAP
FFFFFFFE
FFFFFFFE
00030000
00030000
00030000
00030000
00030000
00030000
00030000
00030000
00030000
00030000
00030000
00030000
00030000
00030000
ENDCHAR
STARTCHAR 2534
ENCODING 9524
SWIDTH 1014 0
DWIDTH 31 0
BBX 31 16 0 7
BITMAP
00030000
00030000
00030000
00030000
00030000
00030000
00030000
00030000
00030000
00030000
00030000
00030000
00030000
00030000
FFFFFFFE
FFFFFFFE
ENDCHAR
STARTCHAR 253C
ENCODING 9532
SWIDTH 1014 0
DWIDTH 31 0
BBX 31 30 0 -7
BITMAP
00030000
00030000
00030000
00030000
00030000
00030000
00030000
00030000
00030000
00030000
00030000
00030000
00030000
00030000
FFFFFFFE
FFFFFFFE
00030000
00030000
00030000
00030000
00030000
00030000
00030000
00030000
00030000
00030000
00030000
00030000
00030000
00030000
ENDCHAR
STARTCHAR 2550
ENCODING 9552
SWIDTH 1014 0
DWIDTH 31 0
BBX 31 6 0 5
BITMAP
FFFFFFFE
FFFFFFFE
00000000
00000000
FFFFFFFE
FFFFFFFE
ENDCHAR
STARTCHAR 2551
ENCODING 9553
SWIDTH 1014 0
DWIDTH 31 0
BBX 6 31 12 -8
BITMAP
CC
CC
CC
CC
CC
CC
CC
CC
CC
CC
CC
CC
CC
CC
CC
CC
CC
CC
CC
CC
CC
CC
CC
CC
CC
CC
CC
CC
CC
CC
CC
ENDCHAR
STARTCHAR 2552
ENCODING 9554
SWIDTH 1014 0
DWIDTH 31 0
BBX 17 18 14 -7
BITMAP
FFFF80
FFFF80
C00000
C00000
FFFF80
FFFF80
C00000
C00000
C00000
C00000
C00000
C00000
C00000
C00000
C00000
C00000
C00000
C00000
ENDCHAR
STARTCHAR 2553
ENCODING 9555
SWIDTH 1014 0
DWIDTH 31 0
BBX 19 16 12 -7
BITMAP
FFFFE0
FFFFE0
CC0000
CC0000
CC0000
CC0000
CC0000
CC0000
CC0000
CC0000
CC0000
CC0000
CC0000
CC0000
CC0000
CC0000
ENDCHAR
STARTCHAR 2554
ENCODING 9556
SWIDTH 1014 0
DWIDTH 31 0
BBX 19 18 12 -7
BITMAP
FFFFE0
FFFFE0
C00000
C00000
CFFFE0
CFFFE0
CC0000
CC0000
CC0000
CC0000
CC0000
CC0000
CC0000
CC0000
CC0000
CC0000
CC0000
CC0000
ENDCHAR
STARTCHAR 2555
ENCODING 9557
SWIDTH 1014 0
DWIDTH 31 0
BBX 16 18 0 -7
BITMAP
FFFF
FFFF
0003
0003
FFFF
FFFF
0003
0003
0003
0003
0003
0003
0003
0003
0003
0003
0003
0003
ENDCHAR
STARTCHAR 2556
ENCODING 9558
SWIDTH 1014 0
DWIDTH 31 0
BBX 18 16 0 -7
BITMAP
FFFFC0
FFFFC0
000CC0
000CC0
000CC0
000CC0
000CC0
000CC0
000CC0
000CC0
000CC0
000CC0
000CC0
000CC0
000CC0
000CC0
ENDCHAR
STARTCHAR 2557
ENCODING 9559
SWIDTH 1014 0
DWIDTH 31 0
BBX 18 18 0 -7
BITMAP
FFFFC0
FFFFC0
0000C0
0000C0
FFFCC0
FFFCC0
000CC0
000CC0
000CC0
000CC0
000CC0
000CC0
000CC0
000CC0
000CC0
000CC0
000CC0
000CC0
ENDCHAR
STARTCHAR 2558
ENCODING 9560
SWIDTH 1014 0
DWIDTH 31 0
BBX 17 18 14 5
BITMAP
C00000
C00000
C00000
C00000
C00000
C00000
C00000
C00000
C00000
C00000
C00000
C00000
FFFF80
FFFF80
C00000
C00000
FFFF80
FFFF80
ENDCHAR
STARTCHAR 2559
ENCODING 9561
SWIDTH 1014 0
DWIDTH 31 0
BBX 19 16 12 7
BITMAP
CC0000
CC0000
CC0000
CC0000
CC0000
CC0000
CC0000
CC0000
CC0000
CC0000
CC0000
CC0000
CC0000
CC0000
FFFFE0
FFFFE0
ENDCHAR
STARTCHAR 255A
ENCODING 9562
SWIDTH 1014 0
DWIDTH 31 0
BBX 19 18 12 5
BITMAP
CC0000
CC0000
CC0000
CC0000
CC0000
CC0000
CC0000
CC0000
CC0000
CC0000
CC0000
CC0000
CFFFE0
CFFFE0
C00000
C00000
FFFFE0
FFFFE0
ENDCHAR
STARTCHAR 255B
ENCODING 9563
SWIDTH 1014 0
DWIDTH 31 0
BBX 16 18 0 5
BITMAP
0003
0003
0003
0003
0003
0003
0003
0003
0003
0003
0003
0003
FFFF
FFFF
0003
0003
FFFF
FFFF
ENDCHAR
STARTCHAR 255C
ENCODING 9564
SWIDTH 1014 0
DWIDTH 31 0
BBX 18 16 0 7
BITMAP
000CC0
000CC0
000CC0
000CC0
000CC0
000CC0
000CC0
000CC0
000CC0
000CC0
000CC0
000CC0
000CC0
000CC0
FFFFC0
FFFFC0
ENDCHAR
STARTCHAR 255D
ENCODING 9565
SWIDTH 1014 0
DWIDTH 31 0
BBX 18 18 0 5
BITMAP
000CC0
000CC0
000CC0
000CC0
000CC0
000CC0
000CC0
000CC0
000CC0
000CC0
000CC0
000CC0
FFFCC0
FFFCC0
0000C0
0000C0
FFFFC0
FFFFC0
ENDCHAR
STARTCHAR 255E
ENCODING 9566
SWIDTH 1014 0
DWIDTH 31 0
BBX 17 30 14 -7
BITMAP
C00000
C00000
C00000
C00000
C00000
C00000
C00000
C00000
C00000
C00000
C00000
C00000
FFFF80
FFFF80
C00000
C00000
FFFF80
FFFF80
C00000
C00000
C00000
C00000
C00000
C00000
C00000
C00000
C00000
C00000
C00000
C00000
ENDCHAR
STARTCHAR 255F
ENCODING 9567
SWIDTH 1014 0
DWIDTH 31 0
BBX 19 30 12 -7
BITMAP
CC0000
CC0000
CC0000
CC0000
CC0000
CC0000
CC0000
CC0000
CC0000
CC0000
CC0000
CC0000
CC0000
CC0000
CFFFE0
CFFFE0
CC0000
CC0000
CC0000
CC0000
CC0000
CC0000
CC0000
CC0000
CC0000
CC0000
CC0000
CC0000
CC0000
CC0000
ENDCHAR
STARTCHAR 2560
ENCODING 9568
SWIDTH 1014 0
DWIDTH 31 0
BBX 19 30 12 -7
BITMAP
CC0000
CC0000
CC0000
CC0000
CC0000
CC0000
CC0000
CC0000
CC0000
CC0000
CC0000
CC0000
CFFFE0
CFFFE0
C00000
C00000
CFFFE0
CFFFE0
CC0000
CC0000
CC0000
CC0000
CC0000
CC0000
CC0000
CC0000
CC0000
CC0000
CC0000
CC0000
ENDCHAR
STARTCHAR 2561
ENCODING 9569
SWIDTH 1014 0
DWIDTH 31 0
BBX 16 30 0 -7
BITMAP
0003
0003
0003
0003
0003
0003
0003
0003
0003
0003
0003
0003
FFFF
FFFF
0003
0003
FFFF
FFFF
0003
0003
0003
0003
0003
0003
0003
0003
0003
0003
0003
0003
ENDCHAR
STARTCHAR 2562
ENCODING 9570
SWIDTH 1014 0
DWIDTH 31 0
BBX 18 30 0 -7
BITMAP
000CC0
000CC0
000CC0
000CC0
000CC0
000CC0
000CC0
000CC0
000CC0
000CC0
000CC0
000CC0
000CC0
000CC0
FFFCC0
FFFCC0
000CC0
000CC0
000CC0
000CC0
000CC0
000CC0
000CC0
000CC0
000CC0
000CC0
000CC0
000CC0
000CC0
000CC0
ENDCHAR
STARTCHAR 2563
ENCODING 9571
SWIDTH 1014 0
DWIDTH 31 0
BBX 18 30 0 -7
BITMAP
000CC0
000CC0
000CC0
000CC0
000CC0
000CC0
000CC0
000CC0
000CC0
000CC0
000CC0
000CC0
FFFCC0
FFFCC0
0000C0
0000C0
FFFCC0
FFFCC0
000CC0
000CC0
000CC0
000CC0
000CC0
000CC0
000CC0
000CC0
000CC0
000CC0
000CC0
000CC0
ENDCHAR
STARTCHAR 2564
ENCODING 9572
SWIDTH 1014 0
DWIDTH 31 0
BBX 31 18 0 -7
BITMAP
FFFFFFFE
FFFFFFFE
00000000
00000000
FFFFFFFE
FFFFFFFE
00030000
00030000
00030000
00030000
00030000
00030000
00030000
00030000
00030000
00030000
00030000
00030000
ENDCHAR
STARTCHAR 2565
ENCODING 9573
SWIDTH 1014 0
DWIDTH 31 0
BBX 31 16 0 -7
BITMAP
FFFFFFFE
FFFFFFFE
000CC000
000CC000
000CC000
000CC000
000CC000
000CC000
000CC000
000CC000
000CC000
000CC000
000CC000
000CC000
000CC000
000CC000
ENDCHAR
STARTCHAR 2566
ENCODING 9574
SWIDTH 1014 0
DWIDTH 31 0
BBX 31 18 0 -7
BITMAP
FFFFFFFE
FFFFFFFE
00000000
00000000
FFFCFFFE
FFFCFFFE
000CC000
000CC000
000CC000
000CC000
000CC000
000CC000
000CC000
000CC000
000CC000
000CC000
000CC000
000CC000
ENDCHAR
STARTCHAR 2567
ENCODING 9575
SWIDTH 1014 0
DWIDTH 31 0
BBX 31 18 0 5
BITMAP
00030000
00030000
00030000
00030000
00030000
00030000
00030000
00030000
00030000
00030000
00030000
00030000
FFFFFFFE
FFFFFFFE
00000000
00000000
FFFFFFFE
FFFFFFFE
ENDCHAR
STARTCHAR 2568
ENCODING 9576
SWIDTH 1014 0
DWIDTH 31 0
BBX 31 16 0 7
BITMAP
000CC000
000CC000
000CC000
000CC000
000CC000
000CC000
000CC000
000CC000
000CC000
000CC000
000CC000
000CC000
000CC000
000CC000
FFFFFFFE
FFFFFFFE
ENDCHAR
STARTCHAR 2569
ENCODING 9577
SWIDTH 1014 0
DWIDTH 31 0
BBX 31 18 0 5
BITMAP
000CC000
000CC000
000CC000
000CC000
000CC000
000CC000
000CC000
000CC000
000CC000
000CC000
000CC000
000CC000
FFFCFFFE
FFFCFFFE
00000000
00000000
FFFFFFFE
FFFFFFFE
ENDCHAR
STARTCHAR 256A
ENCODING 9578
SWIDTH 1014 0
DWIDTH 31 0
BBX 31 30 0 -7
BITMAP
00030000
00030000
00030000
00030000
00030000
00030000
00030000
00030000
00030000
00030000
00030000
00030000
FFFFFFFE
FFFFFFFE
00030000
00030000
FFFFFFFE
FFFFFFFE
00030000
00030000
00030000
00030000
00030000
00030000
00030000
00030000
00030000
00030000
00030000
00030000
ENDCHAR
STARTCHAR 256B
ENCODING 9579
SWIDTH 1014 0
DWIDTH 31 0
BBX 31 30 0 -7
BITMAP
000CC000
000CC000
000CC000
000CC000
000CC000
000CC000
000CC000
000CC000
000CC000
000CC000
000CC000
000CC000
000CC000
000CC000
FFFFFFFE
FFFFFFFE
000CC000
000CC000
000CC000
000CC000
000CC000
000CC000
000CC000
000CC000
000CC000
000CC000
000CC000
000CC000
000CC000
000CC000
ENDCHAR
STARTCHAR 256C
ENCODING 9580
SWIDTH 1014 0
DWIDTH 31 0
BBX 31 30 0 -7
BITMAP
000CC000
000CC000
000CC000
000CC000
000CC000
000CC000
000CC000
000CC000
000CC000
000CC000
000CC000
000CC000
FFFCFFFE
FFFCFFFE
00000000
00000000
FFFCFFFE
FFFCFFFE
000CC000
000CC000
000CC000
000CC000
000CC000
000CC000
000CC000
000CC000
000CC000
000CC000
000CC000
000CC000
ENDCHAR
STARTCHAR 256D
ENCODING 9581
SWIDTH 981 0
DWIDTH 30 0
BBX 17 16 14 -7
BITMAP
003F80
01FF80
07C000
0E0000
1C0000
380000
300000
600000
600000
600000
400000
C00000
C00000
C00000
C00000
C00000
ENDCHAR
STARTCHAR 256E
ENCODING 9582
SWIDTH 981 0
DWIDTH 30 0
BBX 16 16 0 -7
BITMAP
FC00
FFC0
03E0
0070
0038
000C
000E
0006
0007
0003
0003
0003
0003
0003
0003
0003
ENDCHAR
STARTCHAR 256F
ENCODING 9583
SWIDTH 981 0
DWIDTH 30 0
BBX 16 16 0 7
BITMAP
0003
0003
0003
0003
0003
0003
0003
0003
0006
0006
000C
0018
0078
01E0
FFC0
FE00
ENDCHAR
STARTCHAR 2570
ENCODING 9584
SWIDTH 981 0
DWIDTH 30 0
BBX 17 16 14 7
BITMAP
C00000
C00000
C00000
C00000
C00000
C00000
600000
600000
600000
300000
380000
1C0000
0E0000
07C000
01FF80
003F80
ENDCHAR
STARTCHAR 2580
ENCODING 9600
SWIDTH 1014 0
DWIDTH 31 0
BBX 31 15 0 8
BITMAP
FFFFFFFE
FFFFFFFE
FFFFFFFE
FFFFFFFE
FFFFFFFE
FFFFFFFE
FFFFFFFE
FFFFFFFE
FFFFFFFE
FFFFFFFE
FFFFFFFE
FFFFFFFE
FFFFFFFE
FFFFFFFE
FFFFFFFE
ENDCHAR
STARTCHAR 2584
ENCODING 9604
SWIDTH 1014 0
DWIDTH 31 0
BBX 31 16 0 -8
BITMAP
FFFFFFFE
FFFFFFFE
FFFFFFFE
FFFFFFFE
FFFFFFFE
FFFFFFFE
FFFFFFFE
FFFFFFFE
FFFFFFFE
FFFFFFFE
FFFFFFFE
FFFFFFFE
FFFFFFFE
FFFFFFFE
FFFFFFFE
FFFFFFFE
ENDCHAR
STARTCHAR 2588
ENCODING 9608
SWIDTH 1014 0
DWIDTH 31 0
BBX 31 31 0 -8
BITMAP
FFFFFFFE
FFFFFFFE
FFFFFFFE
FFFFFFFE
FFFFFFFE
FFFFFFFE
FFFFFFFE
FFFFFFFE
FFFFFFFE
FFFFFFFE
FFFFFFFE
FFFFFFFE
FFFFFFFE
FFFFFFFE
FFFFFFFE
FFFFFFFE
FFFFFFFE
FFFFFFFE
FFFFFFFE
FFFFFFFE
FFFFFFFE
FFFFFFFE
FFFFFFFE
FFFFFFFE
FFFFFFFE
FFFFFFFE
FFFFFFFE
FFFFFFFE
FFFFFFFE
FFFFFFFE
FFFFFFFE
ENDCHAR
STARTCHAR 258C
ENCODING 9612
SWIDTH 1014 0
DWIDTH 31 0
BBX 15 31 0 -8
BITMAP
FFFE
FFFE
FFFE
FFFE
FFFE
FFFE
FFFE
FFFE
FFFE
FFFE
FFFE
FFFE
FFFE
FFFE
FFFE
FFFE
FFFE
FFFE
FFFE
FFFE
FFFE
FFFE
FFFE
FFFE
FFFE
FFFE
FFFE
FFFE
FFFE
FFFE
FFFE
ENDCHAR
STARTCHAR 2590
ENCODING 9616
SWIDTH 1014 0
DWIDTH 31 0
BBX 16 31 15 -8
BITMAP
FFFF
FFFF
FFFF
FFFF
FFFF
FFFF
FFFF
FFFF
FFFF
FFFF
FFFF
FFFF
FFFF
FFFF
FFFF
FFFF
FFFF
FFFF
FFFF
FFFF
FFFF
FFFF
FFFF
FFFF
FFFF
FFFF
FFFF
FFFF
FFFF
FFFF
FFFF
ENDCHAR
STARTCHAR 2591
ENCODING 9617
SWIDTH 981 0
DWIDTH 30 0
BBX 25 25 1 -2
BITMAP
F83E0F80
F83E0F80
F83E0F80
F83E0F80
F83E0F80
00000000
00000000
00000000
00000000
00000000
F83E0F80
F83E0F80
F83E0F80
F83E0F80
F83E0F80
00000000
00000000
00000000
00000000
00000000
F83E0F80
F83E0F80
F83E0F80
F83E0F80
F83E0F80
ENDCHAR
STARTCHAR 2592
ENCODING 9618
SWIDTH 981 0
DWIDTH 30 0
BBX 31 30 0 -7
BITMAP
F83E0F80
F83E0F80
F83E0F80
F83E0F80
F83E0F80
07C1F07E
07C1F07E
07C1F07E
07C1F07E
07C1F07E
F83E0F80
F83E0F80
F83E0F80
F83E0F80
F83E0F80
07C1F07E
07C1F07E
07C1F07E
07C1F07E
07C1F07E
F83E0F80
F83E0F80
F83E0F80
F83E0F80
F83E0F80
07C1F07E
07C1F07E
07C1F07E
07C1F07E
07C1F07E
ENDCHAR
STARTCHAR 2593
ENCODING 9619
SWIDTH 981 0
DWIDTH 30 0
BBX 31 30 0 -7
BITMAP
FFFFFFFE
FFFFFFFE
FFFFFFFE
FFFFFFFE
FFFFFFFE
F83E0F80
F83E0F80
F83E0F80
F83E0F80
F83E0F80
FFFFFFFE
FFFFFFFE
FFFFFFFE
FFFFFFFE
FFFFFFFE
F83E0F80
F83E0F80
F83E0F80
F83E0F80
F83E0F80
FFFFFFFE
FFFFFFFE
FFFFFFFE
FFFFFFFE
FFFFFFFE
F83E0F80
F83E0F80
F83E0F80
F83E0F80
F83E0F80
ENDCHAR
STARTCHAR 25A0
ENCODING 9632
SWIDTH 589 0
DWIDTH 18 0
BBX 22 22 -2 0
BITMAP
FFFFFC
FFFFFC
FFFFFC
FFFFFC
FFFFFC
FFFFFC
FFFFFC
FFFFFC
FFFFFC
FFFFFC
FFFFFC
FFFFFC
FFFFFC
FFFFFC
FFFFFC
FFFFFC
FFFFFC
FFFFFC
FFFFFC
FFFFFC
FFFFFC
FFFFFC
ENDCHAR
STARTCHAR 25A1
ENCODING 9633
SWIDTH 589 0
DWIDTH 18 0
BBX 16 16 1 0
BITMAP
FFFF
FFFF
C001
C001
C001
C001
C001
C001
C001
C001
C001
C001
C001
C001
FFFF
FFFF
ENDCHAR
STARTCHAR 25AA
ENCODING 9642
SWIDTH 360 0
DWIDTH 11 0
BBX 8 8 1 4
BITMAP
FF
FF
FF
FF
FF
FF
FF
FF
ENDCHAR
STARTCHAR 25AB
ENCODING 9643
SWIDTH 360 0
DWIDTH 11 0
BBX 8 8 1 4
BITMAP
FF
FF
C1
C1
C1
C1
FF
FF
ENDCHAR
STARTCHAR 25AC
ENCODING 9644
SWIDTH 1014 0
DWIDTH 31 0
BBX 22 11 4 0
BITMAP
FFFFFC
FFFFFC
FFFFFC
FFFFFC
FFFFFC
FFFFFC
FFFFFC
FFFFFC
FFFFFC
FFFFFC
FFFFFC
ENDCHAR
STARTCHAR 25B2
ENCODING 9650
SWIDTH 981 0
DWIDTH 30 0
BBX 18 17 6 2
BITMAP
004000
00C000
00E000
01E000
01F000
03F000
03F800
07F800
0FFC00
0FFC00
1FFE00
1FFE00
3FFF00
3FFF00
7FFF80
7FFFC0
FFFFC0
ENDCHAR
STARTCHAR 25B5
ENCODING 9653
SWIDTH 720 0
DWIDTH 22 0
BBX 14 14 4 2
BITMAP
0300
0300
0780
0780
0CC0
0CC0
1860
1860
3030
3030
6018
6018
FFFC
FFFC
ENDCHAR
STARTCHAR 25B9
ENCODING 9657
SWIDTH 720 0
DWIDTH 22 0
BBX 14 14 4 2
BITMAP
C000
F000
FC00
CF00
C3C0
C0F0
C03C
C078
C1E0
C780
DE00
F800
E000
8000
ENDCHAR
STARTCHAR 25BA
ENCODING 9658
SWIDTH 981 0
DWIDTH 30 0
BBX 17 12 7 4
BITMAP
C00000
F00000
FE0000
FFC000
FFF800
FFFF00
FFFF80
FFF800
FFE000
FF0000
F80000
C00000
ENDCHAR
STARTCHAR 25BC
ENCODING 9660
SWIDTH 981 0
DWIDTH 30 0
BBX 18 16 6 1
BITMAP
FFFFC0
7FFF80
7FFF80
3FFF00
1FFF00
1FFE00
0FFE00
0FFC00
07FC00
07F800
03F800
03F000
01E000
01E000
00C000
00C000
ENDCHAR
STARTCHAR 25BF
ENCODING 9663
SWIDTH 720 0
DWIDTH 22 0
BBX 14 14 4 1
BITMAP
FFFC
FFFC
6018
6018
3030
3030
1860
1860
0CC0
0CC0
0780
0780
0300
0300
ENDCHAR
STARTCHAR 25C3
ENCODING 9667
SWIDTH 720 0
DWIDTH 22 0
BBX 14 14 4 2
BITMAP
000C
003C
00FC
03CC
0F0C
3C0C
F00C
780C
1E0C
078C
01EC
007C
001C
0004
ENDCHAR
STARTCHAR 25C4
ENCODING 9668
SWIDTH 981 0
DWIDTH 30 0
BBX 16 12 7 4
BITMAP
0001
000F
007F
03FF
1FFF
7FFF
FFFF
1FFF
03FF
00FF
001F
0003
ENDCHAR
STARTCHAR 25C6
ENCODING 9670
SWIDTH 981 0
DWIDTH 30 0
BBX 15 18 8 1
BITMAP
0100
0380
07C0
0FE0
1FE0
3FF0
7FF8
7FFC
FFFE
FFFE
7FFC
3FF8
1FF0
0FE0
0FC0
07C0
0380
0100
ENDCHAR
STARTCHAR 25C7
ENCODING 9671
SWIDTH 981 0
DWIDTH 30 0
BBX 19 21 6 0
BITMAP
004000
00E000
013000
031000
060800
0C0400
180200
100100
200080
4000C0
800060
4000C0
200080
300100
180200
0C0400
060800
031000
013000
00E000
004000
ENDCHAR
STARTCHAR 25CA
ENCODING 9674
SWIDTH 458 0
DWIDTH 14 0
BBX 14 23 0 0
BITMAP
0300
0780
0780
0CC0
0CC0
1860
1860
3030
3030
6018
6018
C00C
6008
6018
3030
3030
1860
1860
0CC0
0CC0
0780
0780
0300
ENDCHAR
STARTCHAR 25CB
ENCODING 9675
SWIDTH 589 0
DWIDTH 18 0
BBX 17 16 1 3
BITMAP
0FF000
1C1C00
300600
600200
C00300
C00100
800180
800180
800180
800180
C00100
C00300
600200
300600
1C1C00
0FF000
ENDCHAR
STARTCHAR 25CF
ENCODING 9679
SWIDTH 589 0
DWIDTH 18 0
BBX 16 16 1 0
BITMAP
03E0
0FF8
1FFC
3FFE
7FFE
7FFF
FFFF
FFFF
FFFF
FFFF
7FFF
7FFE
3FFE
3FFC
0FF8
03E0
ENDCHAR
STARTCHAR 25D8
ENCODING 9688
SWIDTH 589 0
DWIDTH 18 0
BBX 19 19 0 0
BITMAP
FFFFE0
FFFFE0
FFFFE0
FFFFE0
FFFFE0
FFFFE0
FE0FE0
FC07E0
FC07E0
F807E0
F807E0
FC07E0
FE0FE0
FFFFE0
FFFFE0
FFFFE0
FFFFE0
FFFFE0
FFFFE0
ENDCHAR
STARTCHAR 25D9
ENCODING 9689
SWIDTH 589 0
DWIDTH 18 0
BBX 22 22 -2 0
BITMAP
FFFFFC
FFFFFC
FFFFFC
FE01FC
FC7C7C
F9FF3C
F3FFBC
E7FF9C
E7FFDC
EFFFCC
EFFFCC
EFFFCC
EFFFCC
E7FFDC
F7FF9C
F3FFBC
F9FF3C
FC7C7C
FE01FC
FFFFFC
FFFFFC
FFFFFC
ENDCHAR
STARTCHAR 25E6
ENCODING 9702
SWIDTH 490 0
DWIDTH 15 0
BBX 11 12 2 2
BITMAP
1F00
3F80
60C0
C060
C060
C020
C020
C060
C060
71C0
3F80
0E00
ENDCHAR
STARTCHAR 263A
ENCODING 9786
SWIDTH 1014 0
DWIDTH 31 0
BBX 23 22 4 0
BITMAP
00FE00
03FF80
0E00E0
1C0030
100018
300008
61830C
61C704
418306
400006
C80026
480026
440046
4600C4
638184
23FF8C
30FF18
181018
0C0030
0600E0
03EF80
00FE00
ENDCHAR
STARTCHAR 263B
ENCODING 9787
SWIDTH 1047 0
DWIDTH 32 0
BBX 22 22 5 0
BITMAP
00FE00
03FF80
0FFFC0
1FFFE0
3FFFF0
7FFFF8
7EFDF8
FC78FC
FC78FC
FFFFFC
FFFFFC
F7FFFC
F7FFBC
FBFF3C
78FC7C
7C00F8
7E01F8
3FCFF0
1FFFE0
0FFFC0
07FF80
00FC00
ENDCHAR
STARTCHAR 263C
ENCODING 9788
SWIDTH 916 0
DWIDTH 28 0
BBX 24 23 2 0
BITMAP
001800
001800
001800
081810
0C7E30
07FFE0
0381C0
0700E0
060070
0E0070
FC003F
FC003F
0E0030
0E0070
070060
0700E0
03C3C0
07FFE0
0C7E30
081810
001800
001800
001800
ENDCHAR
STARTCHAR 2640
ENCODING 9792
SWIDTH 752 0
DWIDTH 23 0
BBX 11 20 6 2
BITMAP
1F00
3F80
60C0
C060
C060
C060
C060
C060
60C0
3F80
1F00
0400
0400
0400
FFE0
0400
0400
0400
0400
0400
ENDCHAR
STARTCHAR 2642
ENCODING 9794
SWIDTH 752 0
DWIDTH 23 0
BBX 17 17 3 5
BITMAP
003F80
001F80
000700
000F00
001900
003180
0F6080
3FC000
60C000
406000
C02000
C02000
C02000
C02000
606000
30C000
1F8000
ENDCHAR
STARTCHAR 2660
ENCODING 9824
SWIDTH 523 0
DWIDTH 16 0
BBX 18 22 0 1
BITMAP
004000
00C000
00E000
01F000
03F000
07F800
0FFC00
1FFF00
3FFF80
7FFF80
7FFFC0
FFFFC0
FFFFC0
FFBFC0
7FFFC0
7F5F80
1C4700
004000
00E000
01F000
03F800
3FFF80
ENDCHAR
STARTCHAR 2663
ENCODING 9827
SWIDTH 654 0
DWIDTH 20 0
BBX 22 22 -1 0
BITMAP
007800
01FE00
01FE00
03FF00
03FF00
03FF00
03FF00
1DFEE0
7FFFF8
7FFFFC
FFFFFC
FFFFFC
FFFFFC
FFEFFC
FFEFFC
7F97F8
3E31F0
003000
007800
00FC00
01FE00
1FFFE0
ENDCHAR
STARTCHAR 2665
ENCODING 9829
SWIDTH 589 0
DWIDTH 18 0
BBX 20 22 -1 -1
BITMAP
1E0780
7F0FE0
7F9FE0
FFFFF0
FFFFF0
FFFFF0
FFFFF0
7FFFE0
7FFFE0
3FFFC0
3FFFC0
1FFF80
0FFF00
07FE00
07FE00
03FC00
01F800
01F800
00F000
006000
006000
002000
ENDCHAR
STARTCHAR 2666
ENCODING 9830
SWIDTH 523 0
DWIDTH 16 0
BBX 16 23 0 -1
BITMAP
0080
0180
01C0
03E0
07E0
07F0
0FF8
1FF8
3FFC
3FFE
7FFF
FFFF
FFFF
7FFE
3FFE
1FFC
1FF8
0FF0
07F0
07E0
03C0
01C0
0180
ENDCHAR
STARTCHAR 266A
ENCODING 9834
SWIDTH 490 0
DWIDTH 15 0
BBX 12 22 2 0
BITMAP
0600
0600
0600
0700
0780
07C0
07C0
06E0
0660
0620
0630
0630
0630
0630
0620
0620
3E40
FE00
FC00
FC00
F800
6000
ENDCHAR
STARTCHAR 266B
ENCODING 9835
SWIDTH 752 0
DWIDTH 23 0
BBX 16 21 3 -1
BITMAP
0400
07F8
07FF
04FF
0403
0401
0401
0401
0401
0401
0401
0401
0401
0401
7C01
FC01
FC1F
F83F
F03F
003E
001C
ENDCHAR
STARTCHAR 301A
ENCODING 12314
SWIDTH 720 0
DWIDTH 22 0
BBX 8 29 7 -5
BITMAP
FF
FF
88
88
88
88
88
88
88
88
88
88
88
88
88
88
88
88
88
88
88
88
88
88
88
88
88
FF
FF
ENDCHAR
STARTCHAR 301B
ENCODING 12315
SWIDTH 720 0
DWIDTH 22 0
BBX 8 29 7 -5
BITMAP
FF
FF
11
11
11
11
11
11
11
11
11
11
11
11
11
11
11
11
11
11
11
11
11
11
11
11
11
FF
FF
ENDCHAR
STARTCHAR EFBF
ENCODING 61375
SWIDTH 720 0
DWIDTH 22 0
BBX 27 26 -4 0
BITMAP
00000040
000000E0
000000E0
000001C0
00000380
00000700
00000700
00000E00
00001C00
00001800
0C003800
1C007000
6E00E000
8E00E000
0601C000
07038000
07070000
03070000
030E0000
039C0000
01B80000
01B80000
01F00000
00E00000
00C00000
00C00000
ENDCHAR
STARTCHAR EFC0
ENCODING 61376
SWIDTH 720 0
DWIDTH 22 0
BBX 14 33 0 -6
BITMAP
00CC
00CC
00CC
00CC
00CC
00CC
00CC
00CC
00CC
00CC
00CC
00CC
00CC
00CC
00CC
00CC
00CC
00CC
00CC
00CC
00CC
00CC
00CC
00CC
00CC
00CC
00CC
00CC
00CC
00CC
00CC
FFFC
FFFC
ENDCHAR
STARTCHAR EFC1
ENCODING 61377
SWIDTH 720 0
DWIDTH 22 0
BBX 14 33 0 -6
BITMAP
FFFC
FFFC
00CC
00CC
00CC
00CC
00CC
00CC
00CC
00CC
00CC
00CC
00CC
00CC
00CC
00CC
00CC
00CC
00CC
00CC
00CC
00CC
00CC
00CC
00CC
00CC
00CC
00CC
00CC
00CC
00CC
00CC
00CC
ENDCHAR
STARTCHAR EFC2
ENCODING 61378
SWIDTH 720 0
DWIDTH 22 0
BBX 22 30 0 -7
BITMAP
FFFFFC
FFFFFC
600018
600018
600018
600018
600018
600018
600018
600018
600018
600018
600018
600018
600018
600018
600018
600018
600018
600018
600018
600018
600018
600018
600018
600018
600018
600018
600018
600018
ENDCHAR
STARTCHAR EFC3
ENCODING 61379
SWIDTH 720 0
DWIDTH 22 0
BBX 22 30 0 -7
BITMAP
600018
600018
600018
600018
600018
600018
600018
600018
600018
600018
600018
600018
600018
600018
600018
600018
600018
600018
600018
600018
600018
600018
600018
600018
600018
600018
600018
600018
FFFFFC
FFFFFC
ENDCHAR
STARTCHAR EFC4
ENCODING 61380
SWIDTH 720 0
DWIDTH 22 0
BBX 14 33 8 -6
BITMAP
CC00
CC00
CC00
CC00
CC00
CC00
CC00
CC00
CC00
CC00
CC00
CC00
CC00
CC00
CC00
CC00
CC00
CC00
CC00
CC00
CC00
CC00
CC00
CC00
CC00
CC00
CC00
CC00
CC00
CC00
CC00
FFFC
FFFC
ENDCHAR
STARTCHAR EFC5
ENCODING 61381
SWIDTH 720 0
DWIDTH 22 0
BBX 14 33 8 -6
BITMAP
FFFC
FFFC
CC00
CC00
CC00
CC00
CC00
CC00
CC00
CC00
CC00
CC00
CC00
CC00
CC00
CC00
CC00
CC00
CC00
CC00
CC00
CC00
CC00
CC00
CC00
CC00
CC00
CC00
CC00
CC00
CC00
CC00
CC00
ENDCHAR
STARTCHAR EFC6
ENCODING 61382
SWIDTH 720 0
DWIDTH 22 0
BBX 20 30 1 -7
BITMAP
01FC00
07FF00
1E0780
3801C0
3000E0
7000E0
600060
600070
600070
E00030
E00030
C00030
C00030
C00030
C00030
C00030
C00030
C00030
C00030
C00030
C00030
C00030
C00030
C00030
C00030
C00030
C00030
C00030
C00030
C00030
ENDCHAR
STARTCHAR EFC7
ENCODING 61383
SWIDTH 720 0
DWIDTH 22 0
BBX 20 30 1 -7
BITMAP
C00030
C00030
C00030
C00030
C00030
C00030
C00030
C00030
C00030
C00030
C00030
C00030
C00030
C00030
C00030
C00030
C00030
C00030
C00030
C00030
E00030
E00030
600070
600060
600060
7000E0
3801C0
1E0780
0FFF00
03FC00
ENDCHAR
STARTCHAR EFC8
ENCODING 61384
SWIDTH 720 0
DWIDTH 22 0
BBX 20 30 1 -7
BITMAP
C00030
C00030
C00030
C00030
C00030
C00030
C00030
C00030
C00030
C00030
C00030
C00030
C00030
C00030
C00030
C00030
C00030
C00030
C00030
C00030
C00030
C00030
C00030
C00030
C00030
C00030
C00030
C00030
C00030
C00030
ENDCHAR
STARTCHAR EFC9
ENCODING 61385
SWIDTH 720 0
DWIDTH 22 0
BBX 6 33 8 -6
BITMAP
CC
CC
CC
CC
CC
CC
CC
CC
CC
CC
CC
CC
CC
CC
CC
CC
CC
CC
CC
CC
CC
CC
CC
CC
CC
CC
CC
CC
CC
CC
CC
CC
CC
ENDCHAR
STARTCHAR EFCA
ENCODING 61386
SWIDTH 720 0
DWIDTH 22 0
BBX 14 19 4 -3
BITMAP
0200
0300
0300
0780
0780
0CC0
0CC0
1860
1860
3030
3030
6018
7FF8
FFFC
0000
0000
0000
FFFC
FFFC
ENDCHAR
STARTCHAR EFCB
ENCODING 61387
SWIDTH 720 0
DWIDTH 22 0
BBX 22 7 0 6
BITMAP
FFFFFC
FFFFFC
000000
000000
000000
FFFFFC
FFFFFC
ENDCHAR
STARTCHAR EFCC
ENCODING 61388
SWIDTH 720 0
DWIDTH 22 0
BBX 13 33 10 -6
BITMAP
0010
0038
0038
0070
00E0
01C0
01C0
0380
0700
0600
0E00
1C00
3800
3800
7000
E000
C000
E000
7000
3800
3800
1C00
0E00
0700
0700
0380
01C0
00E0
00E0
0070
0038
0038
0010
ENDCHAR
STARTCHAR EFCD
ENCODING 61389
SWIDTH 720 0
DWIDTH 22 0
BBX 24 33 -1 -6
BITMAP
400000
E00000
700000
700000
380000
1C0000
0E0000
0E0000
070000
038000
038000
01C000
00E000
007000
007000
003800
001C00
000C00
000E00
000700
000380
000380
0001C0
0000E0
000070
000070
000038
00001C
00001C
00000E
000007
000003
000002
ENDCHAR
STARTCHAR EFCE
ENCODING 61390
SWIDTH 720 0
DWIDTH 22 0
BBX 20 11 0 -6
BITMAP
000030
000030
000070
000070
0000F0
0000F0
0003E0
0007E0
007FE0
FFFFE0
FFFFC0
ENDCHAR
STARTCHAR EFCF
ENCODING 61391
SWIDTH 720 0
DWIDTH 22 0
BBX 13 33 -1 -6
BITMAP
4000
E000
6000
7000
3800
1C00
1C00
0E00
0700
0300
0380
01C0
00E0
00E0
0070
0038
0018
0038
0070
00E0
00E0
01C0
0380
0300
0700
0E00
1C00
1800
3800
7000
E000
E000
4000
ENDCHAR
STARTCHAR EFD0
ENCODING 61392
SWIDTH 720 0
DWIDTH 22 0
BBX 19 11 0 16
BITMAP
FFFF80
FFFFC0
00FFC0
000FC0
0007C0
0001E0
0001E0
0000E0
0000E0
000060
000060
ENDCHAR
STARTCHAR EFD1
ENCODING 61393
SWIDTH 720 0
DWIDTH 22 0
BBX 24 33 -1 -6
BITMAP
000002
000007
000007
00000E
00001C
000038
000038
000070
0000E0
0000E0
0001C0
000380
000700
000700
000E00
001C00
001800
003800
007000
00E000
00E000
01C000
038000
070000
070000
0E0000
1C0000
180000
380000
700000
E00000
E00000
400000
ENDCHAR
STARTCHAR EFD2
ENCODING 61394
SWIDTH 720 0
DWIDTH 22 0
BBX 24 33 -1 -6
BITMAP
000002
000007
000007
00000E
00001C
000018
000038
000070
0000E0
0000E0
0001C0
000380
000300
000700
000E00
001C00
001800
003800
007000
00E000
00C000
01C000
038000
030000
070000
0E0000
1C0000
180000
380000
700000
E00000
7FFFFE
7FFFFE
ENDCHAR
STARTCHAR EFD3
ENCODING 61395
SWIDTH 720 0
DWIDTH 22 0
BBX 24 33 -1 -6
BITMAP
7FFFFE
7FFFFE
E00000
700000
380000
180000
1C0000
0E0000
070000
030000
038000
01C000
00E000
00E000
007000
003800
001800
001C00
000E00
000700
000700
000380
0001C0
0000E0
0000E0
000070
000038
000018
00001C
00000E
000007
000007
000002
ENDCHAR
STARTCHAR EFD4
ENCODING 61396
SWIDTH 720 0
DWIDTH 22 0
BBX 14 30 4 -7
BITMAP
0380
0380
0380
0380
0380
0380
0380
0380
07C0
1FF0
2398
4388
438C
8384
8384
8384
8384
C384
4388
2398
3BF0
0FC0
0380
0380
0380
0380
0380
0380
0380
0380
ENDCHAR
STARTCHAR EFD5
ENCODING 61397
SWIDTH 556 0
DWIDTH 17 0
BBX 16 23 1 -8
BITMAP
003F
01FF
0604
0400
0C00
0C00
0C00
1800
1800
1800
3FE0
3800
3000
3000
3000
7000
7000
6000
6000
E000
E000
E000
C000
ENDCHAR
STARTCHAR EFD6
ENCODING 61398
SWIDTH 981 0
DWIDTH 30 0
BBX 22 12 3 9
BITMAP
FFBC3C
FFB63C
18363C
18363C
18366C
18336C
18336C
18334C
1831CC
1831CC
1831CC
18318C
ENDCHAR
STARTCHAR EFD7
ENCODING 61399
SWIDTH 981 0
DWIDTH 30 0
BBX 23 23 4 -1
BITMAP
00FE00
070380
0C0060
100030
200018
407C0C
40FF04
81C704
838106
830002
830002
830002
830002
838006
81C384
C0FF04
407C0C
600008
300010
180030
0C00C0
038380
00FE00
ENDCHAR
STARTCHAR EFD8
ENCODING 61400
SWIDTH 981 0
DWIDTH 30 0
BBX 23 23 4 -1
BITMAP
00FE00
038380
0C00C0
180020
300010
600008
41FC0C
C1FF04
818304
818306
818302
81FE02
81FC02
818C02
818606
818604
418704
600008
200018
180030
0C0060
038380
00FE00
ENDCHAR
STARTCHAR EFD9
ENCODING 61401
SWIDTH 981 0
DWIDTH 30 0
BBX 28 12 1 8
BITMAP
FFE7C1F0
CE63C1E0
8E23E1E0
8E23E2E0
0E0362E0
0E0376E0
0E0374E0
0E033CE0
0E0338E0
0E0318E0
0E0318E0
3F8F93F0
ENDCHAR
STARTCHAR EFDA
ENCODING 61402
SWIDTH 981 0
DWIDTH 30 0
BBX 23 23 4 -1
BITMAP
00FE00
038380
0C00E0
180030
200018
603908
40C70C
C18304
818106
838102
838002
838002
838002
838102
818206
C0C604
40780C
600008
300018
180030
0C0060
038380
00FE00
ENDCHAR
STARTCHAR EFDB
ENCODING 61403
SWIDTH 981 0
DWIDTH 30 0
BBX 23 23 4 -1
BITMAP
00FE00
078380
0C0060
100030
200018
63FE08
40E704
80C304
80C306
80C302
80CE02
80FC02
80CE02
80C602
80C644
C1E7C4
43F38C
600008
300010
180030
0C00C0
038380
00FE00
ENDCHAR
STARTCHAR EFDC
ENCODING 61404
SWIDTH 720 0
DWIDTH 22 0
BBX 9 33 3 -6
BITMAP
0180
0180
0180
0180
0180
0180
0180
0180
0180
0180
0180
0180
0180
0180
0180
0180
0180
0180
0180
0180
0180
0180
0180
6180
F180
3180
3980
1D80
0D80
0780
0780
0380
0180
ENDCHAR
STARTCHAR EFDD
ENCODING 61405
SWIDTH 720 0
DWIDTH 22 0
BBX 3 35 10 -8
BITMAP
E0
E0
E0
E0
E0
E0
E0
E0
E0
E0
E0
E0
E0
E0
E0
E0
E0
E0
E0
E0
E0
E0
E0
E0
E0
E0
E0
E0
E0
E0
E0
E0
E0
E0
E0
ENDCHAR
STARTCHAR EFDE
ENCODING 61406
SWIDTH 720 0
DWIDTH 22 0
BBX 8 30 5 -7
BITMAP
07
07
07
07
07
07
07
07
07
07
07
07
07
07
07
07
07
07
07
07
07
07
07
0F
0E
0E
0E
1C
38
F0
ENDCHAR
STARTCHAR EFDF
ENCODING 61407
SWIDTH 720 0
DWIDTH 22 0
BBX 8 30 10 -7
BITMAP
E0
E0
E0
E0
E0
E0
E0
E0
E0
E0
E0
70
70
38
0F
01
0E
38
70
E0
E0
E0
E0
E0
E0
E0
E0
E0
E0
E0
ENDCHAR
STARTCHAR EFE0
ENCODING 61408
SWIDTH 720 0
DWIDTH 22 0
BBX 9 31 4 -8
BITMAP
E000
3C00
0E00
0700
0700
0700
0700
0780
0380
0380
0380
0380
0380
0380
0380
0380
0380
0380
0380
0380
0380
0380
0380
0380
0380
0380
0380
0380
0380
0380
0380
ENDCHAR
STARTCHAR EFE1
ENCODING 61409
SWIDTH 720 0
DWIDTH 22 0
BBX 8 30 10 -7
BITMAP
E0
E0
E0
E0
E0
E0
E0
E0
E0
E0
E0
E0
E0
E0
E0
E0
E0
E0
E0
E0
E0
E0
E0
E0
E0
E0
E0
70
38
1F
ENDCHAR
STARTCHAR EFE2
ENCODING 61410
SWIDTH 720 0
DWIDTH 22 0
BBX 9 30 4 -7
BITMAP
0380
0380
0380
0380
0380
0380
0380
0380
0380
0380
0700
0700
0E00
1C00
F000
C000
3800
0E00
0700
0700
0700
0380
0380
0380
0380
0380
0380
0380
0380
0380
ENDCHAR
STARTCHAR EFE3
ENCODING 61411
SWIDTH 720 0
DWIDTH 22 0
BBX 8 30 10 -7
BITMAP
07
1C
38
70
E0
E0
E0
E0
E0
E0
E0
E0
E0
E0
E0
E0
E0
E0
E0
E0
E0
E0
E0
E0
E0
E0
E0
E0
E0
E0
ENDCHAR
STARTCHAR EFE4
ENCODING 61412
SWIDTH 720 0
DWIDTH 22 0
BBX 12 33 0 -6
BITMAP
0030
0030
0030
0030
0030
0030
0030
0030
0030
0030
0030
0030
0030
0030
0030
0030
0030
0030
0030
0030
0030
0030
0030
0030
0030
0030
0030
0030
0030
0030
0030
FFF0
FFF0
ENDCHAR
STARTCHAR EFE5
ENCODING 61413
SWIDTH 720 0
DWIDTH 22 0
BBX 12 33 0 -6
BITMAP
FFF0
FFF0
0030
0030
0030
0030
0030
0030
0030
0030
0030
0030
0030
0030
0030
0030
0030
0030
0030
0030
0030
0030
0030
0030
0030
0030
0030
0030
0030
0030
0030
0030
0030
ENDCHAR
STARTCHAR EFE6
ENCODING 61414
SWIDTH 720 0
DWIDTH 22 0
BBX 12 33 10 -6
BITMAP
C000
C000
C000
C000
C000
C000
C000
C000
C000
C000
C000
C000
C000
C000
C000
C000
C000
C000
C000
C000
C000
C000
C000
C000
C000
C000
C000
C000
C000
C000
C000
FFF0
FFF0
ENDCHAR
STARTCHAR EFE7
ENCODING 61415
SWIDTH 720 0
DWIDTH 22 0
BBX 12 33 10 -6
BITMAP
FFF0
FFF0
C000
C000
C000
C000
C000
C000
C000
C000
C000
C000
C000
C000
C000
C000
C000
C000
C000
C000
C000
C000
C000
C000
C000
C000
C000
C000
C000
C000
C000
C000
C000
ENDCHAR
STARTCHAR EFE8
ENCODING 61416
SWIDTH 720 0
DWIDTH 22 0
BBX 22 2 0 8
BITMAP
FFFFFC
FFFFFC
ENDCHAR
STARTCHAR EFE9
ENCODING 61417
SWIDTH 720 0
DWIDTH 22 0
BBX 22 4 0 25
BITMAP
000380
0000E0
FFFFFC
FFFFFC
ENDCHAR
STARTCHAR EFEA
ENCODING 61418
SWIDTH 720 0
DWIDTH 22 0
BBX 22 2 0 25
BITMAP
FFFFFC
FFFFFC
ENDCHAR
STARTCHAR EFEB
ENCODING 61419
SWIDTH 720 0
DWIDTH 22 0
BBX 22 2 0 -6
BITMAP
FFFFFC
FFFFFC
ENDCHAR
STARTCHAR EFEC
ENCODING 61420
SWIDTH 523 0
DWIDTH 16 0
BBX 15 16 1 0
BITMAP
03F0
0FF8
1E3C
1C1E
380E
1C00
0FC0
3FC0
7C00
7000
E000
E01C
703C
7C78
3FF0
0FC0
ENDCHAR
STARTCHAR EFFA
ENCODING 61434
SWIDTH 981 0
DWIDTH 30 0
BBX 22 22 4 0
BITMAP
007C00
03FF00
07FFC0
0FFFE0
1FFFF0
3FFFF8
7FFFF8
7FFFFC
7FFFFC
7FFFFC
FFFFFC
FFFFFC
FFFFFC
7FFFFC
7FFFFC
7FFFF8
3FFFF8
3FFFF0
1FFFE0
0FFFC0
03FF80
00FC00
ENDCHAR
STARTCHAR EFFB
ENCODING 61435
SWIDTH 981 0
DWIDTH 30 0
BBX 22 22 4 0
BITMAP
FFFFFC
FFFFFC
FFFFFC
FFFFFC
FFFFFC
FFFFFC
FFFFFC
FFFFFC
FFFFFC
FFFFFC
FFFFFC
FFFFFC
FFFFFC
FFFFFC
FFFFFC
FFFFFC
FFFFFC
FFFFFC
FFFFFC
FFFFFC
FFFFFC
FFFFFC
ENDCHAR
STARTCHAR EFFC
ENCODING 61436
SWIDTH 981 0
DWIDTH 30 0
BBX 22 22 4 0
BITMAP
FFFFFC
C00004
C00004
C00004
C00004
C00004
C00004
C00004
C00004
C00004
C00004
C00004
C00004
C00004
C00004
C00004
C00004
C00004
C00004
C00004
C00004
FFFFFC
ENDCHAR
STARTCHAR EFFD
ENCODING 61437
SWIDTH 981 0
DWIDTH 30 0
BBX 21 22 5 0
BITMAP
01FC00
070700
1C0180
300040
200020
400030
C00010
800018
800008
800008
800008
800008
800008
800008
800018
C00010
400030
200020
300040
1C0180
070700
01FC00
ENDCHAR
STARTCHAR EFFE
ENCODING 61438
SWIDTH 785 0
DWIDTH 24 0
BBX 20 21 2 0
BITMAP
00FF80
03E3C0
0EC1E0
1CC0F0
39C0F0
31C0F0
71E0F0
61E0F0
E1E0E0
E1F1C0
C0F380
C0FE00
C0F000
C07800
E07800
E07800
E07800
707000
307000
1DE000
0F8000
ENDCHAR
STARTCHAR EFFF
ENCODING 61439
SWIDTH 490 0
DWIDTH 15 0
BBX 14 14 1 8
BITMAP
0F80
3060
6010
58D8
94C8
954C
9544
9544
954C
9348
D248
6010
3060
0F80
ENDCHAR
STARTCHAR FB00
ENCODING 64256
SWIDTH 556 0
DWIDTH 17 0
BBX 15 22 1 0
BITMAP
1E0E
3E1E
3838
3038
3038
3038
FEFE
FEFE
3038
3038
3038
3038
3038
3038
3038
3038
3038
3038
3038
3038
3038
3038
ENDCHAR
STARTCHAR FB01
ENCODING 64257
SWIDTH 490 0
DWIDTH 15 0
BBX 13 22 0 0
BITMAP
0F18
1F18
1C18
1800
3800
3800
FF18
FF18
3818
3818
3818
3818
3818
3818
3818
3818
3818
3818
3818
3818
3818
3818
ENDCHAR
STARTCHAR FB02
ENCODING 64258
SWIDTH 490 0
DWIDTH 15 0
BBX 12 22 1 0
BITMAP
1E30
3E30
3830
3030
3030
3030
FE30
FE30
3030
3030
3030
3030
3030
3030
3030
3030
3030
3030
3030
3030
3030
3030
ENDCHAR
STARTCHAR FB03
ENCODING 64259
SWIDTH 785 0
DWIDTH 24 0
BBX 21 22 1 0
BITMAP
1E0E38
3E1E38
383C38
303800
303800
303800
FEFE38
FEFE38
303838
303838
303838
303838
303838
303838
303838
303838
303838
303838
303838
303838
303838
303838
ENDCHAR
STARTCHAR FB04
ENCODING 64260
SWIDTH 785 0
DWIDTH 24 0
BBX 21 22 1 0
BITMAP
1E0E38
3E1E38
383C38
303838
303838
303838
FEFE38
FEFE38
303838
303838
303838
303838
303838
303838
303838
303838
303838
303838
303838
303838
303838
303838
ENDCHAR
ENDFONT
